<?xml version="1.0" encoding="UTF-8"?>
<svg version="1.1" xmlns="http://www.w3.org/2000/svg" width="2000" height="2000">
<path d="M0 0 C2.97076577 0.00008073 5.94137556 -0.00679623 8.91210938 -0.02050781 C30.24902379 -0.11732129 51.39002956 0.61007135 72.6730957 2.18530273 C73.37200424 2.23692629 74.07091278 2.28854984 74.79100037 2.34173775 C127.95136801 6.28420202 180.19308057 15.41622021 231.6730957 29.18530273 C232.94749512 29.52529297 234.22189453 29.8652832 235.53491211 30.21557617 C289.58882475 44.80472645 343.39511538 64.32957838 393.24731445 89.93920898 C395.03748363 90.85879669 396.82941778 91.77495041 398.62231445 92.68920898 C414.53180657 100.80708011 430.22202258 109.22514078 445.6730957 118.18530273 C447.08679443 119.00345459 447.08679443 119.00345459 448.52905273 119.83813477 C460.80019024 126.95919855 472.84803262 134.34655022 484.6730957 142.18530273 C485.29168457 142.59312988 485.91027344 143.00095703 486.54760742 143.42114258 C490.26103712 145.86950363 493.9608235 148.33725149 497.6496582 150.82250977 C499.06510604 151.77581935 500.48188409 152.72715548 501.8996582 153.67700195 C512.76456395 160.96493726 523.27996859 168.57354811 533.61010742 176.59887695 C536.34502855 178.70201512 539.11695378 180.75300375 541.89038086 182.80493164 C548.68955572 187.84020814 555.24049004 193.07359099 561.6496582 198.59545898 C564.51594519 201.05068931 567.42534854 203.43826126 570.3605957 205.81030273 C574.76675468 209.39270155 578.98030595 213.1418394 583.16918945 216.97436523 C586.5980754 220.00205548 590.19898411 222.78578698 593.8371582 225.55639648 C594.44301758 226.09393555 595.04887695 226.63147461 595.6730957 227.18530273 C595.6730957 227.84530273 595.6730957 228.50530273 595.6730957 229.18530273 C596.23512695 229.41862305 596.7971582 229.65194336 597.3762207 229.89233398 C600.24043712 231.5046735 602.14561591 233.50465894 604.4230957 235.87280273 C607.29385768 238.85006072 610.20929172 241.68026057 613.3449707 244.37280273 C618.51568435 248.85055299 623.33656186 253.66478381 628.1730957 258.49780273 C629.0909082 259.40336914 630.0087207 260.30893555 630.9543457 261.24194336 C631.8205957 262.10625977 632.6868457 262.97057617 633.5793457 263.86108398 C634.36631836 264.64394775 635.15329102 265.42681152 635.96411133 266.23339844 C637.6730957 268.18530273 637.6730957 268.18530273 637.6730957 270.18530273 C638.3330957 270.18530273 638.9930957 270.18530273 639.6730957 270.18530273 C639.6730957 270.84530273 639.6730957 271.50530273 639.6730957 272.18530273 C640.3330957 272.18530273 640.9930957 272.18530273 641.6730957 272.18530273 C642.49061874 273.76604838 643.30191567 275.35001497 644.1105957 276.93530273 C644.56305664 277.81702148 645.01551758 278.69874023 645.48168945 279.60717773 C648.85727627 286.91172627 648.89757662 295.68535694 646.2355957 303.24780273 C641.06283227 314.18907817 631.39955109 322.72924638 622.8918457 331.12670898 C621.78557565 332.22668927 620.67983206 333.32719926 619.57458496 334.4282074 C616.69911545 337.29053026 613.81808531 340.1471809 610.93530273 343.00213623 C606.29331623 347.60055186 601.65847283 352.2061447 597.02662659 356.81477165 C595.41306993 358.41811905 593.79614553 360.01801138 592.17883301 361.61756897 C591.19699031 362.5925889 590.2152542 363.56771618 589.23364258 364.54296875 C588.3747644 365.3935939 587.51588623 366.24421906 586.63098145 367.12062073 C584.62874191 369.03156165 584.62874191 369.03156165 583.6730957 371.18530273 C583.0130957 371.18530273 582.3530957 371.18530273 581.6730957 371.18530273 C581.6730957 371.84530273 581.6730957 372.50530273 581.6730957 373.18530273 C581.0130957 373.18530273 580.3530957 373.18530273 579.6730957 373.18530273 C579.40039352 373.78364929 579.12769135 374.38199585 578.84672546 374.99847412 C577.7029996 377.1295827 576.60712676 378.48853013 574.89501953 380.17456055 C574.33716263 380.7290387 573.77930573 381.28351685 573.20454407 381.85479736 C572.3014576 382.7376944 572.3014576 382.7376944 571.38012695 383.63842773 C570.44374641 384.56700592 570.44374641 384.56700592 569.4884491 385.51434326 C567.492196 387.4928142 565.4894077 389.46449017 563.4855957 391.43530273 C561.50045804 393.39263057 559.5168673 395.35146216 557.53630066 397.31341553 C556.30583892 398.53183101 555.07271736 399.74756895 553.83638 400.96002197 C550.19438398 404.56055211 546.79330049 408.30161613 543.44532776 412.17584229 C540.50581789 415.50883065 537.39431273 418.66624319 534.27075195 421.82592773 C533.58935654 422.5153949 532.90796112 423.20486206 532.20591736 423.91522217 C530.77627203 425.35858586 529.3451477 426.80048601 527.91259766 428.2409668 C526.45856369 429.70657825 525.00902261 431.17666051 523.56396484 432.65112305 C521.45519326 434.80266744 519.33338379 436.94055532 517.20825195 439.07592773 C516.57154068 439.73014709 515.93482941 440.38436646 515.27882385 441.05841064 C507.49303239 448.80731285 499.82176031 451.50658218 488.93041992 451.49560547 C477.32237121 451.257191 470.73995216 446.22504371 462.6730957 438.18530273 C461.94348633 437.45956055 461.21387695 436.73381836 460.4621582 435.98608398 C458.84892617 434.36607366 457.23654617 432.74521206 455.62646484 431.12207031 C453.20655247 428.6827762 450.78360952 426.24651585 448.3605957 423.81030273 C447.13566406 422.57280273 447.13566406 422.57280273 445.88598633 421.31030273 C441.53505951 416.94204155 437.12189523 412.72624098 432.44433594 408.70922852 C430.03067027 406.63257777 427.69925028 404.47073947 425.3605957 402.31030273 C420.92813096 398.27250951 416.39567394 394.41222839 411.7277832 390.65014648 C409.48997991 388.84445098 407.26827671 387.02550961 405.0559082 385.18920898 C395.98225527 377.68588617 386.65314193 370.64977922 377.03686523 363.85766602 C374.62618231 362.15211158 372.22561091 360.43295341 369.82543945 358.71264648 C293.70577279 304.44256169 204.19262361 268.35430981 74.6730957 247.18530273 C73.05068856 246.97966278 71.42829126 246.77394512 69.8059082 246.56811523 C-8.04891599 237.12747889 -89.52703475 244.64840781 -249.3269043 295.18530273 C-251.09517578 295.94593018 -251.09517578 295.94593018 -252.89916992 296.72192383 C-266.55744488 302.60724236 -279.97786074 308.75296765 -293.01586914 315.91577148 C-295.47449405 317.26637887 -297.94127595 318.60128119 -300.40893555 319.93530273 C-314.37622543 327.51705649 -327.96383884 335.58142959 -341.3269043 344.18530273 C-342.41487305 344.87237305 -343.5028418 345.55944336 -344.6237793 346.26733398 C-352.46856684 351.23265412 -360.06288852 356.47256807 -367.5769043 361.92358398 C-369.31857439 363.17929702 -371.07048578 364.41907097 -372.8269043 365.65405273 C-384.2127069 373.67128408 -395.11406099 382.20715973 -405.69628906 391.2578125 C-409.75272889 394.72395185 -413.89606044 398.05927001 -418.1081543 401.33374023 C-420.40400534 403.1920245 -420.40400534 403.1920245 -422.62646484 405.49414062 C-425.26312369 408.12174124 -427.98277357 410.60939383 -430.75268555 413.09545898 C-435.42532432 417.33403773 -439.90314077 421.72780202 -444.30737305 426.24389648 C-444.89753204 426.84666412 -445.48769104 427.44943176 -446.09573364 428.07046509 C-448.51952901 430.54802484 -450.94131093 433.02707619 -453.34423828 435.52490234 C-466.27137819 448.93639916 -466.27137819 448.93639916 -474.3269043 451.18530273 C-475.3169043 451.51530273 -476.3069043 451.84530273 -477.3269043 452.18530273 C-487.98837755 453.10587171 -496.75140486 450.57746949 -505.3269043 444.18530273 C-510.04755115 439.95933444 -514.30308821 435.38158298 -518.42382812 430.57739258 C-522.51532871 425.89710965 -526.87851115 421.52508838 -531.2956543 417.15405273 C-532.1347937 416.31869995 -532.97393311 415.48334717 -533.83850098 414.62268066 C-536.4988733 411.97443187 -539.16246442 409.32945867 -541.8269043 406.68530273 C-545.34027703 403.19867672 -548.850224 399.70865347 -552.3581543 396.21655273 C-553.15314331 395.42986206 -553.94813232 394.64317139 -554.76721191 393.8326416 C-558.22628104 390.38865269 -561.60266747 386.92911203 -564.78417969 383.22583008 C-568.93554074 378.40349764 -573.45217811 373.97253754 -577.97924805 369.50561523 C-579.82508 367.67241161 -581.67077937 365.83907447 -583.51635742 364.00561523 C-586.40658055 361.13921666 -589.29934953 358.27540571 -592.19433594 355.41381836 C-595.00282134 352.63712167 -597.80347049 349.85258672 -600.60424805 347.06811523 C-601.47911362 346.20670929 -602.35397919 345.34530334 -603.25535583 344.45779419 C-604.05361282 343.66291595 -604.85186981 342.86803772 -605.67431641 342.04907227 C-606.38156357 341.34928253 -607.08881073 340.6494928 -607.81748962 339.92849731 C-609.3269043 338.18530273 -609.3269043 338.18530273 -609.3269043 336.18530273 C-609.9869043 336.18530273 -610.6469043 336.18530273 -611.3269043 336.18530273 C-612.73046875 334.74951172 -612.73046875 334.74951172 -614.37768555 332.74389648 C-617.05564601 329.59151879 -619.82566562 326.65010775 -622.80737305 323.78295898 C-623.57887695 323.03723633 -624.35038086 322.29151367 -625.14526367 321.52319336 C-626.72885468 320.00226712 -628.32007948 318.48925072 -629.91870117 316.98413086 C-637.79290103 309.3214964 -640.88948262 302.38906364 -641.4284668 291.40405273 C-641.19424935 283.98116145 -638.81856319 278.08060503 -634.3269043 272.18530273 C-633.5225293 271.00967773 -633.5225293 271.00967773 -632.7019043 269.81030273 C-632.0212793 269.00592773 -632.0212793 269.00592773 -631.3269043 268.18530273 C-630.6669043 268.18530273 -630.0069043 268.18530273 -629.3269043 268.18530273 C-629.3269043 267.52530273 -629.3269043 266.86530273 -629.3269043 266.18530273 C-628.6669043 266.18530273 -628.0069043 266.18530273 -627.3269043 266.18530273 C-627.1206543 265.65420898 -626.9144043 265.12311523 -626.7019043 264.57592773 C-624.74729238 261.17756837 -622.10566713 258.67474345 -619.3269043 255.93530273 C-618.7803418 255.38100586 -618.2337793 254.82670898 -617.6706543 254.25561523 C-613.580291 250.18530273 -613.580291 250.18530273 -611.3269043 250.18530273 C-611.3269043 249.52530273 -611.3269043 248.86530273 -611.3269043 248.18530273 C-609.9284668 246.81030273 -609.9284668 246.81030273 -607.9519043 245.18530273 C-604.62970014 242.37106301 -601.55149121 239.42999842 -598.5144043 236.31030273 C-594.20516424 231.94139628 -589.63747733 228.09346665 -584.84643555 224.26733398 C-582.69848572 222.49236149 -580.75677709 220.68886995 -578.8269043 218.68530273 C-575.26493265 215.00516141 -571.34425367 211.85483121 -567.3581543 208.64624023 C-564.09682976 205.99851542 -560.89740697 203.28659117 -557.7019043 200.56030273 C-552.67992565 196.29154783 -547.56760792 192.18155834 -542.3269043 188.18530273 C-541.41166992 187.47374023 -540.49643555 186.76217773 -539.5534668 186.02905273 C-524.48983537 174.34240669 -509.08108963 163.20950958 -493.29321289 152.52319336 C-490.86926683 150.87392289 -488.470328 149.19100165 -486.0769043 147.49780273 C-473.40870991 138.62572824 -460.41705918 130.54328888 -447.04760742 122.76831055 C-444.51734708 121.29610954 -441.99183481 119.81612047 -439.4675293 118.33374023 C-369.13566407 77.15146734 -293.16755505 46.50220405 -73.7644043 2.99780273 C-72.80943054 2.91285553 -71.85445679 2.82790833 -70.87054443 2.74038696 C-47.24151856 0.66080652 -23.71118887 -0.00323633 0 0 Z " fill="#FDFDFD" transform="translate(996.326904296875,661.814697265625)"/>
<path d="M0 0 C1.49995947 -0.00067747 2.99991883 -0.00165112 4.49987793 -0.00289917 C7.63290459 -0.00436265 10.76590251 -0.00227038 13.89892578 0.00244141 C17.81568245 0.00805956 21.73237 0.00480325 25.64912415 -0.00099564 C41.12699685 -0.02044968 56.59172078 0.08269267 72.0625 0.578125 C73.30229614 0.61686737 74.54209229 0.65560974 75.81945801 0.69552612 C81.03616453 0.88377624 86.01031965 1.22294877 91.15625 2.1328125 C92.95494172 2.29034412 94.75613367 2.42129775 96.55859375 2.52734375 C120.70986405 4.06616587 144.57683708 7.0194118 168.33740234 11.60742188 C171.35098422 12.16910802 174.37024157 12.67894976 177.39453125 13.1796875 C191.42512073 15.52772249 205.25490587 18.41892078 219.09375 21.6953125 C220.30236694 21.9798378 220.30236694 21.9798378 221.53540039 22.27011108 C230.22677969 24.32468545 238.79848763 26.54420239 247.31469727 29.25024414 C250.59783526 30.2699661 253.90393827 31.11988499 257.23754883 31.95532227 C314.10595576 46.4149485 371.45276635 71.89434178 422.49072266 100.63378906 C425.30369868 102.21573381 428.12596422 103.78023136 430.94921875 105.34375 C442.51688203 111.77980707 453.83061596 118.51480217 464.94482422 125.70507812 C467.09355123 127.0923331 469.2504715 128.4658203 471.41015625 129.8359375 C494.17346373 144.33349132 516.11699508 160.23385934 537.15625 177.1328125 C537.79127441 177.64166992 538.42629883 178.15052734 539.08056641 178.67480469 C551.32365882 188.50153658 563.32016412 198.5837928 574.9453125 209.13671875 C576.91143291 210.91178505 578.90087948 212.65244005 580.90625 214.3828125 C587.13621824 219.80185512 593.12267422 225.49752051 599.15625 231.1328125 C592.99100115 238.68497146 585.96213431 245.39082552 579.03588867 252.23266602 C577.38765934 253.86258972 575.74261511 255.49568294 574.09765625 257.12890625 C573.60576309 257.61250107 573.11386993 258.09609589 572.60707092 258.59434509 C569.92424531 261.25873223 567.3874198 263.99446975 564.92480469 266.86425781 C560.50278277 271.96748001 555.71212845 276.68267503 550.91796875 281.43359375 C549.94597858 282.40116734 548.97428916 283.36904314 548.00288391 284.33720398 C544.95267635 287.37609874 541.89850218 290.41098702 538.84375 293.4453125 C535.2831421 296.98226003 531.72421074 300.52086266 528.16944313 304.06368065 C526.75227258 305.47438934 525.33205341 306.88203331 523.91178894 308.28962708 C523.05362076 309.14449203 522.19545258 309.99935699 521.3112793 310.88012695 C520.17712837 312.00642265 520.17712837 312.00642265 519.02006531 313.1554718 C516.99528402 315.19327751 516.99528402 315.19327751 515.15625 318.1328125 C512.149432 316.79281752 510.15862391 315.33435959 507.90625 312.9453125 C504.84033439 309.78826564 501.64530434 306.87915162 498.3125 304.0078125 C495.95662042 301.95922156 493.6511754 299.86078248 491.34375 297.7578125 C487.02148191 293.8572291 482.57191832 290.15336265 478.04296875 286.49609375 C475.56602931 284.46828812 473.13876874 282.3946505 470.72119141 280.296875 C462.6827745 273.35449185 454.17278635 267.10724193 445.57177734 260.88378906 C443.26643481 259.21268368 440.97000806 257.53007008 438.67578125 255.84375 C412.37843258 236.58083986 384.80157371 219.65938341 356.15625 204.1328125 C355.18461914 203.60300781 354.21298828 203.07320312 353.21191406 202.52734375 C318.25777388 183.54352451 281.31084699 168.86146768 243.53125 156.5703125 C242.64062866 156.280354 241.75000732 155.99039551 240.83239746 155.69165039 C204.89714113 144.04462398 168.40973167 135.72231924 131.09375 129.9453125 C130.27707855 129.81857147 129.4604071 129.69183044 128.61898804 129.56124878 C123.13646241 128.71499459 117.64938805 127.90712723 112.15625 127.1328125 C110.88998779 126.95298828 109.62372559 126.77316406 108.3190918 126.58789062 C94.02798544 124.7355584 79.62444969 124.02756354 65.24810791 123.14123535 C61.62026956 122.91655749 57.99276957 122.68654265 54.36523438 122.45703125 C47.29588801 122.01052127 40.22619508 121.56974926 33.15625 121.1328125 C33.77113281 120.40578125 33.77113281 120.40578125 34.3984375 119.6640625 C34.93726563 118.99375 35.47609375 118.3234375 36.03125 117.6328125 C36.56492187 116.983125 37.09859375 116.3334375 37.6484375 115.6640625 C40.99589219 110.04450125 41.40737251 104.02654869 41.47509766 97.61523438 C41.49016609 96.56009644 41.49016609 96.56009644 41.50553894 95.48364258 C41.53609851 93.1896232 41.55332909 90.89571898 41.5703125 88.6015625 C41.58904616 86.99872871 41.60862117 85.39590456 41.6289978 83.79309082 C41.68009312 79.59779569 41.719839 75.40246867 41.75714111 71.20703125 C41.79732333 66.9165879 41.84835045 62.62627463 41.8984375 58.3359375 C41.99492887 49.93497861 42.07841468 41.53396498 42.15625 33.1328125 C36.87625 33.1328125 31.59625 33.1328125 26.15625 33.1328125 C26.17196045 35.2574292 26.1876709 37.3820459 26.20385742 39.57104492 C26.2535975 46.5958185 26.28671662 53.62059992 26.31168652 60.64550304 C26.32733322 64.90414442 26.34855318 69.16260516 26.38256836 73.42114258 C26.41519752 77.53194768 26.43311051 81.64257918 26.44088173 85.7535038 C26.44641887 87.32078089 26.45723165 88.88804863 26.47344017 90.45525169 C26.49526228 92.65291143 26.49821501 94.84985653 26.49682617 97.04760742 C26.50348801 98.29781174 26.51014984 99.54801605 26.51701355 100.83610535 C26.12505472 104.41787925 25.36852513 106.31093996 23.15625 109.1328125 C19.4576555 110.10161945 16.00840067 109.99685424 12.15625 110.1328125 C11.49625 114.0928125 10.83625 118.0528125 10.15625 122.1328125 C8.44824219 122.18179688 6.74023438 122.23078125 4.98046875 122.28125 C-61.66364368 124.32698479 -127.40640382 135.41352312 -190.84375 156.1328125 C-192.11405654 156.54406429 -193.38440188 156.95519624 -194.65478516 157.36621094 C-235.25250668 170.5521064 -275.20321536 187.56561726 -312.32128906 208.69726562 C-314.93346983 210.18387256 -317.55581615 211.65132694 -320.1796875 213.1171875 C-343.82700806 226.39619999 -367.50948964 240.83763261 -388.7734375 257.70703125 C-392.45068796 260.61233982 -396.20718046 263.40071617 -399.96875 266.1953125 C-406.40808051 271.00449045 -412.6881006 275.96313292 -418.84375 281.1328125 C-419.35502441 281.55916992 -419.86629883 281.98552734 -420.39306641 282.42480469 C-427.18537742 288.08948196 -433.8339911 293.87121616 -440.34765625 299.85546875 C-442.56749551 301.8807681 -444.81768516 303.85879021 -447.09375 305.8203125 C-450.31204165 308.60334339 -453.28503784 311.55718819 -456.203125 314.65234375 C-457.97149321 316.24808554 -459.70527834 317.11007715 -461.84375 318.1328125 C-464.53556275 315.4704705 -467.22137147 312.80214583 -469.90625 310.1328125 C-471.03450195 309.01712891 -471.03450195 309.01712891 -472.18554688 307.87890625 C-475.58674989 304.49242705 -478.92047496 301.10527221 -482.02734375 297.4453125 C-487.58304665 290.98723748 -493.79151108 285.1195037 -499.84375 279.1328125 C-513.76162695 265.36567068 -513.76162695 265.36567068 -518.99658203 259.19384766 C-521.48150606 256.42121633 -524.12417234 253.81679308 -526.77734375 251.20703125 C-527.3047818 250.68746857 -527.83221985 250.16790588 -528.37564087 249.63259888 C-530.57030711 247.47451939 -532.76789717 245.31960087 -534.97436523 243.17358398 C-536.60286639 241.58720944 -538.22193548 239.99169772 -539.83984375 238.39453125 C-540.59436073 237.66794563 -540.59436073 237.66794563 -541.36412048 236.92668152 C-542.58208634 235.71790361 -543.72066141 234.4302164 -544.84375 233.1328125 C-544.84375 230.1328125 -544.84375 230.1328125 -543.41015625 228.625 C-542.74886719 228.09132813 -542.08757812 227.55765625 -541.40625 227.0078125 C-538.27345208 224.39165143 -535.37090187 221.68972743 -532.53125 218.7578125 C-528.52434553 214.69611276 -524.25213452 211.14702012 -519.80078125 207.5859375 C-516.5129761 204.85840562 -513.39611713 201.99138392 -510.28125 199.0703125 C-505.867212 194.94471913 -501.38017093 191.02815387 -496.61328125 187.30859375 C-494.46392383 185.62002946 -492.34191555 183.91078975 -490.23046875 182.17578125 C-480.9583499 174.55755205 -471.51088929 167.24188511 -461.84375 160.1328125 C-461.17746582 159.6387793 -460.51118164 159.14474609 -459.82470703 158.63574219 C-433.64637885 139.24485222 -406.15371029 121.47506778 -377.66113281 105.69580078 C-375.06748498 104.25693307 -372.48229521 102.80400295 -369.8984375 101.34765625 C-329.79451533 78.91712045 -288.1386544 60.43153506 -244.84375 45.1328125 C-243.11932988 44.51300203 -241.39532304 43.89203959 -239.671875 43.26953125 C-226.24057246 38.43657062 -212.63086345 34.46181492 -198.8515625 30.7578125 C-194.92175195 29.70101382 -191.00126742 28.61700119 -187.0859375 27.5078125 C-141.83703077 14.81586506 -95.92057179 7.50590956 -49.21875 2.9453125 C-48.35252014 2.86063721 -47.48629028 2.77596191 -46.59381104 2.6887207 C-44.0810298 2.44462093 -41.56795306 2.20390164 -39.0546875 1.96484375 C-38.33170471 1.89521927 -37.60872192 1.82559479 -36.86383057 1.75386047 C-34.5247036 1.53465553 -32.18476741 1.33084924 -29.84375 1.1328125 C-28.81014343 1.04390747 -27.77653687 0.95500244 -26.71160889 0.86340332 C-17.80103509 0.15564746 -8.93254597 -0.01459504 0 0 Z " fill="#010101" transform="translate(973.84375,722.8671875)"/>
<path d="M0 0 C2.97076577 0.00008073 5.94137556 -0.00679623 8.91210938 -0.02050781 C30.24902379 -0.11732129 51.39002956 0.61007135 72.6730957 2.18530273 C73.37200424 2.23692629 74.07091278 2.28854984 74.79100037 2.34173775 C127.95136801 6.28420202 180.19308057 15.41622021 231.6730957 29.18530273 C232.94749512 29.52529297 234.22189453 29.8652832 235.53491211 30.21557617 C289.58882475 44.80472645 343.39511538 64.32957838 393.24731445 89.93920898 C395.03748363 90.85879669 396.82941778 91.77495041 398.62231445 92.68920898 C414.53180657 100.80708011 430.22202258 109.22514078 445.6730957 118.18530273 C447.08679443 119.00345459 447.08679443 119.00345459 448.52905273 119.83813477 C460.80019024 126.95919855 472.84803262 134.34655022 484.6730957 142.18530273 C485.29168457 142.59312988 485.91027344 143.00095703 486.54760742 143.42114258 C490.26103712 145.86950363 493.9608235 148.33725149 497.6496582 150.82250977 C499.06510604 151.77581935 500.48188409 152.72715548 501.8996582 153.67700195 C512.76456395 160.96493726 523.27996859 168.57354811 533.61010742 176.59887695 C536.34502855 178.70201512 539.11695378 180.75300375 541.89038086 182.80493164 C548.68955572 187.84020814 555.24049004 193.07359099 561.6496582 198.59545898 C564.51594519 201.05068931 567.42534854 203.43826126 570.3605957 205.81030273 C574.76675468 209.39270155 578.98030595 213.1418394 583.16918945 216.97436523 C586.5980754 220.00205548 590.19898411 222.78578698 593.8371582 225.55639648 C594.44301758 226.09393555 595.04887695 226.63147461 595.6730957 227.18530273 C595.6730957 227.84530273 595.6730957 228.50530273 595.6730957 229.18530273 C596.23512695 229.41862305 596.7971582 229.65194336 597.3762207 229.89233398 C600.24043712 231.5046735 602.14561591 233.50465894 604.4230957 235.87280273 C607.29385768 238.85006072 610.20929172 241.68026057 613.3449707 244.37280273 C618.51568435 248.85055299 623.33656186 253.66478381 628.1730957 258.49780273 C629.0909082 259.40336914 630.0087207 260.30893555 630.9543457 261.24194336 C631.8205957 262.10625977 632.6868457 262.97057617 633.5793457 263.86108398 C634.36631836 264.64394775 635.15329102 265.42681152 635.96411133 266.23339844 C637.6730957 268.18530273 637.6730957 268.18530273 637.6730957 270.18530273 C638.3330957 270.18530273 638.9930957 270.18530273 639.6730957 270.18530273 C639.6730957 270.84530273 639.6730957 271.50530273 639.6730957 272.18530273 C640.3330957 272.18530273 640.9930957 272.18530273 641.6730957 272.18530273 C642.49061874 273.76604838 643.30191567 275.35001497 644.1105957 276.93530273 C644.56305664 277.81702148 645.01551758 278.69874023 645.48168945 279.60717773 C648.85727627 286.91172627 648.89757662 295.68535694 646.2355957 303.24780273 C641.06283227 314.18907817 631.39955109 322.72924638 622.8918457 331.12670898 C621.78557565 332.22668927 620.67983206 333.32719926 619.57458496 334.4282074 C616.69911545 337.29053026 613.81808531 340.1471809 610.93530273 343.00213623 C606.29331623 347.60055186 601.65847283 352.2061447 597.02662659 356.81477165 C595.41306993 358.41811905 593.79614553 360.01801138 592.17883301 361.61756897 C591.19699031 362.5925889 590.2152542 363.56771618 589.23364258 364.54296875 C588.3747644 365.3935939 587.51588623 366.24421906 586.63098145 367.12062073 C584.62874191 369.03156165 584.62874191 369.03156165 583.6730957 371.18530273 C583.0130957 371.18530273 582.3530957 371.18530273 581.6730957 371.18530273 C581.6730957 371.84530273 581.6730957 372.50530273 581.6730957 373.18530273 C581.0130957 373.18530273 580.3530957 373.18530273 579.6730957 373.18530273 C579.40039352 373.78364929 579.12769135 374.38199585 578.84672546 374.99847412 C577.7029996 377.1295827 576.60712676 378.48853013 574.89501953 380.17456055 C574.33716263 380.7290387 573.77930573 381.28351685 573.20454407 381.85479736 C572.3014576 382.7376944 572.3014576 382.7376944 571.38012695 383.63842773 C570.44374641 384.56700592 570.44374641 384.56700592 569.4884491 385.51434326 C567.492196 387.4928142 565.4894077 389.46449017 563.4855957 391.43530273 C561.50045804 393.39263057 559.5168673 395.35146216 557.53630066 397.31341553 C556.30583892 398.53183101 555.07271736 399.74756895 553.83638 400.96002197 C550.19438398 404.56055211 546.79330049 408.30161613 543.44532776 412.17584229 C540.50581789 415.50883065 537.39431273 418.66624319 534.27075195 421.82592773 C533.58935654 422.5153949 532.90796112 423.20486206 532.20591736 423.91522217 C530.77627203 425.35858586 529.3451477 426.80048601 527.91259766 428.2409668 C526.45856369 429.70657825 525.00902261 431.17666051 523.56396484 432.65112305 C521.45519326 434.80266744 519.33338379 436.94055532 517.20825195 439.07592773 C516.57154068 439.73014709 515.93482941 440.38436646 515.27882385 441.05841064 C507.49303239 448.80731285 499.82176031 451.50658218 488.93041992 451.49560547 C477.32237121 451.257191 470.73995216 446.22504371 462.6730957 438.18530273 C461.94348633 437.45956055 461.21387695 436.73381836 460.4621582 435.98608398 C458.84892617 434.36607366 457.23654617 432.74521206 455.62646484 431.12207031 C453.20655247 428.6827762 450.78360952 426.24651585 448.3605957 423.81030273 C447.13566406 422.57280273 447.13566406 422.57280273 445.88598633 421.31030273 C441.53505951 416.94204155 437.12189523 412.72624098 432.44433594 408.70922852 C430.03067027 406.63257777 427.69925028 404.47073947 425.3605957 402.31030273 C420.92813096 398.27250951 416.39567394 394.41222839 411.7277832 390.65014648 C409.48997991 388.84445098 407.26827671 387.02550961 405.0559082 385.18920898 C395.98225527 377.68588617 386.65314193 370.64977922 377.03686523 363.85766602 C374.62618231 362.15211158 372.22561091 360.43295341 369.82543945 358.71264648 C293.70577279 304.44256169 204.19262361 268.35430981 74.6730957 247.18530273 C73.05068856 246.97966278 71.42829126 246.77394512 69.8059082 246.56811523 C-8.04891599 237.12747889 -89.52703475 244.64840781 -249.3269043 295.18530273 C-251.09517578 295.94593018 -251.09517578 295.94593018 -252.89916992 296.72192383 C-266.55744488 302.60724236 -279.97786074 308.75296765 -293.01586914 315.91577148 C-295.47449405 317.26637887 -297.94127595 318.60128119 -300.40893555 319.93530273 C-314.37622543 327.51705649 -327.96383884 335.58142959 -341.3269043 344.18530273 C-342.41487305 344.87237305 -343.5028418 345.55944336 -344.6237793 346.26733398 C-352.46856684 351.23265412 -360.06288852 356.47256807 -367.5769043 361.92358398 C-369.31857439 363.17929702 -371.07048578 364.41907097 -372.8269043 365.65405273 C-384.2127069 373.67128408 -395.11406099 382.20715973 -405.69628906 391.2578125 C-409.75272889 394.72395185 -413.89606044 398.05927001 -418.1081543 401.33374023 C-420.40400534 403.1920245 -420.40400534 403.1920245 -422.62646484 405.49414062 C-425.26312369 408.12174124 -427.98277357 410.60939383 -430.75268555 413.09545898 C-435.42532432 417.33403773 -439.90314077 421.72780202 -444.30737305 426.24389648 C-444.89753204 426.84666412 -445.48769104 427.44943176 -446.09573364 428.07046509 C-448.51952901 430.54802484 -450.94131093 433.02707619 -453.34423828 435.52490234 C-466.27137819 448.93639916 -466.27137819 448.93639916 -474.3269043 451.18530273 C-475.3169043 451.51530273 -476.3069043 451.84530273 -477.3269043 452.18530273 C-487.98837755 453.10587171 -496.75140486 450.57746949 -505.3269043 444.18530273 C-510.04755115 439.95933444 -514.30308821 435.38158298 -518.42382812 430.57739258 C-522.51532871 425.89710965 -526.87851115 421.52508838 -531.2956543 417.15405273 C-532.1347937 416.31869995 -532.97393311 415.48334717 -533.83850098 414.62268066 C-536.4988733 411.97443187 -539.16246442 409.32945867 -541.8269043 406.68530273 C-545.34027703 403.19867672 -548.850224 399.70865347 -552.3581543 396.21655273 C-553.15314331 395.42986206 -553.94813232 394.64317139 -554.76721191 393.8326416 C-558.22628104 390.38865269 -561.60266747 386.92911203 -564.78417969 383.22583008 C-568.93554074 378.40349764 -573.45217811 373.97253754 -577.97924805 369.50561523 C-579.82508 367.67241161 -581.67077937 365.83907447 -583.51635742 364.00561523 C-586.40658055 361.13921666 -589.29934953 358.27540571 -592.19433594 355.41381836 C-595.00282134 352.63712167 -597.80347049 349.85258672 -600.60424805 347.06811523 C-601.47911362 346.20670929 -602.35397919 345.34530334 -603.25535583 344.45779419 C-604.05361282 343.66291595 -604.85186981 342.86803772 -605.67431641 342.04907227 C-606.38156357 341.34928253 -607.08881073 340.6494928 -607.81748962 339.92849731 C-609.3269043 338.18530273 -609.3269043 338.18530273 -609.3269043 336.18530273 C-609.9869043 336.18530273 -610.6469043 336.18530273 -611.3269043 336.18530273 C-612.73046875 334.74951172 -612.73046875 334.74951172 -614.37768555 332.74389648 C-617.05564601 329.59151879 -619.82566562 326.65010775 -622.80737305 323.78295898 C-623.57887695 323.03723633 -624.35038086 322.29151367 -625.14526367 321.52319336 C-626.72885468 320.00226712 -628.32007948 318.48925072 -629.91870117 316.98413086 C-637.79290103 309.3214964 -640.88948262 302.38906364 -641.4284668 291.40405273 C-641.19424935 283.98116145 -638.81856319 278.08060503 -634.3269043 272.18530273 C-633.5225293 271.00967773 -633.5225293 271.00967773 -632.7019043 269.81030273 C-632.0212793 269.00592773 -632.0212793 269.00592773 -631.3269043 268.18530273 C-630.6669043 268.18530273 -630.0069043 268.18530273 -629.3269043 268.18530273 C-629.3269043 267.52530273 -629.3269043 266.86530273 -629.3269043 266.18530273 C-628.6669043 266.18530273 -628.0069043 266.18530273 -627.3269043 266.18530273 C-627.1206543 265.65420898 -626.9144043 265.12311523 -626.7019043 264.57592773 C-624.74729238 261.17756837 -622.10566713 258.67474345 -619.3269043 255.93530273 C-618.7803418 255.38100586 -618.2337793 254.82670898 -617.6706543 254.25561523 C-613.580291 250.18530273 -613.580291 250.18530273 -611.3269043 250.18530273 C-611.3269043 249.52530273 -611.3269043 248.86530273 -611.3269043 248.18530273 C-609.9284668 246.81030273 -609.9284668 246.81030273 -607.9519043 245.18530273 C-604.62970014 242.37106301 -601.55149121 239.42999842 -598.5144043 236.31030273 C-594.20516424 231.94139628 -589.63747733 228.09346665 -584.84643555 224.26733398 C-582.69848572 222.49236149 -580.75677709 220.68886995 -578.8269043 218.68530273 C-575.26493265 215.00516141 -571.34425367 211.85483121 -567.3581543 208.64624023 C-564.09682976 205.99851542 -560.89740697 203.28659117 -557.7019043 200.56030273 C-552.67992565 196.29154783 -547.56760792 192.18155834 -542.3269043 188.18530273 C-541.41166992 187.47374023 -540.49643555 186.76217773 -539.5534668 186.02905273 C-524.48983537 174.34240669 -509.08108963 163.20950958 -493.29321289 152.52319336 C-490.86926683 150.87392289 -488.470328 149.19100165 -486.0769043 147.49780273 C-473.40870991 138.62572824 -460.41705918 130.54328888 -447.04760742 122.76831055 C-444.51734708 121.29610954 -441.99183481 119.81612047 -439.4675293 118.33374023 C-369.13566407 77.15146734 -293.16755505 46.50220405 -73.7644043 2.99780273 C-72.80943054 2.91285553 -71.85445679 2.82790833 -70.87054443 2.74038696 C-47.24151856 0.66080652 -23.71118887 -0.00323633 0 0 Z M-82.3269043 5.18530273 C-83.31732727 5.28196228 -84.30775024 5.37862183 -85.32818604 5.47821045 C-110.51858236 7.96419757 -135.45717143 11.47952748 -160.3269043 16.18530273 C-160.99079163 16.31012024 -161.65467896 16.43493774 -162.33868408 16.5635376 C-184.40637334 20.71719392 -206.40901036 25.30531224 -227.90112305 31.86499023 C-231.13901603 32.84724741 -234.39087714 33.75397402 -237.65893555 34.63061523 C-266.4447429 42.38045521 -294.62498393 52.19832117 -322.3269043 63.18530273 C-323.48641602 63.64340332 -324.64592773 64.10150391 -325.84057617 64.57348633 C-346.06830771 72.61593846 -365.73786875 81.71128046 -385.3269043 91.18530273 C-386.47126953 91.73750488 -387.61563477 92.28970703 -388.79467773 92.85864258 C-402.5573802 99.5307706 -415.96945777 106.70752077 -429.20141602 114.37670898 C-431.95604057 115.97069888 -434.71717835 117.55276796 -437.48065186 119.13134766 C-454.93022359 129.11410651 -471.76396071 139.79165172 -488.3269043 151.18530273 C-489.25889648 151.82628906 -490.19088867 152.46727539 -491.15112305 153.12768555 C-496.9089703 157.10144071 -502.62835119 161.12707856 -508.3269043 165.18530273 C-509.10888184 165.74056641 -509.89085937 166.29583008 -510.6965332 166.86791992 C-520.7894362 174.04592762 -530.68157642 181.41626162 -540.3269043 189.18530273 C-540.96869629 189.70092773 -541.61048828 190.21655273 -542.27172852 190.74780273 C-549.84674995 196.84151105 -557.35954323 203.00148817 -564.75390625 209.31347656 C-567.98038548 212.06440102 -571.25897909 214.73343065 -574.5769043 217.37280273 C-580.3010014 222.02415544 -585.62701524 227.0738933 -590.96264648 232.16259766 C-594.59763715 235.62879006 -598.26683183 239.03704998 -602.0222168 242.37280273 C-607.82180622 247.57208867 -613.3892223 252.99108577 -618.91503906 258.47827148 C-620.0691457 259.62077659 -621.2277262 260.75877921 -622.390625 261.89233398 C-631.41792258 270.69328526 -639.30619694 278.51708309 -639.6394043 291.81030273 C-639.32075678 310.6105065 -621.51040387 323.13010955 -609.0769043 335.43530273 C-606.44367212 338.04165213 -603.81399036 340.65151335 -601.1862793 343.26342773 C-600.30791412 344.1293454 -600.30791412 344.1293454 -599.4118042 345.01275635 C-596.47732804 347.93006387 -593.67137815 350.90250699 -590.97241211 354.03979492 C-586.9157448 358.73058465 -582.54507199 363.07439131 -578.1394043 367.43530273 C-576.84740112 368.72162598 -576.84740112 368.72162598 -575.52929688 370.03393555 C-572.7975931 372.75351162 -570.06267154 375.46981474 -567.3269043 378.18530273 C-563.71978578 381.76568299 -560.11608628 385.34945454 -556.5144043 388.93530273 C-555.6975415 389.74386719 -554.88067871 390.55243164 -554.0390625 391.38549805 C-549.89023545 395.51670344 -545.92849765 399.72659767 -542.11026001 404.16372681 C-536.27691986 410.77628308 -529.89707356 416.92290191 -523.68554688 423.17675781 C-521.90475233 424.97415423 -520.12934595 426.77690509 -518.359375 428.58496094 C-515.78132038 431.21801533 -513.18698501 433.83402263 -510.58862305 436.44702148 C-509.80911789 437.24919601 -509.02961273 438.05137054 -508.22648621 438.87785339 C-502.35471687 444.72752948 -495.73851226 449.928938 -487.23706055 450.88452148 C-476.29061443 450.85118205 -468.62253823 448.53624261 -460.5769043 440.81030273 C-458.94011679 439.01475542 -457.33706506 437.19720443 -455.75952148 435.34936523 C-451.5538468 430.42809815 -447.07729351 425.95261964 -442.3269043 421.56030273 C-441.22258057 420.53151001 -441.22258057 420.53151001 -440.09594727 419.48193359 C-438.58014283 418.06998923 -437.06305528 416.65942107 -435.54467773 415.25024414 C-433.4442112 413.29452574 -431.35593474 411.32680759 -429.2722168 409.35327148 C-423.01078011 403.43437455 -416.70651344 397.68185477 -409.9675293 392.30249023 C-407.22826859 390.10621908 -404.56192041 387.83716702 -401.8894043 385.56030273 C-393.31445194 378.40526487 -384.30739484 371.81822499 -375.3269043 365.18530273 C-374.56571289 364.61875977 -373.80452148 364.0522168 -373.02026367 363.46850586 C-356.78695269 351.39758231 -339.73167959 340.5369182 -322.2722168 330.32788086 C-320.93263756 329.5410798 -319.59689932 328.74771452 -318.2644043 327.94897461 C-244.92067483 284.0082224 -161.83591839 257.3571204 -77.2644043 246.43530273 C-76.49030212 246.33434296 -75.71619995 246.23338318 -74.91864014 246.12936401 C-69.39469832 245.41612032 -63.86494982 244.77863367 -58.3269043 244.18530273 C-57.46183258 244.09034515 -56.59676086 243.99538757 -55.70547485 243.89755249 C-38.08373641 242.01914329 -20.53949198 241.90770406 -2.84436035 241.98968506 C0.09943249 242.00052281 3.0431797 242.0001038 5.98698902 241.99969006 C27.43189383 242.00033269 48.78088913 242.3499554 70.1105957 244.74780273 C70.84634827 244.82944672 71.58210083 244.9110907 72.34014893 244.99520874 C110.71410209 249.32595598 149.18832139 256.51346756 185.98046875 268.32958984 C188.972264 269.28037798 191.97433062 270.19390927 194.9777832 271.10717773 C259.28373961 290.86277532 321.29417548 320.39346095 375.43139648 360.52905273 C377.76161766 362.25070602 380.1045524 363.95381832 382.45043945 365.65405273 C392.79988055 373.17693953 402.86323275 380.97114333 412.6730957 389.18530273 C413.27992187 389.69303223 413.88674805 390.20076172 414.51196289 390.72387695 C422.5423012 397.46927446 430.33075248 404.44682591 437.98706055 411.61254883 C439.72568282 413.23435663 441.47379461 414.84540447 443.22387695 416.45483398 C444.45748655 417.59357579 445.69055084 418.73290858 446.9230957 419.87280273 C447.54216797 420.44434082 448.16124023 421.01587891 448.79907227 421.60473633 C452.29317101 424.86202275 455.67622248 428.19324761 458.98168945 431.64233398 C471.76145929 445.47871418 471.76145929 445.47871418 489.2980957 450.74780273 C504.68779921 449.75134711 513.63269635 441.02506672 523.6730957 430.18530273 C524.72852604 428.96739945 525.7802455 427.74627468 526.82910156 426.52270508 C530.69706296 422.09158193 534.80427798 417.94404775 538.9855957 413.81030273 C540.14442261 412.65715576 540.14442261 412.65715576 541.32666016 411.48071289 C544.59685606 408.22670444 547.87303061 404.97874007 551.14868164 401.73022461 C553.55474855 399.34234921 555.95772609 396.95139481 558.3605957 394.56030273 C559.45464722 393.47869873 559.45464722 393.47869873 560.57080078 392.37524414 C563.88707428 389.07467306 567.1047271 385.74418116 570.15942383 382.19897461 C573.96713174 377.78205505 578.05962992 373.69048529 582.2043457 369.59155273 C582.99909302 368.80059204 583.79384033 368.00963135 584.6126709 367.19470215 C587.97845118 363.84511701 591.35020618 360.50157003 594.72143555 357.1574707 C597.19699798 354.70009334 599.66947653 352.23964216 602.1418457 349.77905273 C602.89308716 349.03610962 603.64432861 348.2931665 604.41833496 347.52770996 C608.47842557 343.48630739 612.33210538 339.34391237 616.07037354 335.00396729 C618.33284906 332.43665766 620.74126183 330.09295627 623.2121582 327.72436523 C624.21535581 326.74841237 625.21794189 325.77183058 626.2199707 324.79467773 C627.75870918 323.29906314 629.30078398 321.80773933 630.85375977 320.3269043 C638.06961319 313.43013472 645.21627296 306.50410651 646.3371582 296.06030273 C646.31782227 294.14217773 646.31782227 294.14217773 646.2980957 292.18530273 C646.31098633 290.90655273 646.32387695 289.62780273 646.3371582 288.31030273 C645.38790293 278.88096685 639.10676655 271.89499811 632.59106445 265.57983398 C631.81805496 264.81152756 631.04504547 264.04322113 630.24861145 263.25163269 C627.79748567 260.82166966 625.32926758 258.40992354 622.8605957 255.99780273 C621.21561593 254.36935542 619.57172573 252.7398067 617.92895508 251.10913086 C611.56609007 244.81699327 605.22602191 238.56044161 598.44119263 232.7202301 C595.67967652 230.32289171 593.02742241 227.81174158 590.3605957 225.31030273 C585.5666043 220.85025918 580.64798575 216.6222072 575.5402832 212.52124023 C572.25730389 209.84655136 569.06059431 207.0830764 565.8605957 204.31030273 C558.97232548 198.36919314 551.87652198 192.73751382 544.6730957 187.18530273 C543.69300537 186.42564209 543.69300537 186.42564209 542.69311523 185.65063477 C502.7586384 154.70689156 460.18631419 127.46212349 415.59057617 103.73803711 C413.69176878 102.72745845 411.79485136 101.71331793 409.90014648 100.69506836 C370.42452027 79.48850997 329.10960888 62.12804189 286.65386963 47.85272217 C284.71847608 47.2005936 282.78516503 46.54262218 280.85229492 45.88305664 C259.87943723 38.76086992 238.61471558 32.95761005 217.18945312 27.37182617 C214.35895517 26.63234723 211.53367419 25.87780666 208.71337891 25.1003418 C199.49147288 22.57219533 190.23675342 20.53292949 180.8605957 18.68530273 C180.10795441 18.53533844 179.35531311 18.38537415 178.5798645 18.23086548 C166.46566402 15.82156919 154.33457237 13.76412173 142.10668945 12.00952148 C138.57620125 11.49762244 135.09185268 10.89009933 131.59887695 10.16577148 C126.56313715 9.130446 121.52691424 8.41745829 116.4230957 7.81030273 C115.39587402 7.68800293 114.36865234 7.56570313 113.31030273 7.43969727 C101.74175435 6.11799756 90.14587914 5.08678618 78.5480957 4.06030273 C77.11016663 3.93090302 77.11016663 3.93090302 75.64318848 3.79888916 C23.05931571 -0.90560537 -29.82506271 0.04518205 -82.3269043 5.18530273 Z " fill="#131313" transform="translate(996.326904296875,661.814697265625)"/>
<path d="M0 0 C6.72850766 5.72557916 9.34686371 12.14626598 10.3125 20.80078125 C10.6400904 28.20227696 9.20534262 33.22761888 4.41015625 38.87109375 C-3.34790188 46.49793737 -16.17300149 51 -27 51 C-26.78065796 51.98226562 -26.78065796 51.98226562 -26.55688477 52.984375 C-25.88827374 55.98874854 -25.22534983 58.99435036 -24.5625 62 C-24.33240234 63.02996094 -24.10230469 64.05992187 -23.86523438 65.12109375 C-22.6300475 70.7420891 -21.59862473 76.275221 -21 82 C-22.35129647 82.48720213 -23.70624316 82.96428184 -25.0625 83.4375 C-25.81660156 83.70433594 -26.57070313 83.97117187 -27.34765625 84.24609375 C-30.53821874 85.15298412 -33.71644164 85.55400156 -37 86 C-38.61919945 79.54902646 -40.23637797 73.0975485 -41.85229492 66.64575195 C-42.39970526 64.46107104 -42.94754144 62.27649677 -43.49584961 60.09204102 C-46.91087061 46.48516999 -50.25482124 32.86521359 -53.46841431 19.20932007 C-54.00011212 16.99953404 -54.56387442 14.79964669 -55.1315918 12.59887695 C-55.87020536 9.53789787 -56.19488476 7.11815608 -56 4 C-48.97559083 1.55065104 -41.91051238 -0.41350363 -34.6875 -2.1875 C-33.63626953 -2.46013672 -32.58503906 -2.73277344 -31.50195312 -3.01367188 C-20.23700447 -5.77624994 -9.86852817 -7.01724062 0 0 Z " fill="#FAFAFA" transform="translate(851,759)"/>
<path d="M0 0 C6.11418051 3.66850831 10.07891241 10.00725123 12.14453125 16.71875 C14.6223048 27.65108009 14.66710213 39.83163031 8.828125 49.61328125 C5.98324784 53.32742643 3.10357514 55.77508134 -1 58 C-1.72832031 58.40992188 -2.45664062 58.81984375 -3.20703125 59.2421875 C-11.10163731 63.03893005 -20.20998684 63.42640266 -28.6796875 61.33984375 C-37.42141394 57.84617799 -43.12939484 51.83389434 -47.08984375 43.4296875 C-50.39142356 34.61602809 -50.66476743 22.17978803 -47.3125 13.3125 C-43.36346005 5.19426457 -37.55718204 0.21358505 -29.1953125 -3.1171875 C-19.3448396 -5.8387118 -9.05513997 -4.55135757 0 0 Z " fill="#FAFAFA" transform="translate(973,760)"/>
<path d="M0 0 C4.81420162 3.63472222 8.05586648 8.9355525 9.125 14.8671875 C9.24381874 17.36514434 9.30019316 19.86643665 9.3125 22.3671875 C9.32667969 23.676875 9.34085938 24.9865625 9.35546875 26.3359375 C9.13904492 29.65199077 8.6781051 31.06336535 7.125 33.8671875 C-6.60816089 33.34323156 -20.21486528 32.37845912 -33.875 30.8671875 C-33.60158143 32.30800911 -33.3152047 33.74637542 -33.0234375 35.18359375 C-32.86536621 35.98482666 -32.70729492 36.78605957 -32.54443359 37.61157227 C-31.34005522 41.66965097 -28.5517467 43.87029818 -25.015625 45.97265625 C-21.08463068 47.61535278 -17.0486593 47.41929361 -12.875 46.8671875 C-9.76431491 45.54561387 -7.42355492 43.96429734 -5.875 40.8671875 C-0.52347115 41.19152258 2.40780043 44.36423574 6.125 47.8671875 C4.70664226 51.16941528 3.01824118 53.14341791 0.3125 55.4921875 C-0.35394531 56.08257813 -1.02039062 56.67296875 -1.70703125 57.28125 C-8.92460653 62.5611339 -18.33169561 61.63492641 -26.875 60.8671875 C-35.13326178 59.14111777 -41.58703185 54.43514326 -46.48046875 47.63671875 C-51.64941615 38.2978642 -51.16902355 26.76328817 -49.24609375 16.515625 C-46.90977546 9.07712283 -42.27406021 2.74410912 -35.71875 -1.54296875 C-24.31624319 -7.47822882 -10.96254328 -6.62320323 0 0 Z " fill="#F8F8F8" transform="translate(1079.875,762.1328125)"/>
<path d="M0 0 C5.14415016 3.15395436 8.19181076 6.07718316 10.4453125 11.7109375 C10.6953125 14.3984375 10.6953125 14.3984375 9.4453125 16.7109375 C5.45696146 19.47836475 2.32730613 20.7109375 -2.5546875 20.7109375 C-3.828125 19.03125 -3.828125 19.03125 -4.9296875 16.8359375 C-6.64912942 13.87787025 -7.26791623 12.86388218 -10.3671875 11.2109375 C-17.85252018 9.9895066 -17.85252018 9.9895066 -24.8046875 12.5859375 C-30.15008358 17.79988941 -31.78494978 24.70761738 -31.9921875 31.9609375 C-31.8092523 36.56382309 -31.38819956 39.93292142 -28.5546875 43.7109375 C-24.63848063 47.17177148 -21.61406125 48.31807773 -16.51171875 48.03515625 C-12.31291315 47.33954574 -9.42743971 45.72914841 -6.6796875 42.5234375 C-6.3084375 41.9253125 -5.9371875 41.3271875 -5.5546875 40.7109375 C-2.16276387 41.30377371 -0.3439118 42.47836939 2.1953125 44.7734375 C3.11570312 45.59521484 3.11570312 45.59521484 4.0546875 46.43359375 C4.74304687 47.06587891 4.74304687 47.06587891 5.4453125 47.7109375 C4.57609378 51.9563847 2.62266471 54.80615227 -0.5546875 57.7109375 C-7.22680662 61.90748861 -13.71263625 63.53825643 -21.5546875 62.7109375 C-31.02656316 60.5327795 -39.02285104 56.97026406 -44.4296875 48.6484375 C-49.674608 39.68072378 -49.97714976 29.49187973 -47.8671875 19.43359375 C-44.92133431 10.6819549 -39.71527533 2.88490761 -31.37109375 -1.4140625 C-20.84708931 -6.14247635 -10.26823883 -5.18122143 0 0 Z " fill="#F9F9F9" transform="translate(1145.5546875,770.2890625)"/>
<path d="M0 0 C5.85215304 -0.07136772 11.23806769 -0.08570535 17 1 C16.52229477 2.93786085 16.04278429 4.87527674 15.5625 6.8125 C15.29566406 7.89144531 15.02882813 8.97039063 14.75390625 10.08203125 C14.23922588 12.0740843 13.65062825 14.04811524 13 16 C13.763125 16.103125 14.52625 16.20625 15.3125 16.3125 C20.29440864 17.24133042 25.12637995 18.62116443 30 20 C29.85831863 21.43791516 29.71148957 22.8753237 29.5625 24.3125 C29.48128906 25.11300781 29.40007812 25.91351562 29.31640625 26.73828125 C29 29 29 29 28 32 C23.51658188 31.50184243 19.13202042 30.86275043 14.7109375 29.9609375 C13.3813501 29.69095947 13.3813501 29.69095947 12.02490234 29.41552734 C11.02257568 29.20984131 11.02257568 29.20984131 10 29 C8.99386888 32.87543969 7.99730471 36.75320496 7.00927734 40.63330078 C6.67233668 41.95101984 6.33285685 43.26809249 5.99072266 44.58447266 C5.49744146 46.48425243 5.01424787 48.38664231 4.53125 50.2890625 C4.23798828 51.43068848 3.94472656 52.57231445 3.64257812 53.74853516 C2.44133475 59.48457581 2.44133475 59.48457581 4.14453125 64.83203125 C6.67193509 66.42296546 8.72141954 66.51302468 11.6875 66.6875 C13.440625 66.790625 15.19375 66.89375 17 67 C17 71.29 17 75.58 17 80 C11.89334054 82.55332973 5.0597117 81.23646814 -0.25 79.8125 C-5.89417295 77.91634143 -9.55718882 75.47636343 -12.625 70.2109375 C-17.58325361 58.63228845 -12.2753475 45.67726976 -8.72753906 34.40332031 C-7.68631744 30.96379492 -6.83518312 27.49479537 -6 24 C-10.455 23.01 -10.455 23.01 -15 22 C-14.040996 17.6525152 -13.07979643 13.31918573 -12 9 C-8.7 9.66 -5.4 10.32 -2 11 C-1.34 7.37 -0.68 3.74 0 0 Z " fill="#F9F9F9" transform="translate(1177,765)"/>
<path d="M0 0 C1.34771484 -0.00386719 1.34771484 -0.00386719 2.72265625 -0.0078125 C4.9375 0.125 4.9375 0.125 5.9375 1.125 C6.01021741 3.47813555 6.02120868 5.83333668 6 8.1875 C5.99097656 9.47785156 5.98195313 10.76820313 5.97265625 12.09765625 C5.96105469 13.09667969 5.94945312 14.09570312 5.9375 15.125 C5.20144531 15.16238281 4.46539063 15.19976563 3.70703125 15.23828125 C-3.72713311 15.57937575 -3.72713311 15.57937575 -10.0625 19.125 C-15.45884215 27.44914481 -11.70888154 41.91335759 -10.13012695 51.0703125 C-9.26457896 56.17422042 -8.91979923 60.94615134 -9.0625 66.125 C-10.62366819 66.46451619 -12.18651338 66.79632544 -13.75 67.125 C-14.62011719 67.310625 -15.49023438 67.49625 -16.38671875 67.6875 C-18.99962964 68.11472047 -21.42063038 68.20116201 -24.0625 68.125 C-26.10452965 60.29721967 -27.44968043 52.66548522 -28.2902832 44.63696289 C-28.82175015 39.73225096 -29.630684 34.9553045 -30.625 30.125 C-32.27831067 21.7749461 -32.70802852 13.63231548 -33.0625 5.125 C-28.1125 4.465 -23.1625 3.805 -18.0625 3.125 C-17.7325 6.095 -17.4025 9.065 -17.0625 12.125 C-16.4025 12.125 -15.7425 12.125 -15.0625 12.125 C-15.041875 11.42375 -15.02125 10.7225 -15 10 C-13.61655081 5.75742249 -10.59529256 3.70320427 -7.0625 1.125 C-4.56110398 -0.12569801 -2.78857309 -0.00802467 0 0 Z " fill="#F9F9F9" transform="translate(908.0625,760.875)"/>
<path d="M0 0 C4.06546078 1.70844266 5.78824658 4.61178539 7.875 8.4375 C10.16467058 15.6629874 10.46742955 24.68748165 7.375 31.6875 C5.16324446 35.26151328 3.11136665 36.80396607 -1 38 C-5.99248565 38.58000936 -10.32994926 38.78172588 -14.9375 36.625 C-20.31184805 29.78492067 -21.68056496 22.65496847 -21.38671875 14.0625 C-20.85374609 9.84178723 -19.802491 6.26020443 -17 3 C-11.65883984 -0.94621799 -6.41023455 -0.90333929 0 0 Z " fill="#050505" transform="translate(961,770)"/>
<path d="M0 0 C3.70380423 2.8757903 5.87582069 5.78284929 6.5234375 10.4140625 C6.5860587 14.47817857 6.56013627 17.28197273 4.6875 20.94921875 C1.39947623 23.66183836 -1.75554477 24.82629263 -5.8125 26.01171875 C-6.51246094 26.22957031 -7.21242188 26.44742188 -7.93359375 26.671875 C-11.98674655 27.8288241 -14.7586837 27.99191613 -18.8125 27.01171875 C-19.6493335 23.38751751 -20.48137234 19.76223238 -21.3125 16.13671875 C-21.55097656 15.10417969 -21.78945313 14.07164062 -22.03515625 13.0078125 C-22.26074219 12.02167969 -22.48632812 11.03554688 -22.71875 10.01953125 C-22.92822266 9.1083252 -23.13769531 8.19711914 -23.35351562 7.25830078 C-23.8125 5.01171875 -23.8125 5.01171875 -23.8125 3.01171875 C-5.86948977 -3.20038989 -5.86948977 -3.20038989 0 0 Z " fill="#040404" transform="translate(837.8125,768.98828125)"/>
<path d="M0 0 C3.15380666 1.29324374 5.43855248 2.87710497 7 6 C7.13415472 8.6723621 7.04318541 11.32250488 7 14 C-1.71700174 14.14368684 -10.31320899 13.71961582 -19 13 C-18.24713345 8.47511837 -16.78503438 5.68607491 -14 2 C-9.54001851 -0.97332099 -5.23104347 -0.62682975 0 0 Z " fill="#070707" transform="translate(1066,770)"/>
<path d="M0 0 C3.70718433 0.81785983 5.13329673 2.33819937 7.16015625 5.4765625 C7.85352718 8.3188103 7.85352718 10.6343147 7.16015625 13.4765625 C5.22265625 16.4765625 5.22265625 16.4765625 2.16015625 18.4765625 C-0.96650357 19.10523253 -3.71543871 19.12480355 -6.83984375 18.4765625 C-9.34145193 16.60035637 -10.45930027 15.23764947 -11.83984375 12.4765625 C-12.32137387 8.2230464 -12.2870113 6.1545262 -9.90234375 2.5390625 C-6.32643379 0.13079661 -4.23452677 -0.26863442 0 0 Z " fill="#FAFAFA" transform="translate(1010.83984375,729.5234375)"/>
<path d="M0 0 C3.49619891 1.16539964 3.99896503 2.04327406 6.09765625 4.96484375 C10.11388329 10.29762403 14.67444741 14.89923739 19.4375 19.5625 C20.26443359 20.38041016 21.09136719 21.19832031 21.94335938 22.04101562 C23.95768684 24.03205607 25.97656044 26.01822797 28 28 C24.42826318 28 23.66718752 27.03271213 21.20469666 24.62153625 C20.7233577 24.1341246 20.24201874 23.64671295 19.74609375 23.14453125 C19.24457291 22.64588058 18.74305206 22.14722992 18.22633362 21.63346863 C17.16615621 20.57533381 16.10976243 19.51339659 15.05688477 18.44799805 C13.45056387 16.82569386 11.82898826 15.21990913 10.20507812 13.61523438 C9.17612069 12.58429323 8.14809496 11.55242116 7.12109375 10.51953125 C6.63773056 10.04224075 6.15436737 9.56495026 5.65635681 9.07319641 C2.88751323 6.24625027 1.19290322 3.78088212 0 0 Z " fill="#0B0B0B" transform="translate(358,967)"/>
<path d="M0 0 C0.66 0.33 1.32 0.66 2 1 C-4.20395948 7.16406264 -10.23098158 10.14590729 -19.0625 10.1875 C-20.361875 10.125625 -21.66125 10.06375 -23 10 C-23 9.67 -23 9.34 -23 9 C-22.00033203 8.88785156 -22.00033203 8.88785156 -20.98046875 8.7734375 C-13.604535 7.72120639 -5.45271794 5.45271794 0 0 Z " fill="#0D0D0D" transform="translate(533,1104)"/>
<path d="M0 0 C5.70985379 3.65119902 10.94464135 7.48244546 16 12 C15.67 12.66 15.34 13.32 15 14 C12.4884887 12.24505922 9.9930386 10.46856271 7.5 8.6875 C6.78457031 8.18798828 6.06914063 7.68847656 5.33203125 7.17382812 C4.65527344 6.68720703 3.97851562 6.20058594 3.28125 5.69921875 C2.65283203 5.25408936 2.02441406 4.80895996 1.37695312 4.3503418 C0.92255859 3.904729 0.46816406 3.45911621 0 3 C0 2.01 0 1.02 0 0 Z " fill="#0C0C0C" transform="translate(1525,835)"/>
<path d="M0 0 C3.83990988 1.38375131 6.97052564 3.16309349 10.3125 5.5 C11.19550781 6.1084375 12.07851562 6.716875 12.98828125 7.34375 C13.65214844 7.8903125 14.31601563 8.436875 15 9 C15 9.66 15 10.32 15 11 C11.16009012 9.61624869 8.02947436 7.83690651 4.6875 5.5 C3.80449219 4.8915625 2.92148438 4.283125 2.01171875 3.65625 C1.34785156 3.1096875 0.68398437 2.563125 0 2 C0 1.34 0 0.68 0 0 Z " fill="#151515" transform="translate(1345,1004)"/>
<path d="M0 0 C0.66 0 1.32 0 2 0 C2 0.66 2 1.32 2 2 C2.66 2 3.32 2 4 2 C9.55580866 12.37357631 9.55580866 12.37357631 10 18 C9.34 18 8.68 18 8 18 C7.75765625 17.26394531 7.5153125 16.52789063 7.265625 15.76953125 C5.43867459 10.45029487 3.82426402 6.2340066 0 2 C0 1.34 0 0.68 0 0 Z " fill="#0A0A0A" transform="translate(1634,932)"/>
<path d="M0 0 C0 0.66 0 1.32 0 2 C-2.0978523 3.20005531 -4.2020249 4.38502983 -6.3125 5.5625 C-6.90740234 5.90474609 -7.50230469 6.24699219 -8.11523438 6.59960938 C-9.70282559 7.47766262 -11.34993931 8.24586268 -13 9 C-13.99 8.67 -14.98 8.34 -16 8 C-13.71125827 6.66141476 -11.41930344 5.32898986 -9.125 4 C-8.47402344 3.6184375 -7.82304688 3.236875 -7.15234375 2.84375 C-2.2265625 0 -2.2265625 0 0 0 Z " fill="#151515" transform="translate(699,978)"/>
<path d="M0 0 C0.33 0.99 0.66 1.98 1 3 C0.05576669 4.75822755 -0.8976664 6.5138006 -1.94140625 8.21484375 C-3.22941442 10.3868723 -4.13828753 12.63029071 -5 15 C-6.04537095 12.29840881 -6.08156212 11.21584123 -5.0390625 8.45703125 C-4.57242187 7.58433594 -4.10578125 6.71164062 -3.625 5.8125 C-3.16351563 4.93207031 -2.70203125 4.05164063 -2.2265625 3.14453125 C-1 1 -1 1 0 0 Z " fill="#1A1A1A" transform="translate(362,934)"/>
<path d="M0 0 C3.3 1.65 6.6 3.3 10 5 C10 5.99 10 6.98 10 8 C8.32819726 7.05065487 6.66266064 6.09026687 5 5.125 C4.071875 4.59132813 3.14375 4.05765625 2.1875 3.5078125 C1.465625 3.01023437 0.74375 2.51265625 0 2 C0 1.34 0 0.68 0 0 Z " fill="#171717" transform="translate(1403,759)"/>
<path d="M0 0 C0 0.66 0 1.32 0 2 C-1.75 3.2890625 -1.75 3.2890625 -4 4.625 C-4.7425 5.07101562 -5.485 5.51703125 -6.25 5.9765625 C-6.8275 6.31429687 -7.405 6.65203125 -8 7 C-6.31771309 3.36505864 -4.4190252 0 0 0 Z " fill="#0B0B0B" transform="translate(477,834)"/>
</svg>
