<?xml version="1.0" encoding="UTF-8"?>
<svg version="1.1" xmlns="http://www.w3.org/2000/svg" width="2000" height="2000">
<path d="M0 0 C1.03371735 -0.00194681 1.03371735 -0.00194681 2.08831787 -0.00393295 C24.4098051 -0.03574923 46.23316604 0.84989969 68.3125 4.3125 C69.63697993 4.50853921 70.96169051 4.70302615 72.28662109 4.89599609 C108.29774895 10.16549334 143.5799396 19.61418346 177.3125 33.3125 C178.4562207 33.7760791 179.59994141 34.2396582 180.77832031 34.71728516 C234.88836736 56.88888783 283.65711598 89.02306339 326.50390625 128.73046875 C330.12878809 132.0629401 333.83122449 135.30440982 337.546875 138.53515625 C339.3125 140.3125 339.3125 140.3125 339.3125 142.3125 C339.9725 142.3125 340.6325 142.3125 341.3125 142.3125 C342.7578125 143.74609375 342.7578125 143.74609375 344.4375 145.75 C347.08338945 148.87746347 349.78859688 151.92305546 352.5625 154.9375 C359.28748207 162.50798272 360.64480273 169.34659697 360.5234375 179.25 C359.60145215 192.63586131 349.96009057 200.93750612 340.875 209.8125 C339.04053654 211.61210736 337.20845961 213.41415106 335.37890625 215.21875 C334.57396729 216.00572266 333.76902832 216.79269531 332.93969727 217.60351562 C330.91050968 219.69587372 329.00678035 221.80434684 327.1105957 224.01220703 C322.79949383 228.98112193 318.14819041 233.58339114 313.4765625 238.2109375 C312.07130581 239.61041004 310.66605181 241.00988529 309.26096153 242.40952492 C306.82195846 244.83768172 304.37961372 247.26247243 301.9375 249.6875 C298.99727374 252.60731636 296.05767185 255.52774317 293.12191772 258.45205688 C291.30020657 260.26622265 289.47623298 262.07811991 287.64981079 263.88754272 C286.83160858 264.70244171 286.01340637 265.5173407 285.17041016 266.35693359 C284.44761871 267.07448822 283.72482727 267.79204285 282.98013306 268.53134155 C281.23965505 270.22081885 281.23965505 270.22081885 280.3125 272.3125 C279.6525 272.3125 278.9925 272.3125 278.3125 272.3125 C277.93195213 273.18151443 277.93195213 273.18151443 277.54371643 274.06808472 C276.17175181 276.5690734 274.6400582 278.218766 272.61303711 280.22314453 C271.85562729 280.9771756 271.09821747 281.73120667 270.31785583 282.50808716 C269.50011185 283.31237152 268.68236786 284.11665588 267.83984375 284.9453125 C266.58247154 286.19488235 266.58247154 286.19488235 265.29969788 287.46969604 C262.62116155 290.13041527 259.93603825 292.78435594 257.25 295.4375 C254.56126976 298.09864491 251.87399421 300.76121799 249.18959045 303.42672729 C247.5185208 305.0855062 245.84478601 306.74160518 244.16819763 308.39480591 C243.03681114 309.51639603 243.03681114 309.51639603 241.88256836 310.66064453 C241.21575546 311.31920441 240.54894257 311.97776428 239.86192322 312.65628052 C238.22694335 314.24655957 238.22694335 314.24655957 237.3125 316.3125 C236.6525 316.3125 235.9925 316.3125 235.3125 316.3125 C235.0546875 316.89257812 234.796875 317.47265625 234.53125 318.0703125 C229.87307621 326.64015787 220.63707121 332.22070417 211.8125 335.6875 C202.9698436 337.26654579 195.33711226 336.6052669 187.3125 332.3125 C183.70219354 329.56699999 180.5052202 326.52750795 177.3125 323.3125 C176.66667969 322.70277344 176.02085937 322.09304688 175.35546875 321.46484375 C173.95710576 320.13197785 172.62568685 318.7293595 171.3125 317.3125 C171.3125 316.6525 171.3125 315.9925 171.3125 315.3125 C170.6525 315.3125 169.9925 315.3125 169.3125 315.3125 C168.078125 313.984375 168.078125 313.984375 166.5625 312.0625 C134.97259256 274.95585197 82.35124875 252.68101361 35.3125 245.3125 C34.57338379 245.19390625 33.83426758 245.0753125 33.07275391 244.953125 C-27.51418819 235.69353321 -89.66531023 252.97721261 -138.953125 288.48828125 C-142.21021282 290.88534198 -145.2408502 293.48161877 -148.23339844 296.19995117 C-149.6875 297.3125 -149.6875 297.3125 -151.6875 297.3125 C-151.6875 297.9725 -151.6875 298.6325 -151.6875 299.3125 C-153.234375 300.6171875 -153.234375 300.6171875 -155.4375 302.1875 C-163.2370001 308.08018225 -170.10498653 315.19369424 -176.4375 322.625 C-183.43801345 330.72197941 -189.55185327 335.49663712 -200.453125 336.58984375 C-211.52432331 336.97640794 -219.19968673 333.3489451 -227.20303345 325.90240479 C-230.81462502 322.43658336 -234.34784434 318.89341641 -237.86938477 315.33642578 C-239.74379852 313.44376186 -241.62608424 311.5592172 -243.50976562 309.67578125 C-244.72703451 308.45359493 -245.94384665 307.2309535 -247.16015625 306.0078125 C-247.71139664 305.45545929 -248.26263702 304.90310608 -248.83058167 304.33401489 C-251.65488771 301.47598062 -254.36176924 298.56144351 -256.98022461 295.51318359 C-261.26126263 290.57363505 -265.88949642 286.00435538 -270.53125 281.40625 C-271.9494165 279.99387068 -273.36758007 278.58148839 -274.78557587 277.16893768 C-277.25073132 274.71462499 -279.71920509 272.26365467 -282.1875 269.8125 C-285.13735631 266.88312797 -288.08657839 263.95313715 -291.03186035 261.01916504 C-292.85818429 259.20029387 -294.68675361 257.38367348 -296.51794434 255.56970215 C-300.19302098 251.90911587 -303.8049818 248.24835356 -307.18310547 244.31030273 C-311.38732801 239.41698989 -315.9968316 234.95438273 -320.6015625 230.44140625 C-322.02691386 229.03271536 -323.45225296 227.62401184 -324.87688255 226.21459103 C-328.35207571 222.77718138 -331.83172032 219.34441121 -335.32324219 215.92358398 C-337.29399307 213.99218453 -339.25916271 212.05541254 -341.21859741 210.11253357 C-343.0524757 208.2944798 -344.89407461 206.48416958 -346.74453735 204.68299866 C-354.84371559 196.61793893 -360.48983879 188.2928184 -361.0625 176.5625 C-360.61409519 160.12099022 -348.04210074 149.32830829 -337.15258789 138.5168457 C-335.38127891 136.75624096 -333.62090286 134.98521412 -331.86132812 133.21289062 C-325.10749292 126.45119408 -318.17380784 120.26153072 -310.6875 114.3125 C-309.53512433 113.32943432 -308.38937753 112.33848066 -307.25390625 111.3359375 C-293.92597024 99.5711276 -279.63614705 88.92790578 -264.6875 79.3125 C-263.4780971 78.5042022 -262.26983918 77.69418961 -261.0625 76.8828125 C-249.58760038 69.23287942 -237.64287341 62.50093272 -225.54931641 55.8828125 C-223.12196395 54.55089551 -220.70566478 53.20192411 -218.29296875 51.84375 C-166.18602079 22.90186427 -103.96782879 6.34776865 -44.6875 1.3125 C-43.77766357 1.22782471 -42.86782715 1.14314941 -41.93041992 1.0559082 C-27.98417162 -0.06916559 -13.98271901 0.02165251 0 0 Z " fill="#FDFDFD" transform="translate(999.6875,1067.6875)"/>
<path d="M0 0 C3.24468403 -0.00217197 6.48901899 -0.02034663 9.73364258 -0.03930664 C30.10816546 -0.09639575 50.07205506 1.54907855 70.1574707 4.93530273 C70.94612518 5.0666864 71.73477966 5.19807007 72.54733276 5.33343506 C106.85457364 11.07499911 140.28111734 20.36619917 171.8449707 35.18530273 C172.82433594 35.63873047 173.80370117 36.0921582 174.81274414 36.55932617 C203.20732626 49.73969499 230.14223699 64.86539467 254.8449707 84.18530273 C256.05682903 85.12069272 257.26906549 86.05559302 258.48168945 86.98999023 C270.0123322 95.91820911 281.08270178 105.34620812 291.8449707 115.18530273 C290.26611595 119.07962079 287.60395335 121.66729061 284.64575195 124.54467773 C283.87584175 125.30678558 283.87584175 125.30678558 283.09037781 126.08428955 C281.45077371 127.70613923 279.80465918 129.32115934 278.1574707 130.93530273 C276.52895032 132.53594994 274.90201034 134.13812248 273.27812195 135.74346924 C272.27026379 136.7393467 271.25975191 137.73254968 270.2459259 138.72235107 C267.55440082 141.37675345 265.01822219 144.10899382 262.55273438 146.9753418 C258.47272082 151.68560305 254.08449408 156.05325258 249.6574707 160.43530273 C248.79613525 161.29285156 247.9347998 162.15040039 247.04736328 163.03393555 C243.39483088 166.67025213 239.73633435 170.30054644 236.07836914 173.93139648 C233.39431914 176.5972787 230.71333829 179.26622083 228.0324707 181.93530273 C227.21560791 182.74386719 226.39874512 183.55243164 225.55712891 184.38549805 C221.3015925 188.62295956 217.21838972 192.92949712 213.34008789 197.51635742 C211.38595078 199.69769009 209.20922022 201.46584854 206.8449707 203.18530273 C205.7331543 202.1121582 205.7331543 202.1121582 204.59887695 201.01733398 C159.26778846 157.88322878 100.19121943 133.03813583 38.8449707 124.18530273 C37.64396729 124.00306152 37.64396729 124.00306152 36.41870117 123.81713867 C-17.98645922 115.7365673 -77.32182041 127.70000843 -126.1550293 152.18530273 C-126.94474121 152.57540527 -127.73445312 152.96550781 -128.5480957 153.36743164 C-140.27687895 159.19777574 -151.34143108 165.80276186 -162.1550293 173.18530273 C-162.77748535 173.60811523 -163.39994141 174.03092773 -164.04125977 174.46655273 C-173.79020717 181.13071972 -182.84608712 188.48008708 -191.60424805 196.40014648 C-192.30163086 197.03049805 -192.99901367 197.66084961 -193.7175293 198.31030273 C-194.29631836 198.84913086 -194.87510742 199.38795898 -195.47143555 199.94311523 C-197.47770095 201.42337602 -198.66406203 201.9536309 -201.1550293 202.18530273 C-203.15039062 200.7734375 -203.15039062 200.7734375 -205.23706055 198.62670898 C-206.38851562 197.45785156 -206.38851562 197.45785156 -207.56323242 196.26538086 C-208.35665039 195.43458008 -209.15006836 194.6037793 -209.9675293 193.74780273 C-211.14025391 192.55380859 -211.14025391 192.55380859 -212.33666992 191.33569336 C-215.78756368 187.79831104 -219.13842538 184.2126787 -222.36083984 180.46630859 C-226.47828793 175.7411859 -230.88998072 171.34261879 -235.3425293 166.93530273 C-236.63453247 165.64897949 -236.63453247 165.64897949 -237.95263672 164.33666992 C-240.6843405 161.61709385 -243.41926205 158.90079073 -246.1550293 156.18530273 C-249.76214781 152.60492248 -253.36584731 149.02115093 -256.9675293 145.43530273 C-257.78439209 144.62673828 -258.60125488 143.81817383 -259.44287109 142.98510742 C-263.68214388 138.76384046 -267.76054712 134.47250126 -271.64503479 129.92138672 C-273.99999718 127.21381893 -276.53348612 124.69833269 -279.0925293 122.18530273 C-279.83212891 121.4524707 -279.83212891 121.4524707 -280.58666992 120.70483398 C-281.77376158 119.52926749 -282.96403428 118.35691447 -284.1550293 117.18530273 C-282.55592597 113.00379652 -279.46666031 110.41735235 -276.2175293 107.49780273 C-275.63487305 106.96815918 -275.0522168 106.43851563 -274.4519043 105.89282227 C-249.9587247 83.79426453 -222.3049634 64.86406015 -193.24926758 49.31469727 C-191.23537686 48.22863309 -189.2391593 47.11546256 -187.24487305 45.99389648 C-156.13717818 28.7049585 -120.90447918 16.61195071 -86.1550293 9.18530273 C-85.12297363 8.96293945 -84.09091797 8.74057617 -83.02758789 8.51147461 C-67.18291659 5.15461351 -51.28010954 2.71141462 -35.1550293 1.18530273 C-34.16946045 1.08886475 -33.1838916 0.99242676 -32.16845703 0.89306641 C-21.45826251 -0.01873319 -10.74221149 -0.000801 0 0 Z " fill="#010101" transform="translate(996.155029296875,1127.814697265625)"/>
<path d="M0 0 C1.03371735 -0.00194681 1.03371735 -0.00194681 2.08831787 -0.00393295 C24.4098051 -0.03574923 46.23316604 0.84989969 68.3125 4.3125 C69.63697993 4.50853921 70.96169051 4.70302615 72.28662109 4.89599609 C108.29774895 10.16549334 143.5799396 19.61418346 177.3125 33.3125 C178.4562207 33.7760791 179.59994141 34.2396582 180.77832031 34.71728516 C234.88836736 56.88888783 283.65711598 89.02306339 326.50390625 128.73046875 C330.12878809 132.0629401 333.83122449 135.30440982 337.546875 138.53515625 C339.3125 140.3125 339.3125 140.3125 339.3125 142.3125 C339.9725 142.3125 340.6325 142.3125 341.3125 142.3125 C342.7578125 143.74609375 342.7578125 143.74609375 344.4375 145.75 C347.08338945 148.87746347 349.78859688 151.92305546 352.5625 154.9375 C359.28748207 162.50798272 360.64480273 169.34659697 360.5234375 179.25 C359.60145215 192.63586131 349.96009057 200.93750612 340.875 209.8125 C339.04053654 211.61210736 337.20845961 213.41415106 335.37890625 215.21875 C334.57396729 216.00572266 333.76902832 216.79269531 332.93969727 217.60351562 C330.91050968 219.69587372 329.00678035 221.80434684 327.1105957 224.01220703 C322.79949383 228.98112193 318.14819041 233.58339114 313.4765625 238.2109375 C312.07130581 239.61041004 310.66605181 241.00988529 309.26096153 242.40952492 C306.82195846 244.83768172 304.37961372 247.26247243 301.9375 249.6875 C298.99727374 252.60731636 296.05767185 255.52774317 293.12191772 258.45205688 C291.30020657 260.26622265 289.47623298 262.07811991 287.64981079 263.88754272 C286.83160858 264.70244171 286.01340637 265.5173407 285.17041016 266.35693359 C284.44761871 267.07448822 283.72482727 267.79204285 282.98013306 268.53134155 C281.23965505 270.22081885 281.23965505 270.22081885 280.3125 272.3125 C279.6525 272.3125 278.9925 272.3125 278.3125 272.3125 C277.93195213 273.18151443 277.93195213 273.18151443 277.54371643 274.06808472 C276.17175181 276.5690734 274.6400582 278.218766 272.61303711 280.22314453 C271.85562729 280.9771756 271.09821747 281.73120667 270.31785583 282.50808716 C269.50011185 283.31237152 268.68236786 284.11665588 267.83984375 284.9453125 C266.58247154 286.19488235 266.58247154 286.19488235 265.29969788 287.46969604 C262.62116155 290.13041527 259.93603825 292.78435594 257.25 295.4375 C254.56126976 298.09864491 251.87399421 300.76121799 249.18959045 303.42672729 C247.5185208 305.0855062 245.84478601 306.74160518 244.16819763 308.39480591 C243.03681114 309.51639603 243.03681114 309.51639603 241.88256836 310.66064453 C241.21575546 311.31920441 240.54894257 311.97776428 239.86192322 312.65628052 C238.22694335 314.24655957 238.22694335 314.24655957 237.3125 316.3125 C236.6525 316.3125 235.9925 316.3125 235.3125 316.3125 C235.0546875 316.89257812 234.796875 317.47265625 234.53125 318.0703125 C229.87307621 326.64015787 220.63707121 332.22070417 211.8125 335.6875 C202.9698436 337.26654579 195.33711226 336.6052669 187.3125 332.3125 C183.70219354 329.56699999 180.5052202 326.52750795 177.3125 323.3125 C176.66667969 322.70277344 176.02085937 322.09304688 175.35546875 321.46484375 C173.95710576 320.13197785 172.62568685 318.7293595 171.3125 317.3125 C171.3125 316.6525 171.3125 315.9925 171.3125 315.3125 C170.6525 315.3125 169.9925 315.3125 169.3125 315.3125 C168.078125 313.984375 168.078125 313.984375 166.5625 312.0625 C134.97259256 274.95585197 82.35124875 252.68101361 35.3125 245.3125 C34.57338379 245.19390625 33.83426758 245.0753125 33.07275391 244.953125 C-27.51418819 235.69353321 -89.66531023 252.97721261 -138.953125 288.48828125 C-142.21021282 290.88534198 -145.2408502 293.48161877 -148.23339844 296.19995117 C-149.6875 297.3125 -149.6875 297.3125 -151.6875 297.3125 C-151.6875 297.9725 -151.6875 298.6325 -151.6875 299.3125 C-153.234375 300.6171875 -153.234375 300.6171875 -155.4375 302.1875 C-163.2370001 308.08018225 -170.10498653 315.19369424 -176.4375 322.625 C-183.43801345 330.72197941 -189.55185327 335.49663712 -200.453125 336.58984375 C-211.52432331 336.97640794 -219.19968673 333.3489451 -227.20303345 325.90240479 C-230.81462502 322.43658336 -234.34784434 318.89341641 -237.86938477 315.33642578 C-239.74379852 313.44376186 -241.62608424 311.5592172 -243.50976562 309.67578125 C-244.72703451 308.45359493 -245.94384665 307.2309535 -247.16015625 306.0078125 C-247.71139664 305.45545929 -248.26263702 304.90310608 -248.83058167 304.33401489 C-251.65488771 301.47598062 -254.36176924 298.56144351 -256.98022461 295.51318359 C-261.26126263 290.57363505 -265.88949642 286.00435538 -270.53125 281.40625 C-271.9494165 279.99387068 -273.36758007 278.58148839 -274.78557587 277.16893768 C-277.25073132 274.71462499 -279.71920509 272.26365467 -282.1875 269.8125 C-285.13735631 266.88312797 -288.08657839 263.95313715 -291.03186035 261.01916504 C-292.85818429 259.20029387 -294.68675361 257.38367348 -296.51794434 255.56970215 C-300.19302098 251.90911587 -303.8049818 248.24835356 -307.18310547 244.31030273 C-311.38732801 239.41698989 -315.9968316 234.95438273 -320.6015625 230.44140625 C-322.02691386 229.03271536 -323.45225296 227.62401184 -324.87688255 226.21459103 C-328.35207571 222.77718138 -331.83172032 219.34441121 -335.32324219 215.92358398 C-337.29399307 213.99218453 -339.25916271 212.05541254 -341.21859741 210.11253357 C-343.0524757 208.2944798 -344.89407461 206.48416958 -346.74453735 204.68299866 C-354.84371559 196.61793893 -360.48983879 188.2928184 -361.0625 176.5625 C-360.61409519 160.12099022 -348.04210074 149.32830829 -337.15258789 138.5168457 C-335.38127891 136.75624096 -333.62090286 134.98521412 -331.86132812 133.21289062 C-325.10749292 126.45119408 -318.17380784 120.26153072 -310.6875 114.3125 C-309.53512433 113.32943432 -308.38937753 112.33848066 -307.25390625 111.3359375 C-293.92597024 99.5711276 -279.63614705 88.92790578 -264.6875 79.3125 C-263.4780971 78.5042022 -262.26983918 77.69418961 -261.0625 76.8828125 C-249.58760038 69.23287942 -237.64287341 62.50093272 -225.54931641 55.8828125 C-223.12196395 54.55089551 -220.70566478 53.20192411 -218.29296875 51.84375 C-166.18602079 22.90186427 -103.96782879 6.34776865 -44.6875 1.3125 C-43.77766357 1.22782471 -42.86782715 1.14314941 -41.93041992 1.0559082 C-27.98417162 -0.06916559 -13.98271901 0.02165251 0 0 Z M-67 5.3125 C-67.70443237 5.41143555 -68.40886475 5.51037109 -69.13464355 5.61230469 C-82.38434204 7.51001945 -95.40535162 10.2804647 -108.4375 13.3125 C-109.3420694 13.52165039 -110.24663879 13.73080078 -111.17861938 13.94628906 C-121.02486466 16.24058595 -130.62867523 18.80478496 -140.18164062 22.12890625 C-143.69467319 23.3149217 -147.22193329 24.33052484 -150.796875 25.3125 C-157.68349852 27.24585865 -164.2953143 29.66759794 -170.9375 32.3125 C-172.74323486 33.02925903 -172.74323486 33.02925903 -174.58544922 33.76049805 C-222.95252945 53.12230889 -266.71266241 80.07372546 -306.6875 113.3125 C-307.27740723 113.80186035 -307.86731445 114.2912207 -308.47509766 114.79541016 C-339.61462337 138.34536371 -339.61462337 138.34536371 -358.6875 170.3125 C-359.48790255 179.39135174 -359.38041636 186.93200243 -353.6875 194.3125 C-350.11356883 198.24284034 -346.32241671 201.93975812 -342.4765625 205.6015625 C-340.03113922 207.94550777 -337.75508989 210.34159496 -335.56591797 212.92529297 C-331.22330014 217.92462282 -326.54633514 222.56038508 -321.84375 227.21875 C-320.4255835 228.63112932 -319.00741993 230.04351161 -317.58942413 231.45606232 C-315.12426868 233.91037501 -312.65579491 236.36134533 -310.1875 238.8125 C-307.23764369 241.74187203 -304.28842161 244.67186285 -301.34313965 247.60583496 C-299.51681571 249.42470613 -297.68824639 251.24132652 -295.85705566 253.05529785 C-292.19111616 256.70678301 -288.58578942 260.35793915 -285.21484375 264.28515625 C-280.87521406 269.33560095 -276.13336755 273.97148388 -271.40625 278.65625 C-270.42381622 279.63426419 -269.44168512 280.61258251 -268.45983887 281.59118652 C-265.37189429 284.66781395 -262.28001186 287.74046436 -259.1875 290.8125 C-255.59819537 294.37803903 -252.01061492 297.94527928 -248.42726135 301.51679993 C-247.00758843 302.93008629 -245.58483001 304.34027111 -244.1619873 305.75036621 C-239.67011853 310.22533199 -235.3049392 314.74311933 -231.18688965 319.56604004 C-224.40260256 327.46824596 -217.09449752 333.70251197 -206.3671875 334.5859375 C-204.48386719 334.63621094 -204.48386719 334.63621094 -202.5625 334.6875 C-201.32242188 334.73648437 -200.08234375 334.78546875 -198.8046875 334.8359375 C-190.50816025 334.30730741 -184.13317874 329.37083032 -178.72998047 323.43798828 C-178.09721191 322.71595215 -177.46444336 321.99391602 -176.8125 321.25 C-175.42311746 319.72412817 -174.03248389 318.19939456 -172.640625 316.67578125 C-171.96837891 315.93150879 -171.29613281 315.18723633 -170.60351562 314.42041016 C-162.04627402 305.00613594 -152.86821312 296.9268754 -142.6875 289.3125 C-141.73875 288.59191406 -140.79 287.87132812 -139.8125 287.12890625 C-113.00583783 267.14079914 -81.80401143 253.23840324 -49.1875 246.1875 C-48.45241211 246.02854248 -47.71732422 245.86958496 -46.95996094 245.70581055 C-44.5413202 245.20548389 -42.11791008 244.75214827 -39.6875 244.3125 C-38.73407715 244.13227295 -37.7806543 243.9520459 -36.79833984 243.76635742 C-25.35336605 241.84795033 -13.88947792 241.87455869 -2.3125 241.875 C-1.23422943 241.87326782 -0.15595886 241.87153564 0.95498657 241.86975098 C47.87704156 241.90276684 93.29138638 254.6757852 132.3125 281.3125 C132.89999023 281.70614746 133.48748047 282.09979492 134.09277344 282.50537109 C151.59977998 294.28430092 168.90360827 309.06199936 182 325.63671875 C186.74488281 331.126997 192.9601377 333.82216485 200.078125 334.86328125 C209.63035079 335.20166982 216.55274371 333.28075971 223.96777344 327.09877014 C226.81708946 324.40018646 229.58352786 321.63188055 232.32421875 318.82421875 C233.34587571 317.79575131 234.36858714 316.76833041 235.39228821 315.74189758 C238.06579882 313.05507753 240.72356806 310.35319385 243.37854004 307.64807129 C245.5352518 305.45596367 247.70308214 303.27504243 249.87158489 301.09460735 C252.48466043 298.46663487 255.09260884 295.83360275 257.69921875 293.19921875 C258.18584173 292.70768499 258.67246471 292.21615124 259.17383385 291.70972252 C264.13607023 286.68871543 268.96942112 281.62121687 273.57258606 276.26985168 C276.97352224 272.44389914 280.64396345 268.88056943 284.28125 265.28125 C285.1203894 264.44589722 285.95952881 263.61054443 286.82409668 262.74987793 C290.3810452 259.20913871 293.9439612 255.67442676 297.50634766 252.13916016 C300.12090164 249.5427794 302.73238184 246.94333434 305.34375 244.34375 C306.13873901 243.55705933 306.93372803 242.77036865 307.75280762 241.95983887 C311.88943548 237.84124511 315.82617774 233.63338298 319.63339233 229.20977783 C322.39001116 226.09498543 325.36428755 223.2158094 328.34765625 220.3203125 C329.66515809 219.02519166 330.98220155 217.72960438 332.29882812 216.43359375 C334.33694384 214.43249902 336.37790618 212.43467784 338.42700195 210.44482422 C353.5216852 196.24113933 353.5216852 196.24113933 359.625 177.0625 C359.0880121 161.0065619 347.56198814 151.22573523 336.75 140.5625 C335.85603516 139.66917969 334.96207031 138.77585937 334.04101562 137.85546875 C328.95663835 132.8045658 323.76022346 127.96679596 318.3125 123.3125 C317.13276618 122.27888074 315.95435669 121.24374779 314.77734375 120.20703125 C286.98615923 95.87168462 257.02401122 75.22729056 224.60546875 57.56542969 C223.11547393 56.75126301 221.62831228 55.93188205 220.14453125 55.10644531 C188.67671957 37.60999811 154.82239571 26.15822169 120.3125 16.3125 C119.29639648 16.02101074 118.28029297 15.72952148 117.23339844 15.42919922 C78.69578288 4.56382379 38.57132395 1.07615152 -1.3125 1 C-2.39685333 0.99623352 -3.48120667 0.99246704 -4.59841919 0.98858643 C-25.52823881 0.95167071 -46.27315671 2.39481797 -67 5.3125 Z " fill="#121212" transform="translate(999.6875,1067.6875)"/>
<path d="M0 0 C4.17889341 2.90838735 7.04880553 5.91447736 8.5703125 10.859375 C9.46503572 17.68871809 8.69941073 22.31458595 4.5703125 27.859375 C3.5803125 28.189375 2.5903125 28.519375 1.5703125 28.859375 C1.5703125 29.519375 1.5703125 30.179375 1.5703125 30.859375 C2.8696875 30.9521875 2.8696875 30.9521875 4.1953125 31.046875 C11.12820425 32.71590449 15.15043283 38.5270174 19.2578125 43.984375 C20.19741458 45.21752262 21.13876511 46.44934036 22.08203125 47.6796875 C22.48897217 48.21867676 22.89591309 48.75766602 23.31518555 49.31298828 C24.56963798 50.9262588 24.56963798 50.9262588 26.22583008 52.43310547 C27.5703125 53.859375 27.5703125 53.859375 27.5703125 55.859375 C25.82797425 56.58635061 24.07603905 57.29035744 22.3203125 57.984375 C20.85851562 58.57605469 20.85851562 58.57605469 19.3671875 59.1796875 C16.5703125 59.859375 16.5703125 59.859375 14.59106445 59.12841797 C12.34972633 57.72084571 11.0657098 56.31746715 9.44140625 54.234375 C8.88130859 53.52796875 8.32121094 52.8215625 7.74414062 52.09375 C7.17115234 51.35640625 6.59816406 50.6190625 6.0078125 49.859375 C4.86453092 48.39801844 3.71753881 46.93955526 2.56640625 45.484375 C2.06294678 44.83726563 1.5594873 44.19015625 1.04077148 43.5234375 C-0.51965161 41.61437034 -0.51965161 41.61437034 -3.4296875 39.859375 C-5.55671109 39.79673601 -5.55671109 39.79673601 -7.8046875 40.171875 C-8.55492187 40.27113281 -9.30515625 40.37039063 -10.078125 40.47265625 C-12.54205084 40.87785336 -14.9845055 41.35392218 -17.4296875 41.859375 C-16.30509205 44.7553656 -15.17993875 47.65113916 -14.0546875 50.546875 C-13.73757813 51.36349609 -13.42046875 52.18011719 -13.09375 53.02148438 C-12.6296875 54.21547852 -12.6296875 54.21547852 -12.15625 55.43359375 C-11.85750977 56.20622559 -11.55876953 56.97885742 -11.25097656 57.77490234 C-10.60018855 59.42663481 -9.90868834 61.06231891 -9.203125 62.69140625 C-8.4296875 64.859375 -8.4296875 64.859375 -8.4296875 68.859375 C-10.0529562 69.5302462 -11.67836328 70.19594529 -13.3046875 70.859375 C-14.20960938 71.230625 -15.11453125 71.601875 -16.046875 71.984375 C-18.4296875 72.859375 -18.4296875 72.859375 -20.4296875 72.859375 C-23.82710287 63.9264807 -27.216112 54.9904281 -30.59942627 46.05218506 C-31.4419161 43.82707795 -32.28514457 41.60225166 -33.12841797 39.37744141 C-34.52561756 35.68990292 -35.919029 32.00095131 -37.30993652 28.31103516 C-37.84808475 26.88497898 -38.38739166 25.45935952 -38.92785645 24.03417969 C-39.68547663 22.03566009 -40.43894532 20.03562301 -41.19140625 18.03515625 C-41.62412842 16.88958252 -42.05685059 15.74400879 -42.50268555 14.5637207 C-43.4296875 11.859375 -43.4296875 11.859375 -43.4296875 9.859375 C-38.99746078 8.12354143 -34.56288114 6.39481691 -30.12109375 4.68359375 C-27.46425894 3.65856565 -24.83256926 2.60822345 -22.20703125 1.50390625 C-15.13174239 -1.38247816 -7.24755221 -3.40238785 0 0 Z " fill="#F9F9F9" transform="translate(863.4296875,1183.140625)"/>
<path d="M0 0 C1.43791516 0.14168137 2.8753237 0.28851043 4.3125 0.4375 C5.11300781 0.51871094 5.91351562 0.59992188 6.73828125 0.68359375 C9 1 9 1 12 2 C12 3.98 12 5.96 12 8 C12.763125 7.34 13.52625 6.68 14.3125 6 C18.86572067 2.9968119 23.75405091 3.12443848 29 4 C33.44389683 5.88093856 36.32070244 7.98105366 39 12 C39 13.32 39 14.64 39 16 C39.44988281 15.566875 39.89976563 15.13375 40.36328125 14.6875 C45.29638016 10.41676106 48.86446436 9.21213495 55.3828125 9.609375 C60.47035036 10.36870901 63.7830878 11.68701578 67.375 15.5625 C71.52254311 21.78381467 70.28948609 28.00978505 68.92285156 35.07949829 C68.1445105 38.91361263 67.32619875 42.73845929 66.5 46.5625 C66.16193166 48.15932998 65.82468485 49.75633411 65.48828125 51.35351562 C64.66832076 55.23775161 63.83724842 59.11945536 63 63 C58.71 62.67 54.42 62.34 50 62 C50.92299707 56.23126831 51.88619656 50.49622062 53.05859375 44.7734375 C53.24389648 43.85393311 53.42919922 42.93442871 53.62011719 41.98706055 C53.99282815 40.1480431 54.37471503 38.31085694 54.76660156 36.47583008 C55.80407179 31.31109542 56.29851567 27.14596952 55 22 C52.71273777 20.85636888 51.17147573 20.73498068 48.625 20.625 C47.85414062 20.57601563 47.08328125 20.52703125 46.2890625 20.4765625 C43.79780327 20.84070262 43.79780327 20.84070262 41.83984375 23.0625 C39.74869087 26.4012409 38.77174589 29.57557417 37.9375 33.375 C37.77540039 34.06529297 37.61330078 34.75558594 37.44628906 35.46679688 C35.7954817 42.60840357 34.36568249 49.79912869 33 57 C28.71 56.67 24.42 56.34 20 56 C22.7077514 37.64106145 22.7077514 37.64106145 24.6875 30.25 C25.82085948 25.96242313 26.56439798 22.42111754 26 18 C24.40921001 15.89058255 23.47756288 15.10553876 20.87890625 14.53125 C15.89040364 14.44868718 15.89040364 14.44868718 11.625 16.8125 C6.20325319 27.44746489 5.12221716 40.35779874 3 52 C-1.3437906 51.38536138 -5.67539184 50.73834773 -10 50 C-9.27194404 44.50832539 -8.27884972 39.10211791 -7.1875 33.671875 C-7.01371826 32.80105286 -6.83993652 31.93023071 -6.66088867 31.03302002 C-6.29537865 29.20411589 -5.92890788 27.37540353 -5.56152344 25.546875 C-4.99906848 22.74536022 -4.4407467 19.94304319 -3.8828125 17.140625 C-3.52628847 15.35932559 -3.16952599 13.57807387 -2.8125 11.796875 C-2.64580811 10.95936707 -2.47911621 10.12185913 -2.30737305 9.25897217 C-1.67147492 6.10503831 -1.01853391 3.05560174 0 0 Z " fill="#F9F9F9" transform="translate(1051,1175)"/>
<path d="M0 0 C5.18843246 2.92785559 9.37477024 5.83169972 11.625 11.5 C12.81435113 18.95123399 11.544831 25.6175412 8.625 32.5 C4.22931014 33.80396516 1.73276149 33.12129716 -2.48046875 31.4453125 C-3.62837891 30.99542969 -4.77628906 30.54554687 -5.95898438 30.08203125 C-7.14814453 29.60121094 -8.33730469 29.12039063 -9.5625 28.625 C-10.76326172 28.15191406 -11.96402344 27.67882813 -13.20117188 27.19140625 C-21.77004717 23.80247642 -21.77004717 23.80247642 -24.375 22.5 C-24.26584088 29.5475857 -24.26584088 29.5475857 -20.9375 35.5625 C-16.42024273 38.9779872 -12.90685861 38.91012055 -7.375 38.5 C-4.44419326 37.63346586 -4.44419326 37.63346586 -2.375 36.5 C-0.725 38.81 0.925 41.12 2.625 43.5 C1.15489109 47.37574167 -0.70950319 48.66725159 -4.375 50.5 C-13.81944555 52.13534695 -21.55985938 49.84288474 -29.375 44.5 C-34.00288578 40.40229919 -36.95158691 35.98084945 -37.7109375 29.73828125 C-37.842652 19.8728652 -35.39603486 11.97629722 -29.12109375 4.26171875 C-20.80644933 -4.12732965 -10.50326032 -4.75054525 0 0 Z " fill="#F8F8F8" transform="translate(1162.375,1202.5)"/>
<path d="M0 0 C5.38631549 4.44902161 7.58487978 10.6884698 8.68359375 17.390625 C8.40145546 19.06671774 8.07765899 20.73726434 7.68359375 22.390625 C3.26847639 23.39755027 -1.1487355 24.39496723 -5.56640625 25.390625 C-6.82066406 25.67679688 -8.07492187 25.96296875 -9.3671875 26.2578125 C-10.57246094 26.52851562 -11.77773438 26.79921875 -13.01953125 27.078125 C-14.12973633 27.32949219 -15.23994141 27.58085938 -16.38378906 27.83984375 C-19.31640625 28.390625 -19.31640625 28.390625 -23.31640625 28.390625 C-22.82140625 29.339375 -22.32640625 30.288125 -21.81640625 31.265625 C-20.31640625 34.390625 -20.31640625 34.390625 -20.31640625 36.390625 C-15.69579669 37.93082819 -11.14177249 37.90636693 -6.31640625 37.390625 C-2.68689164 35.31661665 -0.84227368 33.27465119 0.68359375 29.390625 C4.24139571 30.00053391 7.36645265 30.9689931 10.68359375 32.390625 C10.44124588 37.3587563 8.9100388 40.23733302 5.59765625 43.77734375 C-0.81257604 49.18025383 -8.19007192 49.99762621 -16.33203125 49.7109375 C-22.62904775 49.03507971 -28.2197011 46.35632821 -32.31640625 41.390625 C-37.01407885 32.98293063 -40.13187641 23.85274134 -37.78515625 14.20703125 C-35.13045125 6.57475439 -30.56087178 1.89818745 -23.31640625 -1.609375 C-15.75094307 -3.574912 -6.90396049 -4.07635089 0 0 Z " fill="#F8F8F8" transform="translate(925.31640625,1184.609375)"/>
<path d="M0 0 C3.96 0 7.92 0 12 0 C12.01458252 1.10512939 12.02916504 2.21025879 12.04418945 3.34887695 C12.10214266 7.44735139 12.17937519 11.54527467 12.26245117 15.64331055 C12.29571464 17.41730812 12.32374218 19.1914119 12.34643555 20.96557617 C12.37995602 23.51527176 12.43226865 26.06399292 12.48828125 28.61328125 C12.49467117 29.40712723 12.5010611 30.20097321 12.50764465 31.01887512 C12.59656567 35.24016608 12.59656567 35.24016608 14.32104492 39.00073242 C17.22198592 40.72729219 19.72063996 40.33924414 23 40 C25.74523233 38.77989674 27.42597017 37.86193888 29.09716797 35.35253906 C30.32742891 32.14680774 30.46588166 29.00200926 30.6328125 25.609375 C30.67437469 24.90476135 30.71593689 24.20014771 30.75875854 23.47418213 C30.8890602 21.23316773 31.00719281 18.99170249 31.125 16.75 C31.21143647 15.22651672 31.29866716 13.70307828 31.38671875 12.1796875 C31.60034941 8.45360031 31.80307499 4.72701168 32 1 C35.96 1 39.92 1 44 1 C44 17.5 44 34 44 51 C39.71 51 35.42 51 31 51 C30.67 49.02 30.34 47.04 30 45 C29.27683594 45.63228516 29.27683594 45.63228516 28.5390625 46.27734375 C27.90742187 46.82519531 27.27578125 47.37304688 26.625 47.9375 C25.99851562 48.48277344 25.37203125 49.02804687 24.7265625 49.58984375 C21.01648714 52.62001842 17.54761192 52.39475526 12.8984375 52.33984375 C8.47844102 51.82159618 5.04689022 50.26965814 2 47 C-1.48094011 40.93230623 -1.39313782 35.44179014 -1.25 28.5625 C-1.23904297 27.50804687 -1.22808594 26.45359375 -1.21679688 25.3671875 C-1.09805769 16.89024217 -0.69579622 8.44895405 0 0 Z " fill="#F9F9F9" transform="translate(989,1173)"/>
<path d="M0 0 C3.25 2.1875 3.25 2.1875 4.25 5.1875 C3.25390625 7.01171875 3.25390625 7.01171875 1.8125 8.875 C1.33941406 9.49761719 0.86632812 10.12023438 0.37890625 10.76171875 C0.00636719 11.23222656 -0.36617187 11.70273438 -0.75 12.1875 C-1.513125 11.878125 -2.27625 11.56875 -3.0625 11.25 C-7.55366497 9.47442315 -10.900341 8.92769684 -15.75 9.1875 C-16.74 9.8475 -17.73 10.5075 -18.75 11.1875 C-19.08343551 13.72957971 -19.08343551 13.72957971 -18.75 16.1875 C-16.82531188 18.11218812 -13.26091699 17.72871368 -10.6875 18 C-3.0753125 18.93118742 2.44116041 20.16799744 7.75 25.875 C10.21770472 31.3245146 10.06829724 35.90488139 8.0625 41.5 C4.42255565 46.89715887 -0.43277902 49.76561746 -6.75 51.1875 C-14.69295994 52.12196588 -20.8220479 51.38210723 -27.921875 47.671875 C-29.75 46.1875 -29.75 46.1875 -30.66796875 44.25 C-30.77606328 41.53219475 -29.97861687 40.55062384 -28.3125 38.4375 C-27.83941406 37.82390625 -27.36632812 37.2103125 -26.87890625 36.578125 C-26.32009766 35.88976563 -26.32009766 35.88976563 -25.75 35.1875 C-22.7780615 36.31201727 -20.41559313 37.41043791 -17.75 39.1875 C-15.10893458 39.50480856 -15.10893458 39.50480856 -12.25 39.4375 C-11.2909375 39.44265625 -10.331875 39.4478125 -9.34375 39.453125 C-6.51377103 39.36732609 -6.51377103 39.36732609 -3.75 37.1875 C-4.245 34.7125 -4.245 34.7125 -4.75 32.1875 C-9.96990271 30.81882117 -9.96990271 30.81882117 -15.26171875 29.78515625 C-21.10920515 28.84490193 -25.49003356 27.44746644 -29.75 23.1875 C-32.42534802 18.99999875 -32.39900218 14.01231885 -31.75 9.1875 C-29.47985518 3.82170315 -25.80942258 1.4521589 -20.66796875 -0.89453125 C-13.83656764 -3.04363334 -6.54896164 -3.02801452 0 0 Z " fill="#F6F6F6" transform="translate(971.75,1175.8125)"/>
<path d="M0 0 C2.72522624 2.12700584 3.70898425 3.58689467 4.40625 6.97265625 C4.66917679 10.48930207 4.3934721 12.52783348 2.125 15.25 C-2.84661358 18.0341036 -8.21492761 21 -14 21 C-15.00419637 18.5433053 -16.00350501 16.08481647 -17 13.625 C-17.28617188 12.92632813 -17.57234375 12.22765625 -17.8671875 11.5078125 C-20 6.2265625 -20 6.2265625 -20 4 C-6.69671007 -1.5699756 -6.69671007 -1.5699756 0 0 Z " fill="#040404" transform="translate(856,1194)"/>
<path d="M0 0 C0.99 0.495 0.99 0.495 2 1 C1.43410156 1.55429688 0.86820313 2.10859375 0.28515625 2.6796875 C-0.81505859 3.76636719 -0.81505859 3.76636719 -1.9375 4.875 C-3.03384766 5.95394531 -3.03384766 5.95394531 -4.15234375 7.0546875 C-6.05667999 8.87027192 -6.05667999 8.87027192 -7 11 C-7.66 11 -8.32 11 -9 11 C-9.25369858 11.57934296 -9.50739716 12.15868591 -9.76878357 12.75558472 C-11.14074819 15.2565734 -12.6724418 16.906266 -14.69946289 18.91064453 C-15.45687271 19.6646756 -16.21428253 20.41870667 -16.99464417 21.19558716 C-17.81238815 21.99987152 -18.63013214 22.80415588 -19.47265625 23.6328125 C-20.31090439 24.46585907 -21.14915253 25.29890564 -22.01280212 26.15719604 C-24.69133845 28.81791527 -27.37646175 31.47185594 -30.0625 34.125 C-32.75123024 36.78614491 -35.43850579 39.44871799 -38.12290955 42.11422729 C-39.7939792 43.7730062 -41.46771399 45.42910518 -43.14430237 47.08230591 C-43.89856003 47.83003265 -44.65281769 48.5777594 -45.42993164 49.34814453 C-46.43015099 50.33598434 -46.43015099 50.33598434 -47.45057678 51.34378052 C-49.08555665 52.93405957 -49.08555665 52.93405957 -50 55 C-50.66 55 -51.32 55 -52 55 C-52.2578125 55.58007812 -52.515625 56.16015625 -52.78125 56.7578125 C-57.43942379 65.32765787 -66.67542879 70.90820417 -75.5 74.375 C-79.98243016 75.17543396 -84.46360074 75.56393994 -89 75 C-89.66 74.34 -90.32 73.68 -91 73 C-90.03320312 72.98582031 -89.06640625 72.97164062 -88.0703125 72.95703125 C-86.11738281 72.88548828 -86.11738281 72.88548828 -84.125 72.8125 C-82.21074219 72.76029297 -82.21074219 72.76029297 -80.2578125 72.70703125 C-69.5794026 71.47084967 -62.36919334 64.07174863 -55.20703125 56.73046875 C-54.20779493 55.7244213 -53.20750352 54.71942082 -52.20622253 53.71540833 C-49.59189047 51.08777014 -46.99330627 48.44507768 -44.39752197 45.7991333 C-42.28923956 43.65545442 -40.16983892 41.52296313 -38.04976368 39.39095592 C-35.49415647 36.82044852 -32.94367336 34.24488593 -30.39453125 31.66796875 C-29.91898111 31.18750784 -29.44343098 30.70704693 -28.95347023 30.2120266 C-23.98121018 25.17950377 -19.10054353 20.11442229 -14.51028442 14.72895813 C-11.84230747 11.67468545 -8.95025922 8.84465833 -6.0625 6 C-5.17981445 5.12408203 -5.17981445 5.12408203 -4.27929688 4.23046875 C-2.85520207 2.81795195 -1.4279475 1.4086219 0 0 Z " fill="#141414" transform="translate(1287,1329)"/>
<path d="M0 0 C3 1.4375 3 1.4375 5 4 C5.40788661 7.37433469 5.29032277 10.61935259 5 14 C-1.85618326 12.07443364 -8.43252132 9.7527517 -15 7 C-13.265625 2.234375 -13.265625 2.234375 -10.875 0.125 C-6.93358142 -1.41729423 -4.0293627 -1.15356755 0 0 Z " fill="#0B0B0B" transform="translate(1157,1211)"/>
<path d="M0 0 C3.6016391 2.70122933 5.11047246 4.66355324 6 9 C3.25124318 9.67218507 0.50119274 10.33792435 -2.25 11 C-3.02730469 11.19078125 -3.80460938 11.3815625 -4.60546875 11.578125 C-5.35957031 11.75859375 -6.11367188 11.9390625 -6.890625 12.125 C-7.92751465 12.37636719 -7.92751465 12.37636719 -8.98535156 12.6328125 C-11 13 -11 13 -15 13 C-15.32521241 8.3386221 -14.81951666 5.75935554 -12 2 C-7.98850232 -0.67433178 -4.71559339 -0.81902411 0 0 Z " fill="#090909" transform="translate(915,1192)"/>
<path d="M0 0 C2.90221328 1.31270914 4.96712292 2.71898982 7.20703125 4.9765625 C7.79009033 5.56099121 8.37314941 6.14541992 8.97387695 6.74755859 C9.58062256 7.36711426 10.18736816 7.98666992 10.8125 8.625 C11.44051514 9.25873535 12.06853027 9.8924707 12.71557617 10.54541016 C15.85694683 13.73619013 18.91522876 16.95840656 21.8125 20.375 C29.64539972 29.50032818 37.42226431 35.45916054 49.625 36.75 C51.08237713 36.84865322 52.54060837 36.93789823 54 37 C54 37.33 54 37.66 54 38 C52.04375824 38.13797943 50.08450207 38.23330534 48.125 38.3125 C47.03445313 38.37050781 45.94390625 38.42851563 44.8203125 38.48828125 C35.8872953 37.3465357 29.33944989 32.08814508 23.2421875 25.80078125 C22.56825958 25.12452194 21.89433167 24.44826263 21.19998169 23.75151062 C19.79436536 22.33623542 18.394729 20.91499727 17.00097656 19.48803711 C14.85804489 17.29514963 12.69648224 15.12202239 10.53125 12.95117188 C9.16295173 11.56880692 7.79572375 10.18538155 6.4296875 8.80078125 C5.78297089 8.14870193 5.13625427 7.49662262 4.46994019 6.82478333 C3.88157379 6.22042953 3.2932074 5.61607574 2.68701172 4.9934082 C2.1664621 4.46221878 1.64591248 3.93102936 1.10958862 3.38374329 C0 2 0 2 0 0 Z " fill="#191919" transform="translate(746,1365)"/>
<path d="M0 0 C0.66 0.33 1.32 0.66 2 1 C-2.1955039 5.28291023 -6.37759616 9.53966809 -10.9375 13.4375 C-18.00418816 19.5187934 -24.49313416 26.20690728 -30.52734375 33.30859375 C-31.95458403 34.94783789 -33.44512338 36.48225476 -35 38 C-35 33.93566621 -33.63761272 33.14496785 -30.875 30.1875 C-30.41359619 29.69338623 -29.95219238 29.19927246 -29.47680664 28.69018555 C-23.90614705 22.79300877 -18.16257618 17.05921911 -12.4375 11.3125 C-11.93933777 10.8115683 -11.44117554 10.3106366 -10.92791748 9.79452515 C-9.49530897 8.35611696 -8.05828271 6.92211287 -6.62109375 5.48828125 C-5.7798999 4.64821533 -4.93870605 3.80814941 -4.07202148 2.94262695 C-2 1 -2 1 0 0 Z " fill="#0C0C0C" transform="translate(680,1190)"/>
<path d="M0 0 C-4.25838601 9.58136853 -14.06792271 15.66954107 -23.5 19.375 C-27.98243016 20.17543396 -32.46360074 20.56393994 -37 20 C-37.66 19.34 -38.32 18.68 -39 18 C-37.54980469 17.97873047 -37.54980469 17.97873047 -36.0703125 17.95703125 C-21.48726864 17.42280093 -14.21619545 12.86957439 -4.46875 2.44921875 C-2 0 -2 0 0 0 Z " fill="#151515" transform="translate(1235,1384)"/>
<path d="M0 0 C-1.47721422 3.45201639 -3.43794001 5.64961936 -6.125 8.25 C-6.84945313 8.95640625 -7.57390625 9.6628125 -8.3203125 10.390625 C-8.87460938 10.92171875 -9.42890625 11.4528125 -10 12 C-10.99 11.67 -11.98 11.34 -13 11 C-11.21427748 9.16052663 -9.42197551 7.32842259 -7.625 5.5 C-7.11710937 4.97535156 -6.60921875 4.45070313 -6.0859375 3.91015625 C-2.2265625 0 -2.2265625 0 0 0 Z " fill="#1F1F1F" transform="translate(1235,1384)"/>
<path d="M0 0 C0.66 0.33 1.32 0.66 2 1 C-0.64 3.97 -3.28 6.94 -6 10 C-6.66 9.67 -7.32 9.34 -8 9 C-5.36 6.03 -2.72 3.06 0 0 Z " fill="#131313" transform="translate(827,1383)"/>
<path d="M0 0 C3.81684226 1.55500981 6.19195732 4.03595495 9 7 C5.13066838 6.42676569 2.84777943 4.61046448 0 2 C0 1.34 0 0.68 0 0 Z " fill="#121212" transform="translate(1139,1354)"/>
</svg>
