<?xml version="1.0" encoding="UTF-8"?>
<svg version="1.1" xmlns="http://www.w3.org/2000/svg" width="2000" height="2000">
<path d="M0 0 C1.17931091 0.00936584 1.17931091 0.00936584 2.38244629 0.0189209 C45.27713021 0.38921096 88.4438353 3.66900927 131 9 C131.81656067 9.10227905 132.63312134 9.20455811 133.47442627 9.30993652 C204.08375945 18.22506001 273.79848614 32.64605969 342 53 C342.65387695 53.19446716 343.30775391 53.38893433 343.98144531 53.58929443 C378.47846643 63.86166867 412.48723836 75.88118257 446 89 C446.9801709 89.38269043 447.9603418 89.76538086 448.97021484 90.15966797 C451.6910076 91.22517603 454.40896404 92.29742961 457.125 93.375 C457.87644287 93.67269287 458.62788574 93.97038574 459.40209961 94.27709961 C464.37776693 96.27666685 469.25579491 98.45750946 474.12988281 100.69238281 C479.00032199 102.91134098 483.90930058 105.04217988 488.8125 107.1875 C509.7700443 116.39230246 530.44818846 125.86921785 550.64575195 136.64477539 C555.39470242 139.17208354 560.17925313 141.61280895 565 144 C578.24182404 150.57019587 591.22565912 157.55984076 604 165 C605.32161133 165.76836182 605.32161133 165.76836182 606.66992188 166.55224609 C612.83175682 170.13573183 618.9872054 173.73000732 625.13964844 177.32958984 C627.66548996 178.80465025 630.1949745 180.27311511 632.7265625 181.73828125 C641.7600636 186.98065346 650.574512 192.49419838 659.30224609 198.22998047 C661.90167616 199.93548889 664.50529578 201.63446762 667.11013794 203.33169556 C693.3840855 220.45215561 693.3840855 220.45215561 705.14892578 228.70214844 C707.18824955 230.13198821 709.2329332 231.5540068 711.27734375 232.9765625 C718.8925916 238.29433165 726.3683125 243.73146236 733.6953125 249.44140625 C737.40263775 252.32726035 741.17102481 255.12958444 744.9375 257.9375 C757.19253146 267.09996311 769.10574539 276.66429483 780.95898438 286.33837891 C782.99433118 287.99538493 785.03525196 289.64525356 787.078125 291.29296875 C799.44057243 301.27189942 811.49085839 311.50234414 823.1171875 322.33203125 C825.38235593 324.42838631 827.66514567 326.48264678 830 328.5 C837.68633774 335.15822887 845.1864881 342.06751178 852.30175781 349.33325195 C853.93741597 350.9385766 855.62705382 352.41700509 857.375 353.8984375 C862.93831251 358.74505508 868.1945073 363.89896784 873.43725586 369.0871582 C874.60413658 370.23743663 875.77636287 371.38231741 876.95385742 372.52172852 C885.26250394 380.56455382 893.28609193 388.51326007 894.203125 400.69921875 C894.43006015 415.16633429 888.89496235 422.92954458 879.03442383 433.10522461 C875.84882457 436.33406772 872.6149029 439.51329673 869.375 442.6875 C867.72214296 444.31240431 866.07094573 445.93891491 864.42276001 447.56855774 C863.40936887 448.5700311 862.39332947 449.56883645 861.37387085 450.56413269 C858.78609228 453.11602447 856.35116403 455.73321188 853.99609375 458.50170898 C849.01634154 464.24835609 843.57006883 469.54040343 838.17869949 474.8964653 C836.19275106 476.86952958 834.21004946 478.84580681 832.2281189 480.82290649 C828.02989832 485.00977213 823.82772804 489.19265958 819.625 493.375 C814.73192993 498.2444629 809.84049543 503.11554598 804.953228 507.99083328 C802.99807949 509.93949193 801.03995024 511.88512152 799.08169556 513.83065796 C797.89106844 515.01765493 796.70058017 516.20479118 795.51025391 517.39208984 C794.96380219 517.93337524 794.41735046 518.47466064 793.8543396 519.03234863 C791.08094864 521.75390834 791.08094864 521.75390834 789 525 C788.34 525 787.68 525 787 525 C786.72697052 525.59703735 786.45394104 526.19407471 786.17263794 526.8092041 C785.03385534 528.93674932 783.92105703 530.3430991 782.23779297 532.05273438 C781.68316376 532.62012329 781.12853455 533.18751221 780.55709839 533.77209473 C779.6587175 534.67381409 779.6587175 534.67381409 778.7421875 535.59375 C778.12030548 536.22228882 777.49842346 536.85082764 776.85769653 537.49841309 C775.54059169 538.82563129 774.22076947 540.15015757 772.8984375 541.47216797 C770.89250362 543.48245837 768.90309384 545.50815877 766.9140625 547.53515625 C765.62858888 548.82650181 764.34216012 550.11689743 763.0546875 551.40625 C762.46791229 552.00739624 761.88113708 552.60854248 761.27658081 553.22790527 C754.6564626 559.77699941 746.61300169 563.83513292 737.1796875 564.0703125 C718.50868593 563.25852982 707.13930805 548.2871132 694.875 535.875 C685.5912356 526.42823223 685.5912356 526.42823223 675.78417969 517.53466797 C672.65156488 514.84013914 669.68596042 511.96675896 666.6875 509.125 C661.56439344 504.30687045 656.34742721 499.71376187 650.8515625 495.3203125 C647.45805044 492.55901639 644.16819092 489.69196059 640.875 486.8125 C629.01845088 476.48636639 616.92280702 466.53859954 604.28125 457.1875 C601.17304999 454.8855624 598.09590727 452.54709808 595.03125 450.1875 C576.56812707 435.97289546 557.49324552 422.7599327 538 410 C537.14245117 409.43845215 536.28490234 408.8769043 535.40136719 408.29833984 C505.32025314 388.68735406 473.89949537 370.84408563 441.93652344 354.50195312 C439.96117327 353.49161439 437.98789438 352.4772168 436.01660156 351.45898438 C355.55911796 309.95088329 267.79192083 281.45699818 145.17559814 257.3581543 C143.0769641 257.01267009 140.97953011 256.66067917 138.88232422 256.30664062 C104.58473586 250.5430151 69.72588136 246.85153536 35 245 C34.31737091 244.95903198 33.63474182 244.91806396 32.931427 244.87585449 C13.65713644 243.7281944 -5.63625149 243.75447753 -24.9375 243.75 C-25.81191742 243.74955814 -26.68633484 243.74911629 -27.58724976 243.74866104 C-56.16366979 243.74110672 -84.52990727 244.34180042 -113 247 C-114.91681631 247.17348487 -116.83364605 247.34682131 -118.75048828 247.52001953 C-215.0911025 256.34919432 -309.63575929 278.50983813 -475 347 C-475.72604431 347.35807739 -476.45208862 347.71615479 -477.20013428 348.08508301 C-482.19041762 350.54628905 -487.17669831 353.01540423 -492.15893555 355.49285889 C-493.8169473 356.31718224 -495.47545907 357.14050082 -497.13452148 357.96270752 C-507.28870018 363.00071845 -517.21970139 368.26766922 -527 374 C-528.60594106 374.92331974 -530.21261582 375.84536557 -531.8203125 376.765625 C-559.60863387 392.77778835 -586.60192749 409.77941688 -613 428 C-613.79776855 428.54897949 -614.59553711 429.09795898 -615.41748047 429.66357422 C-626.70056471 437.44647722 -637.60251809 445.69847238 -648.46484375 454.05566406 C-650.85448891 455.8884004 -653.25298104 457.70861905 -655.65625 459.5234375 C-663.2974706 465.30216347 -670.76260225 471.21120198 -678.02734375 477.45703125 C-680.79825973 479.82742061 -683.60516419 482.14112294 -686.4375 484.4375 C-696.05257712 492.27511745 -705.41861396 500.38316588 -714.5546875 508.7734375 C-716.67272193 510.7019992 -718.82229717 512.57719516 -721 514.4375 C-725.25257931 518.12364969 -729.1648693 522.13269748 -733.09375 526.15625 C-735.2046261 528.27345054 -737.40788285 530.23275258 -739.6796875 532.17578125 C-745.93690375 537.59210094 -751.61818545 543.61080877 -757.3984375 549.52539062 C-758.29046875 550.42837891 -759.1825 551.33136719 -760.1015625 552.26171875 C-760.89900879 553.07600342 -761.69645508 553.89028809 -762.51806641 554.72924805 C-769.31176001 560.94488293 -775.66841051 563.3967561 -784.8125 563.375 C-785.51810059 563.37338867 -786.22370117 563.37177734 -786.95068359 563.37011719 C-792.80666267 563.232773 -797.06590118 562.0625441 -802 559 C-803.03125 558.4225 -804.0625 557.845 -805.125 557.25 C-807.53026175 555.36762124 -809.17609506 553.72677161 -811.11743164 551.42333984 C-815.19013264 546.70984948 -819.56149146 542.34738282 -823.99609375 537.9765625 C-825.70520628 536.28007702 -827.41418695 534.58345868 -829.12304688 532.88671875 C-831.79655742 530.2381758 -834.471652 527.59126925 -837.14916992 524.94677734 C-839.74828624 522.37767719 -842.34130229 519.80254626 -844.93359375 517.2265625 C-845.74283798 516.43077789 -846.55208221 515.63499329 -847.385849 514.81509399 C-848.12404373 514.08027802 -848.86223846 513.34546204 -849.62280273 512.58837891 C-850.60373146 511.61863632 -850.60373146 511.61863632 -851.60447693 510.62930298 C-853 509 -853 509 -853 507 C-853.66 507 -854.32 507 -855 507 C-856.38722229 505.59030151 -856.38722229 505.59030151 -858.02172852 503.60498047 C-862.30580035 498.57055897 -866.94927949 493.96089082 -871.65234375 489.3203125 C-873.4981757 487.48710887 -875.34387507 485.65377174 -877.18945312 483.8203125 C-880.07967626 480.95391393 -882.97244524 478.09010298 -885.86743164 475.22851562 C-888.67591704 472.45181894 -891.47656619 469.66728399 -894.27734375 466.8828125 C-895.15220932 466.02140656 -896.02707489 465.16000061 -896.92845154 464.27249146 C-897.72670853 463.47761322 -898.52496552 462.68273499 -899.34741211 461.86376953 C-900.05465927 461.1639798 -900.76190643 460.46419006 -901.49058533 459.74319458 C-903 458 -903 458 -903 456 C-903.66 456 -904.32 456 -905 456 C-906.28051758 454.68945312 -906.28051758 454.68945312 -907.83203125 452.78125 C-911.0502863 448.99369472 -914.45727715 445.49718277 -918.01171875 442.03125 C-918.55087921 441.50249268 -919.09003967 440.97373535 -919.64553833 440.42895508 C-921.89124042 438.22777013 -924.13924336 436.02928123 -926.40161133 433.84521484 C-934.85120303 425.67319544 -941.97527794 418.62727527 -942.29321289 406.14868164 C-942.42495348 390.61830015 -936.67378601 383.84131244 -925.95874023 372.8659668 C-923.20552801 370.06880848 -920.43253065 367.29181007 -917.65209961 364.52172852 C-915.9329133 362.80792767 -914.21917417 361.08880918 -912.50585938 359.36914062 C-907.3559667 354.21645875 -902.21063885 349.12297439 -896.63696289 344.42260742 C-894.8374337 342.85872128 -893.16892668 341.20185462 -891.5 339.5 C-888.57532885 336.52942594 -885.51380439 333.79270881 -882.35546875 331.07421875 C-879.98352946 328.98549609 -877.67077417 326.84436597 -875.36108398 324.6875 C-869.93520441 319.62176268 -864.40405947 314.79559046 -858.61328125 310.14453125 C-856.00152377 308.00125044 -853.49634698 305.7761967 -851 303.5 C-845.8249007 298.79536428 -840.43858803 294.39481861 -835 290 C-833.78057483 289.00082343 -832.56186423 288.00077435 -831.34375 287 C-823.14041542 280.27355262 -814.81342292 273.74113593 -806.36328125 267.328125 C-802.58585189 264.45772238 -798.84617771 261.54154364 -795.11254883 258.61450195 C-787.47424394 252.63017668 -779.7499804 246.82746445 -771.80126953 241.26269531 C-769.8828936 239.91790807 -767.9702769 238.56522044 -766.05859375 237.2109375 C-762.48199129 234.67805612 -758.89965119 232.15343287 -755.31542969 229.63134766 C-752.89801526 227.92814614 -750.48418647 226.21993343 -748.0703125 224.51171875 C-738.28175622 217.60103588 -728.40481729 210.88596254 -718.29150391 204.45996094 C-715.79651974 202.87035884 -713.3101954 201.26771183 -710.82421875 199.6640625 C-698.98300344 192.04700566 -686.9921428 184.73923143 -674.82714844 177.65185547 C-671.94363883 175.96706911 -669.06884063 174.2681532 -666.1953125 172.56640625 C-651.66644352 163.98656388 -636.92023826 155.87753056 -622 148 C-620.42605469 147.1656543 -620.42605469 147.1656543 -618.8203125 146.31445312 C-542.68067724 106.03564608 -462.9742994 74.0908549 -120 3 C-119.33367554 2.95014954 -118.66735107 2.90029907 -117.98083496 2.84893799 C-78.7129099 -0.0564084 -39.35835825 -0.33778572 0 0 Z " fill="#FDFDFD" transform="translate(1024,270)"/>
<path d="M0 0 C1.02548635 -0.00480251 2.05097271 -0.00960503 3.10753441 -0.01455307 C10.85944543 -0.05028412 18.61129689 -0.06605393 26.36328125 -0.07421875 C27.50063972 -0.0758112 28.6379982 -0.07740364 29.80982208 -0.07904434 C65.07739266 -0.12097819 99.95468078 0.63444924 135.08013916 3.99804688 C138.89400986 4.35103192 142.71191094 4.63940723 146.53125 4.92578125 C216.81500082 10.4420618 289.75312657 23.75462172 357.19775391 44.48144531 C360.22448695 45.40586624 363.26127685 46.2925653 366.30151367 47.17138672 C375.12977385 49.74406429 383.9044985 52.47886547 392.67578125 55.23828125 C393.36321411 55.45419922 394.05064697 55.67011719 394.75891113 55.89257812 C452.44029545 74.02832915 508.43561029 96.49399372 562.67578125 123.23828125 C564.00639587 123.89085861 565.33713138 124.54318953 566.66796875 125.1953125 C583.68863627 133.54383933 600.47839579 142.11832083 616.88330078 151.63476562 C620.89483141 153.93829187 624.94452706 156.17120797 628.99194336 158.41088867 C666.24135214 179.05930337 702.23200368 202.41077035 736.53515625 227.66259766 C738.81780145 229.3428203 741.10597247 231.01534254 743.39453125 232.6875 C757.45883744 242.98371931 771.37174118 253.44548729 784.85473633 264.49536133 C789.20464445 268.05860118 793.6084648 271.54123789 798.05078125 274.98828125 C802.97971735 278.82372986 807.66355649 282.83910456 812.26171875 287.0703125 C814.77101997 289.32381117 817.35819751 291.43989271 819.98828125 293.55078125 C825.44242675 297.96199524 830.55837261 302.67841771 835.68359375 307.4609375 C837.99818387 309.61905844 840.34473871 311.73001935 842.73828125 313.80078125 C850.06094235 320.14605326 857.2231695 326.68290186 864.0078125 333.6015625 C867.09488714 336.63079968 870.38887134 339.42946732 873.67578125 342.23828125 C869.87274338 350.56270221 862.11556039 356.9278963 855.70703125 363.26953125 C854.44832214 364.52256042 854.44832214 364.52256042 853.16418457 365.80090332 C849.60723605 369.34164254 846.04432005 372.87635449 842.48193359 376.41162109 C839.86737961 379.00800185 837.25589941 381.60744691 834.64453125 384.20703125 C833.84954224 384.99372192 833.05455322 385.7804126 832.23547363 386.59094238 C828.10098698 390.70740427 824.16024512 394.91075496 820.35482788 399.33215332 C817.58583892 402.47563195 814.62233515 405.41504201 811.6484375 408.36328125 C811.01465683 408.99564697 810.38087616 409.6280127 809.72789001 410.27954102 C807.73372147 412.26818111 805.73607772 414.25328652 803.73828125 416.23828125 C802.3728138 417.59872443 801.00757739 418.95939956 799.64257812 420.3203125 C796.32297239 423.62898435 793.00024852 426.93449447 789.67578125 430.23828125 C788.54874032 429.2780335 787.42251234 428.31683154 786.29663086 427.35522461 C785.66937607 426.82005722 785.04212128 426.28488983 784.39585876 425.73350525 C782.58948246 424.16326369 780.89572757 422.52710846 779.23828125 420.80078125 C776.31353727 417.8309421 773.25588503 415.09645194 770.09765625 412.37890625 C767.57990029 410.15353485 765.12894373 407.86818126 762.67944336 405.56835938 C757.0731509 400.30497095 751.3834271 395.27939793 745.375 390.47265625 C742.43580909 388.0396357 739.6464168 385.47039021 736.86328125 382.86328125 C732.17667262 378.49391997 727.3002512 374.48027014 722.22802734 370.56811523 C718.28350848 367.52075801 714.42622237 364.38915332 710.60205078 361.19213867 C701.64579996 353.70790736 692.37705084 346.75192375 682.93652344 339.89355469 C680.15902648 337.85992301 677.41426615 335.78550261 674.67211914 333.70458984 C650.66035599 315.49796827 625.43338374 298.85693558 599.67578125 283.23828125 C598.84626953 282.73345215 598.01675781 282.22862305 597.16210938 281.70849609 C562.69757864 260.75669804 527.27787348 241.20655887 490.67578125 224.23828125 C489.60714844 223.74247559 488.53851562 223.24666992 487.4375 222.73583984 C455.48752631 207.99291689 422.75074274 195.21332322 389.67578125 183.23828125 C388.62503418 182.85671875 387.57428711 182.47515625 386.49169922 182.08203125 C376.66944497 178.5292652 366.80835584 175.29207489 356.765625 172.421875 C352.65044105 171.24316383 348.56910751 169.96767393 344.48828125 168.67578125 C333.48306818 165.21085557 322.39141777 162.12292287 311.22460938 159.2277832 C307.1031812 158.15593798 302.99616531 157.05404189 298.90625 155.8671875 C262.69881817 145.44502852 224.61839407 138.41075157 187.26513672 133.58740234 C184.44987819 133.20782289 181.64380027 132.78238898 178.8359375 132.3515625 C104.59485129 121.18230131 27.79825863 118.73950989 -47.1015625 124.08007812 C-49.35127119 124.24020678 -51.60135763 124.39389205 -53.8515625 124.546875 C-109.2681806 128.37284962 -164.14623128 137.23559452 -218.21485901 149.82199097 C-223.41577836 151.0317442 -228.62327225 152.20977833 -233.83447266 153.37451172 C-243.06131002 155.44154693 -252.22561352 157.65676901 -261.32421875 160.23828125 C-262.20835449 160.48835937 -263.09249023 160.7384375 -264.00341797 160.99609375 C-275.07450016 164.14193486 -286.08448172 167.39978582 -296.97705078 171.11987305 C-300.97217682 172.47803655 -304.97124504 173.73484561 -309.03686523 174.87158203 C-346.71809039 185.44598939 -383.80452286 200.94570429 -419.32421875 217.23828125 C-420.39994141 217.72683594 -421.47566406 218.21539063 -422.58398438 218.71875 C-447.70758791 230.13726243 -472.48524772 242.26129586 -496.58740234 255.71386719 C-499.46898878 257.31891854 -502.35905332 258.90797039 -505.25 260.49609375 C-536.14616452 277.54233807 -566.32052417 296.13193431 -595.05126953 316.62402344 C-597.22542284 318.16811599 -599.41060816 319.69471389 -601.6015625 321.21484375 C-611.35153519 327.99525268 -620.81649643 335.11035499 -630.234375 342.34375 C-634.07216242 345.28996661 -637.93893678 348.19244648 -641.82739258 351.07128906 C-648.56049088 356.05998886 -655.0324995 361.26024474 -661.3828125 366.7265625 C-663.96926398 368.9351791 -666.59153543 371.07002693 -669.26171875 373.17578125 C-679.28498981 381.12920609 -688.85850714 389.63451358 -698.32421875 398.23828125 C-699.99010374 399.73914933 -701.65677984 401.23913974 -703.32421875 402.73828125 C-704.15566406 403.48722656 -704.98710938 404.23617188 -705.84375 405.0078125 C-707.4427052 406.44561316 -709.04408889 407.88071998 -710.6484375 409.3125 C-718.31696683 416.16981301 -725.82029372 423.20203572 -733.32421875 430.23828125 C-737.93866539 426.5676987 -741.96755733 422.55406345 -745.9296875 418.1953125 C-750.16285104 413.54125027 -754.47564666 408.9982028 -758.9375 404.5625 C-759.48824188 404.01498077 -760.03898376 403.46746155 -760.60641479 402.90335083 C-762.28125441 401.24219909 -763.95851801 399.5835369 -765.63671875 397.92578125 C-778.08703645 385.62476072 -778.08703645 385.62476072 -781.765625 381.296875 C-787.09601958 375.03874513 -793.10848714 369.38877064 -798.94921875 363.61328125 C-801.36104725 361.22823667 -803.76940605 358.83976392 -806.17578125 356.44921875 C-806.9900206 355.64742691 -806.9900206 355.64742691 -807.82070923 354.82943726 C-811.2143676 351.45743702 -814.31241334 347.95629351 -817.32421875 344.23828125 C-815.72803506 340.01190808 -812.55347636 337.46905905 -809.26171875 334.55078125 C-808.07802857 333.48201561 -806.89574318 332.41169214 -805.71484375 331.33984375 C-805.13541016 330.81422852 -804.55597656 330.28861328 -803.95898438 329.74707031 C-801.74435811 327.70310521 -799.623946 325.57493555 -797.51171875 323.42578125 C-794.26841988 320.14120403 -790.92278725 317.05752895 -787.421875 314.05078125 C-785.02504563 311.97977784 -782.67421693 309.86224907 -780.32421875 307.73828125 C-772.91534332 301.06017502 -765.37147248 294.55797592 -757.74609375 288.12890625 C-755.52021297 286.25168784 -753.3015849 284.36651012 -751.08984375 282.47265625 C-743.89078035 276.3189724 -736.53723366 270.40246239 -729.05957031 264.59130859 C-727.38953472 263.28920712 -725.72660275 261.97867731 -724.06640625 260.6640625 C-710.20879443 249.69646358 -696.23090725 238.8519444 -681.7734375 228.68359375 C-679.35552196 226.98099268 -676.96816447 225.24320878 -674.59375 223.48046875 C-660.193982 212.83511869 -645.16216191 203.14549257 -630.13793945 193.41400146 C-628.50534037 192.35569092 -626.87462188 191.29448063 -625.24414062 190.23291016 C-594.23972656 170.06461593 -562.07376365 151.62715632 -529.18847656 134.72119141 C-525.84236383 132.98881085 -522.51901627 131.21647924 -519.19726562 129.43798828 C-458.04666074 96.80396652 -391.71835683 70.96346766 -325.32421875 51.23828125 C-324.08800781 50.86316406 -322.85179687 50.48804688 -321.578125 50.1015625 C-312.49082989 47.36442542 -303.34731184 44.8956404 -294.15527344 42.53515625 C-289.51032144 41.34017676 -284.87618356 40.12678626 -280.265625 38.8046875 C-264.61076175 34.3327392 -248.74437839 30.99960912 -232.82498169 27.62890625 C-226.64207529 26.31601041 -220.48064982 24.92014155 -214.32421875 23.48828125 C-204.040958 21.12186078 -193.71514566 19.0735133 -183.32421875 17.23828125 C-182.43089844 17.08004883 -181.53757812 16.92181641 -180.6171875 16.75878906 C-162.48809098 13.59837726 -144.23656995 11.39092178 -125.97215271 9.18632507 C-121.6031766 8.65523681 -117.24009556 8.09576452 -112.88037109 7.49316406 C-99.4539065 5.64772551 -86.04154087 4.35045104 -72.52587891 3.35791016 C-69.19376149 3.11287995 -65.86250989 2.85796353 -62.53125 2.6015625 C-60.33467895 2.43562071 -58.13806562 2.27023733 -55.94140625 2.10546875 C-54.98450897 2.03254608 -54.02761169 1.95962341 -53.04171753 1.88449097 C-35.36774386 0.59684129 -17.71717552 0.06475232 0 0 Z " fill="#010101" transform="translate(972.32421875,330.76171875)"/>
<path d="M0 0 C1.17931091 0.00936584 1.17931091 0.00936584 2.38244629 0.0189209 C45.27713021 0.38921096 88.4438353 3.66900927 131 9 C131.81656067 9.10227905 132.63312134 9.20455811 133.47442627 9.30993652 C204.08375945 18.22506001 273.79848614 32.64605969 342 53 C342.65387695 53.19446716 343.30775391 53.38893433 343.98144531 53.58929443 C378.47846643 63.86166867 412.48723836 75.88118257 446 89 C446.9801709 89.38269043 447.9603418 89.76538086 448.97021484 90.15966797 C451.6910076 91.22517603 454.40896404 92.29742961 457.125 93.375 C457.87644287 93.67269287 458.62788574 93.97038574 459.40209961 94.27709961 C464.37776693 96.27666685 469.25579491 98.45750946 474.12988281 100.69238281 C479.00032199 102.91134098 483.90930058 105.04217988 488.8125 107.1875 C509.7700443 116.39230246 530.44818846 125.86921785 550.64575195 136.64477539 C555.39470242 139.17208354 560.17925313 141.61280895 565 144 C578.24182404 150.57019587 591.22565912 157.55984076 604 165 C605.32161133 165.76836182 605.32161133 165.76836182 606.66992188 166.55224609 C612.83175682 170.13573183 618.9872054 173.73000732 625.13964844 177.32958984 C627.66548996 178.80465025 630.1949745 180.27311511 632.7265625 181.73828125 C641.7600636 186.98065346 650.574512 192.49419838 659.30224609 198.22998047 C661.90167616 199.93548889 664.50529578 201.63446762 667.11013794 203.33169556 C693.3840855 220.45215561 693.3840855 220.45215561 705.14892578 228.70214844 C707.18824955 230.13198821 709.2329332 231.5540068 711.27734375 232.9765625 C718.8925916 238.29433165 726.3683125 243.73146236 733.6953125 249.44140625 C737.40263775 252.32726035 741.17102481 255.12958444 744.9375 257.9375 C757.19253146 267.09996311 769.10574539 276.66429483 780.95898438 286.33837891 C782.99433118 287.99538493 785.03525196 289.64525356 787.078125 291.29296875 C799.44057243 301.27189942 811.49085839 311.50234414 823.1171875 322.33203125 C825.38235593 324.42838631 827.66514567 326.48264678 830 328.5 C837.68633774 335.15822887 845.1864881 342.06751178 852.30175781 349.33325195 C853.93741597 350.9385766 855.62705382 352.41700509 857.375 353.8984375 C862.93831251 358.74505508 868.1945073 363.89896784 873.43725586 369.0871582 C874.60413658 370.23743663 875.77636287 371.38231741 876.95385742 372.52172852 C885.26250394 380.56455382 893.28609193 388.51326007 894.203125 400.69921875 C894.43006015 415.16633429 888.89496235 422.92954458 879.03442383 433.10522461 C875.84882457 436.33406772 872.6149029 439.51329673 869.375 442.6875 C867.72214296 444.31240431 866.07094573 445.93891491 864.42276001 447.56855774 C863.40936887 448.5700311 862.39332947 449.56883645 861.37387085 450.56413269 C858.78609228 453.11602447 856.35116403 455.73321188 853.99609375 458.50170898 C849.01634154 464.24835609 843.57006883 469.54040343 838.17869949 474.8964653 C836.19275106 476.86952958 834.21004946 478.84580681 832.2281189 480.82290649 C828.02989832 485.00977213 823.82772804 489.19265958 819.625 493.375 C814.73192993 498.2444629 809.84049543 503.11554598 804.953228 507.99083328 C802.99807949 509.93949193 801.03995024 511.88512152 799.08169556 513.83065796 C797.89106844 515.01765493 796.70058017 516.20479118 795.51025391 517.39208984 C794.96380219 517.93337524 794.41735046 518.47466064 793.8543396 519.03234863 C791.08094864 521.75390834 791.08094864 521.75390834 789 525 C788.34 525 787.68 525 787 525 C786.72697052 525.59703735 786.45394104 526.19407471 786.17263794 526.8092041 C785.03385534 528.93674932 783.92105703 530.3430991 782.23779297 532.05273438 C781.68316376 532.62012329 781.12853455 533.18751221 780.55709839 533.77209473 C779.6587175 534.67381409 779.6587175 534.67381409 778.7421875 535.59375 C778.12030548 536.22228882 777.49842346 536.85082764 776.85769653 537.49841309 C775.54059169 538.82563129 774.22076947 540.15015757 772.8984375 541.47216797 C770.89250362 543.48245837 768.90309384 545.50815877 766.9140625 547.53515625 C765.62858888 548.82650181 764.34216012 550.11689743 763.0546875 551.40625 C762.46791229 552.00739624 761.88113708 552.60854248 761.27658081 553.22790527 C754.6564626 559.77699941 746.61300169 563.83513292 737.1796875 564.0703125 C718.50868593 563.25852982 707.13930805 548.2871132 694.875 535.875 C685.5912356 526.42823223 685.5912356 526.42823223 675.78417969 517.53466797 C672.65156488 514.84013914 669.68596042 511.96675896 666.6875 509.125 C661.56439344 504.30687045 656.34742721 499.71376187 650.8515625 495.3203125 C647.45805044 492.55901639 644.16819092 489.69196059 640.875 486.8125 C629.01845088 476.48636639 616.92280702 466.53859954 604.28125 457.1875 C601.17304999 454.8855624 598.09590727 452.54709808 595.03125 450.1875 C576.56812707 435.97289546 557.49324552 422.7599327 538 410 C537.14245117 409.43845215 536.28490234 408.8769043 535.40136719 408.29833984 C505.32025314 388.68735406 473.89949537 370.84408563 441.93652344 354.50195312 C439.96117327 353.49161439 437.98789438 352.4772168 436.01660156 351.45898438 C355.55911796 309.95088329 267.79192083 281.45699818 145.17559814 257.3581543 C143.0769641 257.01267009 140.97953011 256.66067917 138.88232422 256.30664062 C104.58473586 250.5430151 69.72588136 246.85153536 35 245 C34.31737091 244.95903198 33.63474182 244.91806396 32.931427 244.87585449 C13.65713644 243.7281944 -5.63625149 243.75447753 -24.9375 243.75 C-25.81191742 243.74955814 -26.68633484 243.74911629 -27.58724976 243.74866104 C-56.16366979 243.74110672 -84.52990727 244.34180042 -113 247 C-114.91681631 247.17348487 -116.83364605 247.34682131 -118.75048828 247.52001953 C-215.0911025 256.34919432 -309.63575929 278.50983813 -475 347 C-475.72604431 347.35807739 -476.45208862 347.71615479 -477.20013428 348.08508301 C-482.19041762 350.54628905 -487.17669831 353.01540423 -492.15893555 355.49285889 C-493.8169473 356.31718224 -495.47545907 357.14050082 -497.13452148 357.96270752 C-507.28870018 363.00071845 -517.21970139 368.26766922 -527 374 C-528.60594106 374.92331974 -530.21261582 375.84536557 -531.8203125 376.765625 C-559.60863387 392.77778835 -586.60192749 409.77941688 -613 428 C-613.79776855 428.54897949 -614.59553711 429.09795898 -615.41748047 429.66357422 C-626.70056471 437.44647722 -637.60251809 445.69847238 -648.46484375 454.05566406 C-650.85448891 455.8884004 -653.25298104 457.70861905 -655.65625 459.5234375 C-663.2974706 465.30216347 -670.76260225 471.21120198 -678.02734375 477.45703125 C-680.79825973 479.82742061 -683.60516419 482.14112294 -686.4375 484.4375 C-696.05257712 492.27511745 -705.41861396 500.38316588 -714.5546875 508.7734375 C-716.67272193 510.7019992 -718.82229717 512.57719516 -721 514.4375 C-725.25257931 518.12364969 -729.1648693 522.13269748 -733.09375 526.15625 C-735.2046261 528.27345054 -737.40788285 530.23275258 -739.6796875 532.17578125 C-745.93690375 537.59210094 -751.61818545 543.61080877 -757.3984375 549.52539062 C-758.29046875 550.42837891 -759.1825 551.33136719 -760.1015625 552.26171875 C-760.89900879 553.07600342 -761.69645508 553.89028809 -762.51806641 554.72924805 C-769.31176001 560.94488293 -775.66841051 563.3967561 -784.8125 563.375 C-785.51810059 563.37338867 -786.22370117 563.37177734 -786.95068359 563.37011719 C-792.80666267 563.232773 -797.06590118 562.0625441 -802 559 C-803.03125 558.4225 -804.0625 557.845 -805.125 557.25 C-807.53026175 555.36762124 -809.17609506 553.72677161 -811.11743164 551.42333984 C-815.19013264 546.70984948 -819.56149146 542.34738282 -823.99609375 537.9765625 C-825.70520628 536.28007702 -827.41418695 534.58345868 -829.12304688 532.88671875 C-831.79655742 530.2381758 -834.471652 527.59126925 -837.14916992 524.94677734 C-839.74828624 522.37767719 -842.34130229 519.80254626 -844.93359375 517.2265625 C-845.74283798 516.43077789 -846.55208221 515.63499329 -847.385849 514.81509399 C-848.12404373 514.08027802 -848.86223846 513.34546204 -849.62280273 512.58837891 C-850.60373146 511.61863632 -850.60373146 511.61863632 -851.60447693 510.62930298 C-853 509 -853 509 -853 507 C-853.66 507 -854.32 507 -855 507 C-856.38722229 505.59030151 -856.38722229 505.59030151 -858.02172852 503.60498047 C-862.30580035 498.57055897 -866.94927949 493.96089082 -871.65234375 489.3203125 C-873.4981757 487.48710887 -875.34387507 485.65377174 -877.18945312 483.8203125 C-880.07967626 480.95391393 -882.97244524 478.09010298 -885.86743164 475.22851562 C-888.67591704 472.45181894 -891.47656619 469.66728399 -894.27734375 466.8828125 C-895.15220932 466.02140656 -896.02707489 465.16000061 -896.92845154 464.27249146 C-897.72670853 463.47761322 -898.52496552 462.68273499 -899.34741211 461.86376953 C-900.05465927 461.1639798 -900.76190643 460.46419006 -901.49058533 459.74319458 C-903 458 -903 458 -903 456 C-903.66 456 -904.32 456 -905 456 C-906.28051758 454.68945312 -906.28051758 454.68945312 -907.83203125 452.78125 C-911.0502863 448.99369472 -914.45727715 445.49718277 -918.01171875 442.03125 C-918.55087921 441.50249268 -919.09003967 440.97373535 -919.64553833 440.42895508 C-921.89124042 438.22777013 -924.13924336 436.02928123 -926.40161133 433.84521484 C-934.85120303 425.67319544 -941.97527794 418.62727527 -942.29321289 406.14868164 C-942.42495348 390.61830015 -936.67378601 383.84131244 -925.95874023 372.8659668 C-923.20552801 370.06880848 -920.43253065 367.29181007 -917.65209961 364.52172852 C-915.9329133 362.80792767 -914.21917417 361.08880918 -912.50585938 359.36914062 C-907.3559667 354.21645875 -902.21063885 349.12297439 -896.63696289 344.42260742 C-894.8374337 342.85872128 -893.16892668 341.20185462 -891.5 339.5 C-888.57532885 336.52942594 -885.51380439 333.79270881 -882.35546875 331.07421875 C-879.98352946 328.98549609 -877.67077417 326.84436597 -875.36108398 324.6875 C-869.93520441 319.62176268 -864.40405947 314.79559046 -858.61328125 310.14453125 C-856.00152377 308.00125044 -853.49634698 305.7761967 -851 303.5 C-845.8249007 298.79536428 -840.43858803 294.39481861 -835 290 C-833.78057483 289.00082343 -832.56186423 288.00077435 -831.34375 287 C-823.14041542 280.27355262 -814.81342292 273.74113593 -806.36328125 267.328125 C-802.58585189 264.45772238 -798.84617771 261.54154364 -795.11254883 258.61450195 C-787.47424394 252.63017668 -779.7499804 246.82746445 -771.80126953 241.26269531 C-769.8828936 239.91790807 -767.9702769 238.56522044 -766.05859375 237.2109375 C-762.48199129 234.67805612 -758.89965119 232.15343287 -755.31542969 229.63134766 C-752.89801526 227.92814614 -750.48418647 226.21993343 -748.0703125 224.51171875 C-738.28175622 217.60103588 -728.40481729 210.88596254 -718.29150391 204.45996094 C-715.79651974 202.87035884 -713.3101954 201.26771183 -710.82421875 199.6640625 C-698.98300344 192.04700566 -686.9921428 184.73923143 -674.82714844 177.65185547 C-671.94363883 175.96706911 -669.06884063 174.2681532 -666.1953125 172.56640625 C-651.66644352 163.98656388 -636.92023826 155.87753056 -622 148 C-620.42605469 147.1656543 -620.42605469 147.1656543 -618.8203125 146.31445312 C-542.68067724 106.03564608 -462.9742994 74.0908549 -120 3 C-119.33367554 2.95014954 -118.66735107 2.90029907 -117.98083496 2.84893799 C-78.7129099 -0.0564084 -39.35835825 -0.33778572 0 0 Z M-129 5 C-130.15058899 5.10652893 -131.30117798 5.21305786 -132.4866333 5.32281494 C-156.90531142 7.59741051 -181.25099483 10.03618622 -205.44458008 14.09838867 C-210.80207875 14.99054931 -216.17328085 15.70516149 -221.5625 16.375 C-234.16982012 18.01947797 -246.63296959 20.45101938 -259.11012268 22.86669922 C-263.28039867 23.67346562 -267.45427465 24.45601112 -271.6328125 25.21875 C-287.65296499 28.1687175 -303.46160025 31.8485826 -319.29627991 35.64784241 C-324.53705889 36.90089641 -329.79288339 38.06349818 -335.0625 39.1875 C-341.2480587 40.52489848 -347.29525823 42.17578461 -353.34814453 44.01123047 C-358.11160471 45.45559245 -362.89298126 46.79663194 -367.7019043 48.08154297 C-381.24758297 51.70097732 -394.62814331 55.78812675 -408 60 C-409.17111328 60.36577148 -410.34222656 60.73154297 -411.54882812 61.10839844 C-488.60766962 85.22303859 -563.97805635 117.36613532 -634.55810547 156.64453125 C-636.83643266 157.90920557 -639.12156178 159.1602777 -641.41015625 160.40625 C-654.02172264 167.29809926 -666.36682497 174.64289835 -678.69580078 182.02441406 C-681.68726185 183.81301337 -684.6847889 185.59094374 -687.68359375 187.3671875 C-710.41292761 200.92300127 -732.2323083 215.96427889 -754 231 C-754.82927002 231.57177979 -755.65854004 232.14355957 -756.51293945 232.73266602 C-767.83813299 240.56564112 -778.7869689 248.85848269 -789.70605469 257.24511719 C-792.59912596 259.45833519 -795.51506929 261.63821155 -798.4375 263.8125 C-813.4859686 275.07224525 -828.11549925 286.924299 -842.41601562 299.1171875 C-845.75792088 301.96384154 -849.14417724 304.74580852 -852.5625 307.5 C-857.63751471 311.62807319 -862.44015416 316.00345591 -867.234375 320.44921875 C-869.44055947 322.48401883 -871.66632261 324.47646238 -873.9375 326.4375 C-878.48028929 330.38206189 -882.88899336 334.47054919 -887.29736328 338.5637207 C-889.66499767 340.76188223 -892.0351619 342.95725598 -894.40722656 345.15063477 C-902.98888304 353.1038874 -911.43021165 361.18616478 -919.72924805 369.43408203 C-921.05006221 370.74320466 -922.37537237 372.04780461 -923.70483398 373.34814453 C-925.67121396 375.27181343 -927.62395865 377.2084435 -929.57421875 379.1484375 C-930.45698738 380.004944 -930.45698738 380.004944 -931.35758972 380.87875366 C-937.39393768 386.94709941 -941.09591122 393.83644884 -941.3125 402.5 C-941.05859128 413.6853471 -937.58079864 419.82003978 -929.94140625 427.734375 C-929.23770401 428.47235825 -928.53400177 429.21034149 -927.80897522 429.97068787 C-919.65977217 438.47455256 -911.30282132 446.772212 -902.9375 455.0625 C-899.88110867 458.09204443 -896.82825386 461.12509316 -893.77734375 464.16015625 C-893.09808334 464.83111832 -892.41882294 465.50208038 -891.71897888 466.19337463 C-888.55015298 469.34606105 -885.49114254 472.5372255 -882.57446289 475.92553711 C-878.61129315 480.51726463 -874.34084096 484.76664388 -870.03125 489.03125 C-869.1921106 489.86660278 -868.35297119 490.70195557 -867.48840332 491.56262207 C-864.828031 494.21087086 -862.16443987 496.85584406 -859.5 499.5 C-855.98662727 502.98662601 -852.47668029 506.47664926 -848.96875 509.96875 C-848.17376099 510.75544067 -847.37877197 511.54213135 -846.55969238 512.35266113 C-842.42482611 516.46950098 -838.47422909 520.66982537 -834.66796875 525.09158325 C-830.09725477 530.32119389 -825.13856823 535.20746032 -820.25878906 540.14624023 C-818.92042 541.50624312 -817.58835224 542.87247613 -816.26269531 544.24487305 C-804.3191605 556.66203479 -804.3191605 556.66203479 -788.43359375 562.62890625 C-787.44488281 562.60699219 -786.45617187 562.58507812 -785.4375 562.5625 C-784.44621094 562.56378906 -783.45492187 562.56507813 -782.43359375 562.56640625 C-772.20932609 560.8798092 -766.33318425 556.13047577 -759.375 548.6875 C-757.7810716 547.02241409 -756.18474534 545.35962 -754.5859375 543.69921875 C-753.81540039 542.89597168 -753.04486328 542.09272461 -752.25097656 541.26513672 C-749.59066525 538.58809026 -746.78820957 536.13677735 -743.92041016 533.68676758 C-740.61895174 530.78697401 -737.57516464 527.63577681 -734.5 524.5 C-730.12562018 520.08321302 -725.76122535 515.73918373 -721.0078125 511.7265625 C-718.86997905 509.8881921 -716.80263406 507.98130672 -714.73657227 506.06298828 C-709.52785873 501.22779163 -704.19154607 496.6419761 -698.65234375 492.18359375 C-696.00732363 490.00602932 -693.46787475 487.74681237 -690.9375 485.4375 C-687.03720359 481.89122111 -683.03076137 478.55430259 -678.890625 475.29296875 C-675.97222702 472.97796927 -673.08818437 470.62500662 -670.20629883 468.26489258 C-663.50301988 462.78196424 -656.73935992 457.4210172 -649.75830078 452.29296875 C-647.67754272 450.76288063 -645.60253531 449.22512887 -643.52734375 447.6875 C-641.89343272 446.47889143 -640.25931762 445.27055871 -638.625 444.0625 C-637.51161255 443.23890991 -637.51161255 443.23890991 -636.37573242 442.39868164 C-624.09844563 433.35052557 -611.6367488 424.6312543 -598.9375 416.1875 C-598.21766937 415.70822052 -597.49783875 415.22894104 -596.75619507 414.73513794 C-584.98736268 406.90589093 -573.12700914 399.26565817 -561 392 C-560.12939941 391.47680176 -559.25879883 390.95360352 -558.36181641 390.41455078 C-536.94732466 377.57355187 -515.24252141 365.34778493 -493 354 C-491.62598726 353.29424128 -490.25213509 352.58816989 -488.87841797 351.88183594 C-441.21496309 327.40721222 -391.71145753 306.96693011 -340.60235596 290.8253479 C-338.71503673 290.22677684 -336.82928861 289.62324473 -334.94451904 289.01669312 C-316.45766116 283.07208465 -297.88138442 277.95620756 -279.03112793 273.3147583 C-276.32221302 272.64489651 -273.6159938 271.96448383 -270.90966892 271.2842474 C-247.80361791 265.48330835 -224.56860363 260.24394069 -201.0625 256.3125 C-199.86399414 256.10955322 -198.66548828 255.90660645 -197.43066406 255.69750977 C-186.64775413 253.89628348 -175.84716597 252.35505722 -165 251 C-163.74638672 250.84144531 -162.49277344 250.68289063 -161.20117188 250.51953125 C-140.18973322 247.86706477 -119.1885732 245.28905739 -98.01502991 244.40396118 C-93.37586532 244.20115132 -88.75511363 243.91525268 -84.12817383 243.52026367 C-67.18224659 242.0778794 -50.37597846 241.71673813 -33.375 241.8125 C-31.37308356 241.81966644 -29.37116708 241.82683024 -27.36924934 241.83362389 C-19.24589927 241.86260422 -11.12303767 241.92498474 -3 242 C-2.09797852 242.0073114 -1.19595703 242.0146228 -0.26660156 242.02215576 C51.03483573 242.45251093 102.47910577 248.36692674 152.95947266 257.29003906 C156.70265761 257.95101307 160.45026971 258.58341532 164.19921875 259.2109375 C183.28516744 262.44987215 202.14229404 266.64967346 221 271 C221.74788788 271.17190857 222.49577576 271.34381714 223.2663269 271.52093506 C231.12935867 273.33179732 238.96421748 275.15047109 246.6875 277.5 C248.11314447 277.92884041 249.53892769 278.35721976 250.96484375 278.78515625 C251.64788574 278.99156738 252.33092773 279.19797852 253.03466797 279.41064453 C255.93225876 280.27956182 258.8404476 281.10963444 261.75 281.9375 C262.81468506 282.24155762 263.87937012 282.54561523 264.97631836 282.85888672 C267.84419083 283.67554999 270.71607682 284.47656064 273.58984375 285.2722168 C285.96786186 288.72241937 298.13142275 292.60665937 310.25 296.875 C311.16087372 297.19436523 312.07174744 297.51373047 313.01022339 297.84277344 C354.26675616 312.33459313 394.4505583 329.01655131 433.66601562 348.35644531 C436.88236705 349.94201047 440.10478733 351.51463607 443.328125 353.0859375 C456.15041087 359.37398649 468.63853781 366.13003956 481.00341797 373.27294922 C484.1218769 375.07024256 487.24956083 376.8506433 490.37890625 378.62890625 C509.70129159 389.64305555 528.70794938 401.17734148 547.09375 413.70166016 C549.22579002 415.15378475 551.3630413 416.59809327 553.5 418.04296875 C583.77398117 438.57195978 613.1133129 460.6593388 640.81079102 484.56274414 C644.30166278 487.56902433 647.83849279 490.49793331 651.4375 493.375 C656.69337381 497.63567877 661.61506503 502.21315379 666.52319336 506.86474609 C670.27467786 510.41739226 674.10229313 513.85526323 678.00170898 517.24462891 C681.29422904 520.13689759 684.49458936 523.12360962 687.6875 526.125 C688.76294067 527.13022705 688.76294067 527.13022705 689.86010742 528.15576172 C694.12661348 532.17691978 698.27745978 536.28369219 702.3515625 540.5 C703.25946533 541.43312012 704.16736816 542.36624023 705.1027832 543.32763672 C706.86243159 545.14420138 708.60921885 546.97334593 710.34057617 548.81689453 C717.3323316 556.01761472 725.25303822 562.09174876 735.625 562.5625 C752.0041856 561.50197719 761.35792815 551.34882358 772 540 C773.04763797 538.79235354 774.09026863 537.58035058 775.12866211 536.36474609 C779.27363978 531.61270752 783.70765512 527.18433507 788.1875 522.75 C789.04883545 521.89245117 789.9101709 521.03490234 790.79760742 520.15136719 C794.45013983 516.51505061 798.10863635 512.88475629 801.76660156 509.25390625 C804.45065156 506.58802403 807.13163241 503.9190819 809.8125 501.25 C810.62936279 500.44143555 811.44622559 499.63287109 812.2878418 498.79980469 C815.81113833 495.29147295 819.25628708 491.7697835 822.5 488 C826.50022762 483.35100902 830.83063451 479.062605 835.1875 474.75 C836.04883545 473.89245117 836.9101709 473.03490234 837.79760742 472.15136719 C841.45013983 468.51505061 845.10863635 464.88475629 848.76660156 461.25390625 C851.45065156 458.58802403 854.13163241 455.9190819 856.8125 453.25 C857.62936279 452.44143555 858.44622559 451.63287109 859.2878418 450.79980469 C863.51344789 446.59214637 867.57727 442.31747657 871.43965149 437.77270508 C874.71854571 434.04756778 878.39434798 430.68000126 882.01367188 427.2890625 C888.90584635 420.60115664 892.1200279 413.57740688 892.375 403.9375 C892.42398437 402.68839844 892.47296875 401.43929688 892.5234375 400.15234375 C891.90167097 390.36057485 884.92670096 383.21491173 878.26171875 376.73828125 C877.42212112 375.90338669 876.5825235 375.06849213 875.71748352 374.20829773 C873.05237645 371.56437753 870.37013135 368.9386244 867.6875 366.3125 C865.89799027 364.53951929 864.10956843 362.76543982 862.32226562 360.99023438 C852.24343382 351.00538167 852.24343382 351.00538167 841.72346497 341.49259949 C839.69237819 339.73358545 837.7280766 337.91411239 835.78125 336.0625 C835.07613281 335.39476562 834.37101562 334.72703125 833.64453125 334.0390625 C832.21484375 332.6796875 830.78515625 331.3203125 829.35546875 329.9609375 C824.66774817 325.52174324 819.89157313 321.21327164 815 317 C814.42910645 316.50693359 813.85821289 316.01386719 813.27001953 315.50585938 C809.78884876 312.50587608 806.29400388 309.52181477 802.79931641 306.53759766 C801.6391774 305.54620614 800.47992905 304.55377096 799.32177734 303.56005859 C792.83344349 297.99332979 786.25843507 292.57889548 779.50732422 287.33349609 C774.80315217 283.66638309 770.20997358 279.87706901 765.625 276.0625 C758.29521677 269.98621355 750.78922991 264.20441959 743.12158203 258.5625 C740.86684595 256.90193488 738.61869579 255.23270645 736.37109375 253.5625 C726.69963012 246.38887253 716.93457468 239.36523972 707.07080078 232.45898438 C705.01583823 231.01115884 702.97324732 229.54742101 700.93359375 228.078125 C691.34846027 221.19441211 681.5169871 214.78658125 671.53125 208.5 C667.1913868 205.7657051 662.89259265 202.9756387 658.60864258 200.15478516 C637.31997901 186.1541132 615.19947794 173.48847036 593 161 C591.6402002 160.23405518 591.6402002 160.23405518 590.25292969 159.45263672 C519.23758154 119.63438831 444.37010895 88.11347237 367 63 C366.19832397 62.73964966 365.39664795 62.47929932 364.57067871 62.21105957 C345.04736398 55.87935741 325.51965255 49.83011079 305.64257812 44.6953125 C302.5968669 43.89392802 299.57301421 43.02932068 296.54833984 42.15258789 C271.09946042 34.82124801 245.06930319 29.62894323 219.05761719 24.76416016 C215.49517545 24.09650193 211.93848319 23.40213485 208.3828125 22.69921875 C154.14129007 12.09927054 98.91056478 5.98074102 43.74826431 3.14289284 C41.2141476 3.01113436 38.68040225 2.87368401 36.14663696 2.73536682 C23.52749246 2.06785438 10.94006125 1.82415421 -1.6953125 1.796875 C-3.72350589 1.78981068 -5.75169904 1.782678 -7.77989197 1.77548218 C-14.22826502 1.75595211 -20.67660014 1.75078993 -27.125 1.75 C-28.7742856 1.74955814 -28.7742856 1.74955814 -30.45689011 1.74910736 C-63.3983754 1.74768141 -96.1766928 1.92053855 -129 5 Z " fill="#0F0F0F" transform="translate(1024,270)"/>
<path d="M0 0 C5.55595985 -0.19158482 10.91228882 0.10131403 16.4375 0.75 C17.63246094 0.88921875 18.82742188 1.0284375 20.05859375 1.171875 C23 2 23 2 24.08691406 3.56274414 C25.34042258 6.90867343 25.94206445 10.31749323 26.55078125 13.82421875 C26.68996979 14.59519394 26.82915833 15.36616913 26.9725647 16.1605072 C27.42455838 18.66857762 27.86845841 21.17801074 28.3125 23.6875 C28.93162681 27.13731169 29.55526792 30.58629906 30.1796875 34.03515625 C30.33386642 34.88934143 30.48804535 35.74352661 30.64689636 36.62359619 C32.16655228 45.00343462 33.83484291 53.34983124 35.57739258 61.6862793 C35.86199341 63.06746948 35.86199341 63.06746948 36.15234375 64.4765625 C36.31726318 65.26111816 36.48218262 66.04567383 36.65209961 66.85400391 C37 69 37 69 37 73 C37.66 73 38.32 73 39 73 C39.226875 72.22011719 39.45375 71.44023437 39.6875 70.63671875 C41.42306418 65.82775968 43.69039522 61.36822618 46 56.8125 C46.48766846 55.8436084 46.97533691 54.8747168 47.4777832 53.87646484 C51.04700288 46.81186744 54.70806073 39.79843297 58.41748047 32.80664062 C62.40977861 25.2693877 66.22379569 17.64734112 70 10 C77.82752345 10.46621613 85.34972597 11.27264405 93 13 C92.41471251 23.8453424 91.06510691 34.47346921 89.49609375 45.2109375 C89.25046813 46.91722504 89.00528268 48.62357599 88.76051331 50.32998657 C88.12209266 54.77248967 87.47778611 59.21411873 86.83215332 63.65557861 C86.17158023 68.20736241 85.51671076 72.7599665 84.86132812 77.3125 C83.57972758 86.20913471 82.2918932 95.10485449 81 104 C79.0061849 103.74988302 77.01236979 103.49976603 75.01855469 103.24964905 C71.96851752 102.87242921 68.91435813 102.53750792 65.859375 102.20336914 C64.93898438 102.10270142 64.93898438 102.10270142 64 102 C64.56878529 92.37766468 65.57206619 82.91780879 66.9375 73.375 C67.19176758 71.54582031 67.19176758 71.54582031 67.45117188 69.6796875 C68.51630248 62.09822554 69.70963283 54.54609445 71 47 C71.33409136 45.00012649 71.66762015 43.00015868 72 41 C71.34 41 70.68 41 70 41 C69.7628125 41.80050781 69.525625 42.60101563 69.28125 43.42578125 C67.68734312 47.87219832 65.6363975 51.9804969 63.5 56.1875 C63.06075195 57.05882568 62.62150391 57.93015137 62.16894531 58.82788086 C57.90630688 67.25076338 53.5301697 75.61212977 49.08691406 83.94091797 C48.09675772 85.81669933 47.13274114 87.70283089 46.1796875 89.59765625 C45.41011719 91.09619141 45.41011719 91.09619141 44.625 92.625 C44.20476562 93.46289062 43.78453125 94.30078125 43.3515625 95.1640625 C42 97 42 97 40.30615234 97.67333984 C37.27695226 98.10241773 34.75294753 97.61739248 31.75 97.0625 C30.67234375 96.86785156 29.5946875 96.67320312 28.484375 96.47265625 C27.66453125 96.31667969 26.8446875 96.16070312 26 96 C25.87995605 95.39454346 25.75991211 94.78908691 25.63623047 94.1652832 C25.05035119 91.21411613 24.462863 88.26327258 23.875 85.3125 C23.54483887 83.65347656 23.54483887 83.65347656 23.20800781 81.9609375 C21.95701436 75.70073596 20.68172904 69.44638245 19.3671875 63.19921875 C19.09793457 61.9155542 18.82868164 60.63188965 18.55126953 59.30932617 C18.02720068 56.81784347 17.4996719 54.3270854 16.96826172 51.8371582 C15.64906544 45.55759084 14.57366941 39.3923163 14 33 C13.34 33 12.68 33 12 33 C11.96261719 33.68827881 11.92523437 34.37655762 11.88671875 35.08569336 C11.24038984 45.03488144 9.85280309 54.84443201 8.41601562 64.70532227 C7.99637941 67.58736606 7.58365275 70.47033955 7.171875 73.35351562 C6.90664909 75.19537001 6.64103826 77.03716902 6.375 78.87890625 C6.1905835 80.16481407 6.1905835 80.16481407 6.00244141 81.47669983 C5.88562012 82.2753093 5.76879883 83.07391876 5.6484375 83.89672852 C5.54708496 84.59476089 5.44573242 85.29279327 5.34130859 86.01197815 C4.99520092 88.02795323 4.49609926 90.01560297 4 92 C-1.61 91.67 -7.22 91.34 -13 91 C-10.02193012 67.75318016 -6.98938809 44.51582862 -3.6875 21.3125 C-3.55889587 20.40228088 -3.43029175 19.49206177 -3.29779053 18.55426025 C-2.93481475 15.99012852 -2.56781184 13.42661081 -2.19921875 10.86328125 C-2.09217117 10.10601242 -1.9851236 9.34874359 -1.87483215 8.56852722 C-1.44208913 5.5927143 -0.9534096 2.86022879 0 0 Z " fill="#FAFAFA" transform="translate(1130,352)"/>
<path d="M0 0 C0.57391423 4.18033939 1.1434389 8.3612468 1.70898438 12.54272461 C1.90180218 13.96378538 2.09579789 15.38468685 2.29101562 16.80541992 C2.57214628 18.85294038 2.84897213 20.90100491 3.125 22.94921875 C3.29257812 24.17987061 3.46015625 25.41052246 3.6328125 26.6784668 C3.94407071 29.49407052 4.07508639 32.17252813 4 35 C4.66 34.29875 5.32 33.5975 6 32.875 C13.37200921 25.50299079 19.32301849 22.65464509 29.73388672 22.6171875 C36.99491487 22.77414735 42.56278035 24.56278035 47.796875 29.796875 C57.47422266 41.77379041 59.49521181 57.07031004 58 72 C56.26458063 79.75022515 52.2823861 85.83440877 45.91796875 90.5390625 C38.71219266 94.81711862 31.18982975 95.16736994 23 94 C19.88632168 92.74344139 17.54308653 91.16293442 15 89 C14.01 88.34 13.02 87.68 12 87 C12.33 89.97 12.66 92.94 13 96 C11.10507994 96.33848652 9.20901534 96.67056911 7.3125 97 C6.25675781 97.185625 5.20101562 97.37125 4.11328125 97.5625 C1.35095938 97.95068074 -1.21742043 98.08259976 -4 98 C-6.54118093 86.12190431 -8.08819201 74.14101998 -9.55371094 62.09350586 C-10.51587045 54.16379302 -10.51587045 54.16379302 -11.95703125 46.3125 C-13.73831039 37.93501653 -14.56542817 29.36688637 -15.625 20.875 C-15.85644091 19.04162499 -16.08820894 17.20829124 -16.3203125 15.375 C-16.88398387 10.91713383 -17.44321537 6.45873133 -18 2 C-15.93827387 1.66191314 -13.8755797 1.32972639 -11.8125 1 C-10.66394531 0.814375 -9.51539063 0.62875 -8.33203125 0.4375 C-5.49584607 0.06510523 -2.85280436 -0.08596021 0 0 Z " fill="#FBFBFB" transform="translate(806,356)"/>
<path d="M0 0 C1.53881836 1.56274414 1.53881836 1.56274414 2.83984375 3.78515625 C3.33806641 4.61402344 3.83628906 5.44289063 4.34960938 6.296875 C4.87361328 7.20953125 5.39761719 8.1221875 5.9375 9.0625 C6.49888672 10.00480469 7.06027344 10.94710938 7.63867188 11.91796875 C8.83227183 13.92184198 10.01876804 15.92996077 11.19873047 17.94189453 C14.0769811 22.82844474 17.04294997 27.66089062 20 32.5 C21.17208707 34.42825653 22.34396218 36.35664191 23.515625 38.28515625 C26.90352352 43.85058395 30.31987581 49.39801446 33.75 54.9375 C34.28069092 55.79512939 34.81138184 56.65275879 35.3581543 57.53637695 C37.89866389 61.63512876 40.45312279 65.7241397 43.03515625 69.796875 C43.74043457 70.91267944 43.74043457 70.91267944 44.45996094 72.05102539 C45.33812098 73.43816953 46.22007009 74.82292484 47.10644531 76.20483398 C50 80.77779226 50 80.77779226 50 83 C47.77228658 83.50643553 45.54275924 84.0048962 43.3125 84.5 C42.07113281 84.7784375 40.82976562 85.056875 39.55078125 85.34375 C38.37902344 85.5603125 37.20726562 85.776875 36 86 C35.13375 86.19335938 34.2675 86.38671875 33.375 86.5859375 C29.8281618 85.71089518 28.85376071 83.43797681 27.00585938 80.41015625 C26.57080078 79.65605469 26.13574219 78.90195312 25.6875 78.125 C25.23310547 77.37863281 24.77871094 76.63226563 24.31054688 75.86328125 C21 70.33740602 21 70.33740602 21 68 C19.73027344 68.25394531 18.46054687 68.50789063 17.15234375 68.76953125 C6.76822917 70.84635417 -3.61588542 72.92317708 -14 75 C-14.66 82.26 -15.32 89.52 -16 97 C-19.8671875 97.99 -19.8671875 97.99 -23.8125 99 C-25.02450073 99.31324219 -25.02450073 99.31324219 -26.26098633 99.6328125 C-29.24858939 100.38842758 -31.90670398 101 -35 101 C-34.93530518 100.45327637 -34.87061035 99.90655273 -34.80395508 99.34326172 C-32.94294683 83.55104924 -31.20606646 67.74707042 -29.5 51.9375 C-27.77383149 35.94423101 -25.99129777 19.96276102 -24 4 C-20.93929066 3.32492934 -17.8761791 2.66145078 -14.8125 2 C-13.94818359 1.80921875 -13.08386719 1.6184375 -12.19335938 1.421875 C-11.35224609 1.24140625 -10.51113281 1.0609375 -9.64453125 0.875 C-8.87471924 0.70742188 -8.10490723 0.53984375 -7.31176758 0.3671875 C-4.7442394 -0.0406235 -2.59025109 -0.31603289 0 0 Z " fill="#FAFAFA" transform="translate(744,373)"/>
<path d="M0 0 C7.70641531 6.79109395 11.42545559 16.85435114 12.3125 26.890625 C12.61837822 37.14931006 10.68242485 46.33712505 4.4765625 54.734375 C-0.87570405 60.35285376 -9.96245391 64.5770852 -17.65625 65 C-30.3725832 65.23183441 -38.26377242 64.35861909 -47.796875 55.1796875 C-55.34470188 46.86890339 -57.61827691 34.72187359 -57.31640625 23.75390625 C-56.11643547 13.77173176 -51.50365743 5.42144874 -43.74609375 -0.88671875 C-30.6511758 -10.54314621 -12.86652524 -9.18388021 0 0 Z " fill="#FAFAFA" transform="translate(930.9609375,377.203125)"/>
<path d="M0 0 C5.05471933 3.81699185 9.81398411 8.56993347 11 15 C11.7973117 24.12352384 10.68370691 32.27795255 8 41 C1.12350685 40.18448617 -5.565441 38.59408607 -12.3125 37.0625 C-20.19178014 35.28218986 -28.06842931 33.53320246 -36 32 C-36.41998185 39.95487995 -36.41998185 39.95487995 -33 47 C-28.01083296 50.92530054 -22.7668211 51.60790026 -16.55078125 51.41015625 C-12.86036518 50.81675091 -10.94890509 49.22965995 -8 47 C-4.14657582 47.25424654 -2.32345578 49.36037143 0.25 52.0625 C1.30960938 53.16271484 1.30960938 53.16271484 2.390625 54.28515625 C2.92171875 54.85105469 3.4528125 55.41695313 4 56 C-0.24372321 62.14132302 -4.67544665 65.35729015 -12 67 C-23.45337511 68.34596204 -33.23003696 66.53800532 -42.85546875 60.0859375 C-50.20507952 54.11505726 -54.23574258 47.20397196 -55.3984375 37.765625 C-55.8095311 24.54738469 -52.29459492 12.45134701 -43.25 2.6875 C-31.38749919 -8.29792127 -13.66768158 -7.84801689 0 0 Z " fill="#FAFAFA" transform="translate(1286,402)"/>
<path d="M0 0 C5.61 0 11.22 0 17 0 C17 22.77 17 45.54 17 69 C11.72 69 6.44 69 1 69 C1 65.7 1 62.4 1 59 C0.29875 59.721875 -0.4025 60.44375 -1.125 61.1875 C-7.07411111 67.10300031 -12.05315613 71.27805959 -20.8125 71.3125 C-27.63333605 71.17842951 -32.41759102 70.12331405 -37.8125 65.6875 C-42.60043206 59.80518347 -44.13203644 54.21068391 -44.11352539 46.75073242 C-44.11341209 45.21971138 -44.11341209 45.21971138 -44.11329651 43.65776062 C-44.10813522 42.5680043 -44.10297394 41.47824799 -44.09765625 40.35546875 C-44.0962413 39.2305452 -44.09482635 38.10562164 -44.09336853 36.9466095 C-44.08777931 33.36021241 -44.07522872 29.77387816 -44.0625 26.1875 C-44.05748361 23.75325611 -44.05292094 21.31901124 -44.04882812 18.88476562 C-44.03781339 12.92315294 -44.02055611 6.96158712 -44 1 C-38.39 1 -32.78 1 -27 1 C-26.98018066 2.39758545 -26.96036133 3.7951709 -26.93994141 5.23510742 C-26.86380868 10.4255561 -26.7751027 15.61572726 -26.68261719 20.8059082 C-26.64435921 23.05129513 -26.60950079 25.29674269 -26.578125 27.54223633 C-26.53240583 30.77186737 -26.47442193 34.00108222 -26.4140625 37.23046875 C-26.40251129 38.23272995 -26.39096008 39.23499115 -26.37905884 40.2676239 C-26.35918915 41.20822159 -26.33931946 42.14881927 -26.31884766 43.11791992 C-26.30552399 43.94176682 -26.29220032 44.76561371 -26.2784729 45.61442566 C-25.95339935 48.39921056 -25.26010041 50.49628367 -24 53 C-19.731164 55.84589067 -16.00842212 55.49928196 -11 55 C-7.27341124 53.71263297 -5.57022052 52.74718551 -3.1875 49.625 C-0.65939435 44.03655594 -0.79644481 38.35347124 -0.68359375 32.32421875 C-0.66281265 31.3990596 -0.64203156 30.47390045 -0.62062073 29.52070618 C-0.5554344 26.57637693 -0.49638442 23.63196135 -0.4375 20.6875 C-0.39428536 18.68684017 -0.35067014 16.68618894 -0.30664062 14.68554688 C-0.1997848 9.79045221 -0.09843081 4.89527103 0 0 Z " fill="#FDFDFD" transform="translate(1001,368)"/>
<path d="M0 0 C1.876875 0.020625 3.75375 0.04125 5.6875 0.0625 C5.6875 5.3425 5.6875 10.6225 5.6875 16.0625 C11.9575 16.0625 18.2275 16.0625 24.6875 16.0625 C24.6875 20.6825 24.6875 25.3025 24.6875 30.0625 C18.0875 30.0625 11.4875 30.0625 4.6875 30.0625 C4.61857877 35.11672374 4.55886246 40.16931333 4.52270508 45.22363281 C4.50763067 46.94243905 4.48716771 48.66120691 4.46118164 50.37988281 C4.42473835 52.85230997 4.40776042 55.324228 4.39453125 57.796875 C4.37904739 58.56368591 4.36356354 59.33049683 4.34761047 60.12054443 C4.3465839 63.38448966 4.46985227 65.67203575 6.07543945 68.55249023 C7.58576342 70.2314427 7.58576342 70.2314427 9.7734375 70.48828125 C10.52882813 70.45089844 11.28421875 70.41351563 12.0625 70.375 C12.81273437 70.35050781 13.56296875 70.32601562 14.3359375 70.30078125 C16.83297862 70.04775881 19.23608012 69.59522906 21.6875 69.0625 C22.19442692 70.6436292 22.69276443 72.22751383 23.1875 73.8125 C23.4659375 74.69421875 23.744375 75.5759375 24.03125 76.484375 C24.6875 79.0625 24.6875 79.0625 24.6875 83.0625 C19.57959234 86.13866803 15.60011861 86.55314174 9.8125 86.5 C9.04808594 86.51998047 8.28367187 86.53996094 7.49609375 86.56054688 C0.75889836 86.55482769 -4.09113449 84.96255173 -9.12866211 80.42749023 C-15.18772471 73.14857803 -14.0062426 63.96581431 -13.75 55.0625 C-13.72843146 53.44534612 -13.70953154 51.82815435 -13.69335938 50.2109375 C-13.59477471 42.78365476 -13.3439941 35.42787935 -12.3125 28.0625 C-15.6125 28.0625 -18.9125 28.0625 -22.3125 28.0625 C-22.3125 23.7725 -22.3125 19.4825 -22.3125 15.0625 C-18.6825 15.0625 -15.0525 15.0625 -11.3125 15.0625 C-11.3125 10.4425 -11.3125 5.8225 -11.3125 1.0625 C-7.25072627 0.25014525 -4.07899908 -0.04482417 0 0 Z " fill="#FBFBFB" transform="translate(1053.3125,353.9375)"/>
<path d="M0 0 C4.88419988 2.3516518 7.44460555 5.25426745 10 10 C12.65699518 17.70528601 13.79196693 26.86877385 10.375 34.5 C8.11792478 38.22301067 6.10052326 40.27346389 2 42 C-3.59337242 42.74815809 -9.88433724 43.53468631 -14.625 39.9375 C-20.96998065 32.08976077 -21.91250428 22.77140001 -21 13 C-19.39349719 7.59551501 -16.744803 4.12158092 -12 1 C-8.285392 -0.857304 -4.05406882 -0.44282906 0 0 Z " fill="#040404" transform="translate(913,385)"/>
<path d="M0 0 C7.07424139 6.25165518 8.1711252 13.06073273 8.91015625 22.09765625 C9.14921285 28.98872264 7.76749877 32.92166811 3.25 38.25 C-0.58850372 41.19605161 -4.7161906 41.13852525 -9.40234375 40.90625 C-14.09803966 40.04904914 -16.60229136 38.27045309 -19.3125 34.375 C-23.72848846 26.30758228 -24.84194745 17.11633378 -22.8046875 8.13671875 C-21.28207785 4.05017446 -18.91382899 1.71586384 -15.3125 -0.625 C-9.94299295 -2.41483568 -5.11514667 -2.50931724 0 0 Z " fill="#020202" transform="translate(837.3125,395.625)"/>
<path d="M0 0 C2.64135659 0.00754095 5.28271405 0.01478114 7.92407227 0.02172852 C22.05638407 0.072593 36.18604407 0.19953957 50.3125 0.625 C51.61203613 0.66407471 52.91157227 0.70314941 54.25048828 0.7434082 C59.08290514 0.91836002 63.6450661 1.1310926 68.375 2.1875 C68.375 2.5175 68.375 2.8475 68.375 3.1875 C66.63354958 3.17750725 66.63354958 3.17750725 64.85691833 3.16731262 C53.67260448 3.10529839 42.48832735 3.06097036 31.30387783 3.03206348 C25.56001315 3.01670074 19.81629187 2.99603494 14.07250977 2.96118164 C-17.28608037 2.77622407 -48.36457353 3.64343004 -79.625 6.1875 C-81.56842789 6.34480087 -81.56842789 6.34480087 -83.55111694 6.50527954 C-90.10830748 7.05354669 -96.64891652 7.70142115 -103.1875 8.4375 C-104.59385712 8.59190048 -104.59385712 8.59190048 -106.02862549 8.74942017 C-201.72831489 19.31033356 -295.83518571 43.3589309 -425.5090332 98.30688477 C-427.625 99.1875 -427.625 99.1875 -429.625 99.1875 C-429.625 98.5275 -429.625 97.8675 -429.625 97.1875 C-348.1285351 58.11061474 -260.34505383 31.03403252 -131.625 9.1875 C-130.37138672 9.02894531 -129.11777344 8.87039063 -127.82617188 8.70703125 C-106.81473322 6.05456477 -85.8135732 3.47655739 -64.64002991 2.59146118 C-60.00086532 2.38865132 -55.38011363 2.10275268 -50.75317383 1.70776367 C-33.80686567 0.26534698 -17.00122978 -0.09240905 0 0 Z " fill="#1F1F1F" transform="translate(990.625,510.8125)"/>
<path d="M0 0 C41.88160601 -0.52352749 83.24425564 0.25865039 125 4 C126.39490662 4.12308533 126.39490662 4.12308533 127.81799316 4.24865723 C139.57165558 5.29012099 151.29182531 6.53332247 163 8 C164.224841 8.15341858 164.224841 8.15341858 165.47442627 8.30993652 C236.08375945 17.22506001 305.79848614 31.64605969 374 52 C374.65387695 52.19446716 375.30775391 52.38893433 375.98144531 52.58929443 C399.01336005 59.44763872 421.69516479 67.29887316 444.33300781 75.35400391 C447.32821804 76.41775726 450.33062526 77.45152155 453.34667969 78.45458984 C454.00493744 78.67749191 454.66319519 78.90039398 455.34140015 79.13005066 C457.07703879 79.71647786 458.81645365 80.29169609 460.55615234 80.8659668 C461.36262207 81.24019775 462.1690918 81.61442871 463 82 C463.33 82.99 463.66 83.98 464 85 C456.12511952 82.78790486 448.52587967 80.00622495 440.875 77.125 C404.7844753 63.69023146 367.75961735 52.53569651 330.54248047 42.67675781 C327.96413173 41.99045258 325.39025765 41.28890233 322.81640625 40.5859375 C263.97061201 24.67587752 203.23938176 15.05341719 142.70043945 8.51489258 C139.66022693 8.18568666 136.6228677 7.83967536 133.58666992 7.4753418 C122.31717959 6.13690754 111.04155291 5.31334323 99.71508789 4.62231445 C96.7010306 4.43832595 93.68742311 4.24803834 90.67382812 4.05664062 C68.67614929 2.67253391 46.72621712 1.81290747 24.6875 1.4375 C22.27798969 1.3941629 19.86848442 1.35054468 17.45898438 1.30664062 C11.6393768 1.20119842 5.8197175 1.09917963 0 1 C0 0.67 0 0.34 0 0 Z " fill="#202020" transform="translate(992,271)"/>
<path d="M0 0 C3.86906751 1.28968917 4.230662 2.63648026 6.21484375 6.13671875 C6.81876953 7.18923828 7.42269531 8.24175781 8.04492188 9.32617188 C8.66947266 10.43541016 9.29402344 11.54464844 9.9375 12.6875 C11.17414194 14.8590073 12.41237751 17.02960796 13.65234375 19.19921875 C14.23097168 20.2154834 14.80959961 21.23174805 15.40576172 22.27880859 C16.6854815 24.46315111 18.00478075 26.56265784 19.44140625 28.64453125 C21 31 21 31 21 33 C18.12666819 33.67466072 15.25168518 34.3399234 12.375 35 C11.56675781 35.19078125 10.75851562 35.3815625 9.92578125 35.578125 C5.52795831 36.57925543 1.54438961 37.2353082 -3 37 C-3.13192569 29.83594657 -2.74960654 22.81683947 -2.0625 15.6875 C-1.97548828 14.72521484 -1.88847656 13.76292969 -1.79882812 12.77148438 C-1.39485461 8.44747155 -0.90557534 4.25208137 0 0 Z " fill="#050505" transform="translate(735,394)"/>
<path d="M0 0 C3.13810407 2.09206938 4.27102793 3.21462847 5.625 6.75 C5.85620475 10.09989986 5.80070724 13.39854715 5.625 16.75 C-4.10702452 14.64085937 -13.80759496 12.53171248 -23.375 9.75 C-21.54655145 4.74273494 -19.11636503 1.42653729 -14.484375 -1.40625 C-9.75909519 -3.29636192 -4.59317715 -1.70117672 0 0 Z " fill="#0A0A0A" transform="translate(1275.375,412.25)"/>
<path d="M0 0 C0 0.66 0 1.32 0 2 C-0.89267578 2.32572998 -1.78535156 2.65145996 -2.70507812 2.98706055 C-31.3137418 13.44386771 -59.55534177 24.58834654 -87.43481445 36.86328125 C-88.60359131 37.37632812 -89.77236816 37.889375 -90.9765625 38.41796875 C-91.99830566 38.86938232 -93.02004883 39.3207959 -94.07275391 39.78588867 C-97.01168382 41.00484601 -99.9702672 42.03153432 -103 43 C-103 42.34 -103 41.68 -103 41 C-17.49279954 0 -17.49279954 0 0 0 Z " fill="#161616" transform="translate(664,567)"/>
<path d="M0 0 C0.66 0.33 1.32 0.66 2 1 C1.43410156 1.55429687 0.86820313 2.10859375 0.28515625 2.6796875 C-0.81505859 3.76636719 -0.81505859 3.76636719 -1.9375 4.875 C-2.66839844 5.59429688 -3.39929687 6.31359375 -4.15234375 7.0546875 C-6.05667999 8.87027192 -6.05667999 8.87027192 -7 11 C-7.66 11 -8.32 11 -9 11 C-9.27302948 11.59703735 -9.54605896 12.19407471 -9.82736206 12.8092041 C-10.96614466 14.93674932 -12.07894297 16.3430991 -13.76220703 18.05273438 C-14.31683624 18.62012329 -14.87146545 19.18751221 -15.44290161 19.77209473 C-16.0418222 20.37324097 -16.6407428 20.97438721 -17.2578125 21.59375 C-17.87969452 22.22228882 -18.50157654 22.85082764 -19.14230347 23.49841309 C-20.45940831 24.82563129 -21.77923053 26.15015757 -23.1015625 27.47216797 C-25.10749638 29.48245837 -27.09690616 31.50815877 -29.0859375 33.53515625 C-30.37141112 34.82650181 -31.65783988 36.11689743 -32.9453125 37.40625 C-33.53208771 38.00739624 -34.11886292 38.60854248 -34.72341919 39.22790527 C-39.5605917 44.01318208 -44.93252366 48.21680845 -52 48.25 C-52.99 48.1675 -53.98 48.085 -55 48 C-55 47.67 -55 47.34 -55 47 C-54.3709375 46.85304688 -53.741875 46.70609375 -53.09375 46.5546875 C-39.68532804 43.04103476 -30.51833797 32.44331325 -21.71875 22.2109375 C-17.55818902 17.41367855 -13.07430631 12.96454323 -8.5625 8.5 C-7.73556641 7.67757812 -6.90863281 6.85515625 -6.05664062 6.0078125 C-4.04005041 4.00287887 -2.02114764 2.00033747 0 0 Z " fill="#171717" transform="translate(1820,784)"/>
<path d="M0 0 C0.33 0 0.66 0 1 0 C2.22501014 7.06963686 2.32359996 12.54634562 -1 19 C-7.28158626 27.71199873 -14.93354805 35.17969695 -22.5625 42.6875 C-23.67820732 43.79314274 -24.79344441 44.89926021 -25.90820312 46.00585938 C-28.60010179 48.67605391 -31.29820283 51.33982312 -34 54 C-34.66 53.67 -35.32 53.34 -36 53 C-35.43152344 52.443125 -34.86304688 51.88625 -34.27734375 51.3125 C-30.66546342 47.74282862 -27.0937623 44.19112031 -23.8125 40.3125 C-21.52706022 37.6227961 -19.12724511 35.12126394 -16.59375 32.66796875 C-15.97395264 32.0649292 -15.35415527 31.46188965 -14.71557617 30.84057617 C-13.47712101 29.64279381 -12.23025448 28.45362779 -10.97387695 27.2746582 C-4.54011986 21.04003909 -1.17580441 14.27762495 -0.4375 5.3125 C-0.35371094 4.31863281 -0.26992187 3.32476563 -0.18359375 2.30078125 C-0.09271484 1.16189453 -0.09271484 1.16189453 0 0 Z " fill="#1A1A1A" transform="translate(1916,670)"/>
<path d="M0 0 C0 3.73207885 -1.27931259 4.63904711 -3.81021118 7.20140076 C-4.36010712 7.74208694 -4.91000305 8.28277313 -5.4765625 8.83984375 C-6.32086319 9.6848922 -6.32086319 9.6848922 -7.18222046 10.54701233 C-8.37749526 11.7399441 -9.57647066 12.92917762 -10.77880859 14.11499023 C-12.60553982 15.91828945 -14.4187588 17.73435828 -16.23046875 19.55273438 C-17.39504599 20.71172917 -18.56038719 21.86995694 -19.7265625 23.02734375 C-20.53318832 23.83533669 -20.53318832 23.83533669 -21.35610962 24.65965271 C-30.18102726 33.32282947 -30.18102726 33.32282947 -36.375 33.75 C-37.57125 33.8325 -38.7675 33.915 -40 34 C-37 32 -37 32 -33.375 30.42578125 C-27.93251104 27.7356296 -24.1430418 23.5391079 -20 19.1875 C-15.06629297 14.08119742 -10.14240721 9.10009192 -4.7265625 4.5012207 C-3.07446638 3.06474742 -1.52821746 1.56659869 0 0 Z " fill="#171717" transform="translate(285,798)"/>
<path d="M0 0 C0 0.66 0 1.32 0 2 C-0.66418945 2.35715088 -1.32837891 2.71430176 -2.01269531 3.08227539 C-5.09296033 4.74020159 -8.1717699 6.40079856 -11.25 8.0625 C-12.89669678 8.95134888 -12.89669678 8.95134888 -14.57666016 9.8581543 C-21.14495209 13.41618215 -27.6431453 17.03926108 -34.0234375 20.92578125 C-36 22 -36 22 -38 22 C-38 21.34 -38 20.68 -38 20 C-32.46289062 16.92382812 -26.92578125 13.84765625 -21.38867188 10.77148438 C-20.79089935 10.43929901 -20.19312683 10.10711365 -19.57723999 9.76486206 C-18.38664953 9.10360314 -17.19575379 8.44289357 -16.00454712 7.78274536 C-13.3900047 6.33307763 -10.78101453 4.87530468 -8.18310547 3.39599609 C-7.3788916 2.93918457 -6.57467773 2.48237305 -5.74609375 2.01171875 C-5.06087646 1.61815186 -4.37565918 1.22458496 -3.66967773 0.8190918 C-2 0 -2 0 0 0 Z " fill="#0E0E0E" transform="translate(519,630)"/>
<path d="M0 0 C0 0.66 0 1.32 0 2 C-2.60258324 2.83857688 -5.20685647 3.67103344 -7.8125 4.5 C-8.91948242 4.85771484 -8.91948242 4.85771484 -10.04882812 5.22265625 C-13.13255196 6.19940136 -15.74495809 7 -19 7 C-19 6.34 -19 5.68 -19 5 C-16.58570231 4.15919981 -14.16896007 3.32718598 -11.75 2.5 C-10.72712891 2.14228516 -10.72712891 2.14228516 -9.68359375 1.77734375 C-6.23586997 0.60578713 -3.68297096 0 0 0 Z " fill="#232323" transform="translate(683,561)"/>
<path d="M0 0 C11.52164009 7.29840547 11.52164009 7.29840547 17 11 C16.67 11.66 16.34 12.32 16 13 C13.51408497 11.40554427 11.03652584 9.80021494 8.5625 8.1875 C7.85544922 7.73568359 7.14839844 7.28386719 6.41992188 6.81835938 C5.74638672 6.37685547 5.07285156 5.93535156 4.37890625 5.48046875 C3.7557251 5.07723389 3.13254395 4.67399902 2.49047852 4.25854492 C1 3 1 3 0 0 Z " fill="#080808" transform="translate(1702,481)"/>
<path d="M0 0 C0 0.66 0 1.32 0 2 C-2.26404542 3.36680153 -4.53501021 4.71844445 -6.8125 6.0625 C-7.45509766 6.45244141 -8.09769531 6.84238281 -8.75976562 7.24414062 C-10.4628915 8.24130759 -12.22945858 9.12812687 -14 10 C-14.99 9.67 -15.98 9.34 -17 9 C-13.94746898 6.59124922 -10.78648153 4.67456202 -7.375 2.8125 C-6.41335938 2.28269531 -5.45171875 1.75289062 -4.4609375 1.20703125 C-2 0 -2 0 0 0 Z " fill="#181818" transform="translate(519,630)"/>
<path d="M0 0 C2.31625061 1.11777771 4.62784605 2.24374092 6.9375 3.375 C7.59685547 3.69210937 8.25621094 4.00921875 8.93554688 4.3359375 C13.88671875 6.7734375 13.88671875 6.7734375 15 9 C10.99251347 8.41512359 8.14263232 7.15605425 4.6875 5.0625 C3.80449219 4.53785156 2.92148438 4.01320313 2.01171875 3.47265625 C1.34785156 2.98667969 0.68398437 2.50070312 0 2 C0 1.34 0 0.68 0 0 Z " fill="#0B0B0B" transform="translate(1609,425)"/>
<path d="M0 0 C1.79187629 0.81203758 3.58349451 1.62464468 5.375 2.4375 C6.37273437 2.88996094 7.37046875 3.34242188 8.3984375 3.80859375 C9.94307583 4.51597316 11.48044922 5.24022461 13 6 C12.67 6.66 12.34 7.32 12 8 C8.04 6.02 4.08 4.04 0 2 C0 1.34 0 0.68 0 0 Z " fill="#161616" transform="translate(1538,389)"/>
<path d="M0 0 C0.33 0.99 0.66 1.98 1 3 C-2.3 5.31 -5.6 7.62 -9 10 C-9 9.01 -9 8.02 -9 7 C-7.03125 5.17578125 -7.03125 5.17578125 -4.5 3.3125 C-3.6646875 2.68988281 -2.829375 2.06726563 -1.96875 1.42578125 C-1.3190625 0.95527344 -0.669375 0.48476563 0 0 Z " fill="#0B0B0B" transform="translate(255,509)"/>
<path d="M0 0 C-1.3418344 4.02550319 -3.4227573 4.88285636 -7 7 C-7.66 7 -8.32 7 -9 7 C-7.68534669 3.05604006 -4.38536841 0 0 0 Z " fill="#151515" transform="translate(421,689)"/>
<path d="M0 0 C4.455 2.97 4.455 2.97 9 6 C8.67 6.66 8.34 7.32 8 8 C6.6589523 7.24266726 5.32730219 6.46867264 4 5.6875 C2.88625 5.04361328 2.88625 5.04361328 1.75 4.38671875 C1.1725 3.92910156 0.595 3.47148437 0 3 C0 2.01 0 1.02 0 0 Z " fill="#171717" transform="translate(1693,475)"/>
<path d="M0 0 C-1.38009621 3.33523252 -2.84950652 5.18607951 -6 7 C-6.99 6.67 -7.98 6.34 -9 6 C-7.8803014 4.99406757 -6.7540588 3.9954151 -5.625 3 C-4.68527344 2.1646875 -4.68527344 2.1646875 -3.7265625 1.3125 C-2 0 -2 0 0 0 Z " fill="#131313" transform="translate(366,729)"/>
<path d="M0 0 C3.96 1.98 3.96 1.98 8 4 C8 4.99 8 5.98 8 7 C5.36 5.68 2.72 4.36 0 3 C0 2.01 0 1.02 0 0 Z " fill="#1D1D1D" transform="translate(1583,411)"/>
<path d="M0 0 C0 0.99 0 1.98 0 3 C-4.34285714 7 -4.34285714 7 -7 7 C-5.66667905 3.00003714 -3.5042173 2.16217663 0 0 Z " fill="#090909" transform="translate(394,707)"/>
<path d="M0 0 C2.64 1.98 5.28 3.96 8 6 C7.67 6.66 7.34 7.32 7 8 C5.82512964 7.24172908 4.66027408 6.46792245 3.5 5.6875 C2.52546875 5.04361328 2.52546875 5.04361328 1.53125 4.38671875 C1.0259375 3.92910156 0.520625 3.47148438 0 3 C0 2.01 0 1.02 0 0 Z " fill="#0A0A0A" transform="translate(1758,520)"/>
<path d="M0 0 C2.64 1.65 5.28 3.3 8 5 C7.67 5.66 7.34 6.32 7 7 C3.535 5.02 3.535 5.02 0 3 C0 2.01 0 1.02 0 0 Z " fill="#161616" transform="translate(1653,450)"/>
</svg>
