<svg xmlns="http://www.w3.org/2000/svg" viewBox="0 0 2000 2000">
<path d="M0 0 C1.46657043 -0.00472824 1.46657043 -0.00472824 2.96276855 -0.009552 C4.0262854 -0.00752777 5.08980225 -0.00550354 6.18554688 -0.00341797 C7.81127625 -0.00485306 7.81127625 -0.00485306 9.46984863 -0.00631714 C11.76652077 -0.00699912 14.06319482 -0.00514358 16.35986328 -0.00097656 C19.88904115 0.00437141 23.41809174 -0.00092097 26.94726562 -0.00732422 C29.17252632 -0.00666344 31.39778694 -0.00538228 33.62304688 -0.00341797 C34.68656372 -0.0054422 35.75008057 -0.00746643 36.8458252 -0.009552 C37.82353882 -0.00639984 38.80125244 -0.00324768 39.80859375 0 C40.67383667 0.00079559 41.53907959 0.00159119 42.43054199 0.00241089 C44.40429688 0.12939453 44.40429688 0.12939453 45.40429688 1.12939453 C47.83953049 1.66990477 50.26675748 2.16643105 52.71679688 2.62939453 C61.02874767 4.22693407 61.02874767 4.22693407 64.40429688 5.12939453 C64.40429688 5.78939453 64.40429688 6.44939453 64.40429688 7.12939453 C66.38429688 7.12939453 68.36429688 7.12939453 70.40429688 7.12939453 C70.40429688 7.78939453 70.40429688 8.44939453 70.40429688 9.12939453 C71.37367188 9.21189453 72.34304688 9.29439453 73.34179688 9.37939453 C80.65949737 10.4290041 87.14272342 14.39909545 93.40429688 18.12939453 C93.40429688 18.78939453 93.40429688 19.44939453 93.40429688 20.12939453 C94.72429687 20.12939453 96.04429687 20.12939453 97.40429688 20.12939453 C97.40429688 20.78939453 97.40429688 21.44939453 97.40429688 22.12939453 C97.93539063 22.21318359 98.46648437 22.29697266 99.01367188 22.38330078 C102.29757752 23.40817983 104.79838749 25.15950578 107.65429688 27.06689453 C108.73195313 27.77716797 109.80960938 28.48744141 110.91992188 29.21923828 C111.73976563 29.84958984 112.55960938 30.47994141 113.40429688 31.12939453 C113.40429688 31.78939453 113.40429688 32.44939453 113.40429688 33.12939453 C114.06429688 33.12939453 114.72429687 33.12939453 115.40429688 33.12939453 C115.40429688 33.78939453 115.40429688 34.44939453 115.40429688 35.12939453 C116.00242187 35.39751953 116.60054687 35.66564453 117.21679688 35.94189453 C119.40277541 37.12856859 120.81762281 38.22538566 122.40429688 40.12939453 C122.40429688 40.78939453 122.40429688 41.44939453 122.40429688 42.12939453 C123.00242187 42.23251953 123.60054687 42.33564453 124.21679688 42.44189453 C126.71687973 43.22763486 127.7796477 44.09858306 129.40429688 46.12939453 C129.40429688 46.78939453 129.40429688 47.44939453 129.40429688 48.12939453 C130.06429688 48.12939453 130.72429687 48.12939453 131.40429688 48.12939453 C131.40429688 48.78939453 131.40429688 49.44939453 131.40429688 50.12939453 C132.06429688 50.12939453 132.72429687 50.12939453 133.40429688 50.12939453 C133.40429688 51.11939453 133.40429688 52.10939453 133.40429688 53.12939453 C134.06429688 53.12939453 134.72429687 53.12939453 135.40429688 53.12939453 C135.40429688 53.78939453 135.40429688 54.44939453 135.40429688 55.12939453 C136.04367187 55.37689453 136.68304687 55.62439453 137.34179688 55.87939453 C139.40429688 57.12939453 139.40429688 57.12939453 140.15429688 59.25439453 C140.23679687 59.87314453 140.31929687 60.49189453 140.40429688 61.12939453 C141.06429688 61.12939453 141.72429687 61.12939453 142.40429688 61.12939453 C142.40429688 62.11939453 142.40429688 63.10939453 142.40429688 64.12939453 C143.06429688 64.12939453 143.72429687 64.12939453 144.40429688 64.12939453 C144.40429688 65.44939453 144.40429688 66.76939453 144.40429688 68.12939453 C145.39429688 68.45939453 146.38429688 68.78939453 147.40429688 69.12939453 C149.40429688 72.12939453 149.40429688 72.12939453 149.40429688 75.12939453 C150.06429688 75.12939453 150.72429687 75.12939453 151.40429688 75.12939453 C151.40429688 76.44939453 151.40429688 77.76939453 151.40429688 79.12939453 C152.06429688 79.12939453 152.72429687 79.12939453 153.40429688 79.12939453 C153.81679687 80.30501953 154.22929688 81.48064453 154.65429688 82.69189453 C155.91703263 86.09889854 157.53978144 89.01428475 159.42382812 92.12548828 C161.09483385 95.54073105 161.89340516 99.19087767 162.79101562 102.87158203 C163.19035402 105.0811279 163.19035402 105.0811279 164.40429688 106.12939453 C164.68718868 108.38354831 164.85200878 110.63780109 165.02539062 112.90283203 C165.29630513 115.40859531 165.29630513 115.40859531 167.40429688 118.12939453 C167.78320312 120.57470703 167.78320312 120.57470703 167.96679688 123.25439453 C167.94914566 126.49860428 167.94914566 126.49860428 169.40429688 129.12939453 C169.50543387 132.14747516 169.54398596 135.14219966 169.53710938 138.16064453 C169.53854446 139.52002136 169.53854446 139.52002136 169.54000854 140.90686035 C169.54069041 142.826905 169.5388357 144.74695194 169.53466797 146.66699219 C169.5293198 149.61675157 169.53461275 152.56635867 169.54101562 155.51611328 C169.54035484 157.3767907 169.53907368 159.23746803 169.53710938 161.09814453 C169.53913361 161.98667114 169.54115784 162.87519775 169.54324341 163.79064941 C169.51924676 170.01444465 169.51924676 170.01444465 168.40429688 171.12939453 C168.11950566 173.90497876 167.95586668 176.68067298 167.78320312 179.46533203 C167.40429688 182.12939453 167.40429688 182.12939453 165.40429688 185.12939453 C165.14425068 187.07974096 164.88882603 189.03129011 164.68945312 190.98876953 C164.26708431 194.15942861 163.35731345 197.0797415 162.40429688 200.12939453 C161.74429687 200.12939453 161.08429688 200.12939453 160.40429688 200.12939453 C160.52804687 200.91314453 160.65179687 201.69689453 160.77929688 202.50439453 C160.29802799 207.15666042 158.3545983 209.90695123 155.81445312 213.76220703 C154.51122949 215.94988991 153.85651112 217.64507832 153.40429688 220.12939453 C152.74429687 220.12939453 152.08429688 220.12939453 151.40429688 220.12939453 C151.40429688 221.44939453 151.40429688 222.76939453 151.40429688 224.12939453 C150.74429687 224.12939453 150.08429688 224.12939453 149.40429688 224.12939453 C149.28054688 224.72751953 149.15679688 225.32564453 149.02929688 225.94189453 C148.40429688 228.12939453 148.40429688 228.12939453 146.40429688 231.12939453 C145.74429687 231.12939453 145.08429688 231.12939453 144.40429688 231.12939453 C144.40429688 232.44939453 144.40429688 233.76939453 144.40429688 235.12939453 C143.74429687 235.12939453 143.08429688 235.12939453 142.40429688 235.12939453 C142.13617187 235.87189453 141.86804687 236.61439453 141.59179688 237.37939453 C140.45152937 240.02001402 139.31049382 241.98492297 137.40429688 244.12939453 C136.74429687 244.12939453 136.08429688 244.12939453 135.40429688 244.12939453 C135.40429688 244.78939453 135.40429688 245.44939453 135.40429688 246.12939453 C134.74429687 246.12939453 134.08429688 246.12939453 133.40429688 246.12939453 C133.30632812 246.71849609 133.20835937 247.30759766 133.10742188 247.91455078 C132.26481877 250.56875056 131.17088943 251.66866719 129.15429688 253.56689453 C128.20296875 254.47568359 128.20296875 254.47568359 127.23242188 255.40283203 C126.3275 256.25748047 126.3275 256.25748047 125.40429688 257.12939453 C124.57929687 257.97501953 123.75429687 258.82064453 122.90429688 259.69189453 C114.25045072 268.12939453 114.25045072 268.12939453 111.40429688 268.12939453 C111.40429688 268.78939453 111.40429688 269.44939453 111.40429688 270.12939453 C107.01968149 273.12939453 107.01968149 273.12939453 104.40429688 273.12939453 C104.40429688 273.78939453 104.40429688 274.44939453 104.40429688 275.12939453 C101.40429688 277.12939453 101.40429688 277.12939453 97.40429688 277.12939453 C97.40429688 277.78939453 97.40429688 278.44939453 97.40429688 279.12939453 C95.30413064 280.30380989 93.19970932 281.46903465 91.09179688 282.62939453 C90.49689453 282.96326172 89.90199219 283.29712891 89.2890625 283.64111328 C86.44600844 285.19764567 84.69768699 286.12939453 81.40429688 286.12939453 C81.40429688 286.78939453 81.40429688 287.44939453 81.40429688 288.12939453 C78.03332304 289.62760512 76.19987568 290.12939453 72.40429688 290.12939453 C72.40429688 290.78939453 72.40429688 291.44939453 72.40429688 292.12939453 C69.76429688 292.12939453 67.12429688 292.12939453 64.40429688 292.12939453 C64.40429688 292.78939453 64.40429688 293.44939453 64.40429688 294.12939453 C62.09429688 294.12939453 59.78429688 294.12939453 57.40429688 294.12939453 C57.40429688 294.78939453 57.40429688 295.44939453 57.40429688 296.12939453 C56.69402344 296.26216797 55.98375 296.39494141 55.25195312 296.53173828 C54.33285156 296.70833984 53.41375 296.88494141 52.46679688 297.06689453 C51.55027344 297.24091797 50.63375 297.41494141 49.68945312 297.59423828 C47.45139843 297.90654442 47.45139843 297.90654442 46.40429688 299.12939453 C45.07543614 299.27325557 43.73981101 299.35615741 42.40429688 299.41064453 C41.59992188 299.44802734 40.79554688 299.48541016 39.96679688 299.52392578 C38.25846354 299.59423828 36.55013021 299.66455078 34.84179688 299.73486328 C34.03742188 299.77224609 33.23304688 299.80962891 32.40429688 299.84814453 C31.66179687 299.8784375 30.91929687 299.90873047 30.15429688 299.93994141 C28.37740833 299.94731866 28.37740833 299.94731866 27.40429688 301.12939453 C25.85474129 301.22838977 24.30076015 301.26018977 22.74804688 301.26220703 C21.33845703 301.26414062 21.33845703 301.26414062 19.90039062 301.26611328 C18.41732422 301.2603125 18.41732422 301.2603125 16.90429688 301.25439453 C15.91558594 301.25826172 14.926875 301.26212891 13.90820312 301.26611328 C12.96847656 301.26482422 12.02875 301.26353516 11.06054688 301.26220703 C9.75827148 301.26051514 9.75827148 301.26051514 8.4296875 301.25878906 C6.40429688 301.12939453 6.40429688 301.12939453 5.40429688 300.12939453 C3.40826482 299.92050746 1.40686747 299.76163976 -0.59570312 299.62939453 C-6.48459201 299.24050564 -6.48459201 299.24050564 -7.59570312 298.12939453 C-10.11059828 297.84545476 -12.62559894 297.68128214 -15.15039062 297.50830078 C-17.59570312 297.12939453 -17.59570312 297.12939453 -20.59570312 295.12939453 C-22.58540263 294.73925737 -24.58590181 294.39736804 -26.59570312 294.12939453 C-26.59570312 293.46939453 -26.59570312 292.80939453 -26.59570312 292.12939453 C-27.37945313 292.21189453 -28.16320312 292.29439453 -28.97070312 292.37939453 C-37.39720657 291.79825636 -45.21082622 286.96324552 -52.59570312 283.12939453 C-52.59570312 282.46939453 -52.59570312 281.80939453 -52.59570312 281.12939453 C-53.58570313 281.12939453 -54.57570313 281.12939453 -55.59570312 281.12939453 C-55.59570312 280.46939453 -55.59570312 279.80939453 -55.59570312 279.12939453 C-56.91570312 279.12939453 -58.23570312 279.12939453 -59.59570312 279.12939453 C-59.59570312 278.46939453 -59.59570312 277.80939453 -59.59570312 277.12939453 C-60.58570313 277.12939453 -61.57570313 277.12939453 -62.59570312 277.12939453 C-62.59570312 276.46939453 -62.59570312 275.80939453 -62.59570312 275.12939453 C-63.33820313 274.86126953 -64.08070313 274.59314453 -64.84570312 274.31689453 C-67.48632261 273.17662703 -69.45123157 272.03559147 -71.59570312 270.12939453 C-71.59570312 269.46939453 -71.59570312 268.80939453 -71.59570312 268.12939453 C-72.91570313 268.12939453 -74.23570312 268.12939453 -75.59570312 268.12939453 C-75.59570312 267.46939453 -75.59570312 266.80939453 -75.59570312 266.12939453 C-76.25570312 266.12939453 -76.91570313 266.12939453 -77.59570312 266.12939453 C-77.59570312 265.46939453 -77.59570312 264.80939453 -77.59570312 264.12939453 C-78.19382812 263.86126953 -78.79195312 263.59314453 -79.40820312 263.31689453 C-81.59418166 262.13022047 -83.00902906 261.0334034 -84.59570312 259.12939453 C-84.59570312 258.46939453 -84.59570312 257.80939453 -84.59570312 257.12939453 C-86.24570312 256.46939453 -87.89570312 255.80939453 -89.59570312 255.12939453 C-89.59570312 254.46939453 -89.59570312 253.80939453 -89.59570312 253.12939453 C-90.25570312 253.12939453 -90.91570313 253.12939453 -91.59570312 253.12939453 C-91.59570312 252.46939453 -91.59570312 251.80939453 -91.59570312 251.12939453 C-92.25570312 251.12939453 -92.91570313 251.12939453 -93.59570312 251.12939453 C-93.59570312 250.13939453 -93.59570312 249.14939453 -93.59570312 248.12939453 C-94.25570312 248.12939453 -94.91570313 248.12939453 -95.59570312 248.12939453 C-95.59570312 247.46939453 -95.59570312 246.80939453 -95.59570312 246.12939453 C-96.25570312 246.12939453 -96.91570313 246.12939453 -97.59570312 246.12939453 C-100.59570312 242.66785607 -100.59570312 242.66785607 -100.59570312 240.12939453 C-101.25570312 240.12939453 -101.91570313 240.12939453 -102.59570312 240.12939453 C-102.59570312 239.13939453 -102.59570312 238.14939453 -102.59570312 237.12939453 C-103.25570312 237.12939453 -103.91570313 237.12939453 -104.59570312 237.12939453 C-104.59570312 235.80939453 -104.59570312 234.48939453 -104.59570312 233.12939453 C-105.58570313 232.79939453 -106.57570313 232.46939453 -107.59570312 232.12939453 C-110.46505855 228.44022327 -111.59570312 226.88507129 -111.59570312 222.12939453 C-112.25570312 222.12939453 -112.91570313 222.12939453 -113.59570312 222.12939453 C-114.43954987 220.71896497 -115.27039809 219.30075321 -116.09570312 217.87939453 C-116.55976562 217.09048828 -117.02382813 216.30158203 -117.50195312 215.48876953 C-118.59570312 213.12939453 -118.59570312 213.12939453 -118.59570312 209.12939453 C-119.25570312 209.12939453 -119.91570313 209.12939453 -120.59570312 209.12939453 C-120.59570312 207.14939453 -120.59570312 205.16939453 -120.59570312 203.12939453 C-121.25570312 203.12939453 -121.91570313 203.12939453 -122.59570312 203.12939453 C-122.59570312 201.47939453 -122.59570312 199.82939453 -122.59570312 198.12939453 C-123.25570312 198.12939453 -123.91570313 198.12939453 -124.59570312 198.12939453 C-124.79101562 196.14371745 -124.98632812 194.15804036 -125.18164062 192.17236328 C-125.52235704 189.82951311 -125.52235704 189.82951311 -127.59570312 187.12939453 C-127.79101562 184.86767578 -127.79101562 184.86767578 -127.72070312 182.44189453 C-127.70265625 181.63365234 -127.68460938 180.82541016 -127.66601562 179.99267578 C-127.6428125 179.37779297 -127.61960937 178.76291016 -127.59570312 178.12939453 C-128.25570312 178.12939453 -128.91570313 178.12939453 -129.59570312 178.12939453 C-129.65628906 177.05818359 -129.716875 175.98697266 -129.77929688 174.88330078 C-129.8636885 173.48615062 -129.94833718 172.08901596 -130.03320312 170.69189453 C-130.07251953 169.98484375 -130.11183594 169.27779297 -130.15234375 168.54931641 C-130.0719475 165.04249034 -130.0719475 165.04249034 -131.59570312 162.12939453 C-131.69489493 160.51855708 -131.72650132 158.90343809 -131.72851562 157.28955078 C-131.72980469 156.30921875 -131.73109375 155.32888672 -131.73242188 154.31884766 C-131.72855469 153.28695313 -131.7246875 152.25505859 -131.72070312 151.19189453 C-131.72457031 150.16386719 -131.7284375 149.13583984 -131.73242188 148.07666016 C-131.73113281 147.09503906 -131.72984375 146.11341797 -131.72851562 145.10205078 C-131.7273877 144.19720947 -131.72625977 143.29236816 -131.72509766 142.36010742 C-131.59570312 140.12939453 -131.59570312 140.12939453 -130.59570312 138.12939453 C-130.41128817 135.45976845 -130.27040814 132.8020437 -130.15820312 130.12939453 C-129.28126906 112.81496047 -129.28126906 112.81496047 -125.59570312 109.12939453 C-125.13758637 107.1570412 -125.13758637 107.1570412 -124.97070312 105.00439453 C-124.78507813 103.08626953 -124.78507813 103.08626953 -124.59570312 101.12939453 C-123.93570313 101.12939453 -123.27570312 101.12939453 -122.59570312 101.12939453 C-122.59570312 99.14939453 -122.59570312 97.16939453 -122.59570312 95.12939453 C-121.93570313 95.12939453 -121.27570312 95.12939453 -120.59570312 95.12939453 C-120.59570312 93.47939453 -120.59570312 91.82939453 -120.59570312 90.12939453 C-119.93570313 90.12939453 -119.27570312 90.12939453 -118.59570312 90.12939453 C-118.47195313 89.57251953 -118.34820313 89.01564453 -118.22070312 88.44189453 C-117.53593457 85.90825089 -116.60436549 83.55018421 -115.59570312 81.12939453 C-114.93570313 81.12939453 -114.27570312 81.12939453 -113.59570312 81.12939453 C-113.59570312 79.80939453 -113.59570312 78.48939453 -113.59570312 77.12939453 C-112.93570313 77.12939453 -112.27570312 77.12939453 -111.59570312 77.12939453 C-111.59570312 75.80939453 -111.59570312 74.48939453 -111.59570312 73.12939453 C-110.93570313 73.12939453 -110.27570312 73.12939453 -109.59570312 73.12939453 C-109.28632812 72.34564453 -108.97695313 71.56189453 -108.65820312 70.75439453 C-107.59570312 68.12939453 -107.59570312 68.12939453 -106.59570312 66.12939453 C-105.93570313 66.12939453 -105.27570312 66.12939453 -104.59570312 66.12939453 C-104.59570312 64.80939453 -104.59570312 63.48939453 -104.59570312 62.12939453 C-103.93570313 62.12939453 -103.27570312 62.12939453 -102.59570312 62.12939453 C-101.93570313 60.47939453 -101.27570312 58.82939453 -100.59570312 57.12939453 C-99.93570313 57.12939453 -99.27570312 57.12939453 -98.59570312 57.12939453 C-98.26570312 55.80939453 -97.93570313 54.48939453 -97.59570312 53.12939453 C-96.93570313 53.12939453 -96.27570312 53.12939453 -95.59570312 53.12939453 C-95.36882813 52.57251953 -95.14195312 52.01564453 -94.90820312 51.44189453 C-93.22020276 48.46779866 -91.12893796 46.40930588 -88.59570312 44.12939453 C-87.93570313 44.12939453 -87.27570312 44.12939453 -86.59570312 44.12939453 C-86.59570312 43.46939453 -86.59570312 42.80939453 -86.59570312 42.12939453 C-85.93570313 42.12939453 -85.27570312 42.12939453 -84.59570312 42.12939453 C-84.32757812 41.53126953 -84.05945313 40.93314453 -83.78320312 40.31689453 C-82.59652906 38.13091599 -81.499712 36.71606859 -79.59570312 35.12939453 C-78.93570313 35.12939453 -78.27570312 35.12939453 -77.59570312 35.12939453 C-77.59570312 34.46939453 -77.59570312 33.80939453 -77.59570312 33.12939453 C-74.59570312 31.12939453 -74.59570312 31.12939453 -71.59570312 31.12939453 C-71.59570312 30.46939453 -71.59570312 29.80939453 -71.59570312 29.12939453 C-69.47851562 27.40283203 -69.47851562 27.40283203 -66.72070312 25.50439453 C-65.36332031 24.55693359 -65.36332031 24.55693359 -63.97851562 23.59033203 C-61.59570312 22.12939453 -61.59570312 22.12939453 -59.59570312 22.12939453 C-59.59570312 21.46939453 -59.59570312 20.80939453 -59.59570312 20.12939453 C-58.27570313 20.12939453 -56.95570313 20.12939453 -55.59570312 20.12939453 C-55.59570312 19.46939453 -55.59570312 18.80939453 -55.59570312 18.12939453 C-54.60570312 17.71689453 -53.61570312 17.30439453 -52.59570312 16.87939453 C-49.93509357 15.74370348 -47.35441711 14.51677668 -44.78320312 13.19189453 C-37.12945297 9.3429837 -29.53112416 6.6952636 -21.16210938 4.84033203 C-18.38588699 4.2151695 -18.38588699 4.2151695 -15.59570312 2.12939453 C-13.15039062 1.75048828 -13.15039062 1.75048828 -10.47070312 1.56689453 C-6.48540714 1.28388076 -3.97866691 0.0036584 0 0 Z " fill="#FDFDFD" transform="translate(980.595703125,1430.87060546875)"/>
<path d="M0 0 C17.16066037 12.46907632 30.30605248 29.30736144 36 50 C36.350625 51.11117188 36.70125 52.22234375 37.0625 53.3671875 C38.59936982 59.6014956 38.28881987 65.99560182 38.25 72.375 C38.25773437 73.63828125 38.26546875 74.9015625 38.2734375 76.203125 C38.22261325 100.64958851 27.87987736 121.53346979 11 139 C-8.041136 157.09366374 -31.99549763 162.72281414 -57.5625 162.3046875 C-81.12284887 161.47596593 -102.27675158 148.65663113 -118.125 131.73046875 C-134.43776384 112.51836603 -140.96716323 87.84204913 -139 63 C-136.287007 42.96019025 -127.01297782 25.44927933 -113 11 C-112.46117187 10.38769531 -111.92234375 9.77539062 -111.3671875 9.14453125 C-83.82454087 -21.09701794 -32.37617519 -22.38878781 0 0 Z " fill="#020202" transform="translate(1050,1507)"/>
<path d="M0 0 C0.78375 0.04125 1.5675 0.0825 2.375 0.125 C5.03175751 4.49579462 6.34538242 6.97691212 7.375 12.125 C15.79 11.63 15.79 11.63 24.375 11.125 C25.035 9.475 25.695 7.825 26.375 6.125 C27.91132455 3.97880116 29.62235536 2.10825578 31.375 0.125 C33.73046875 0.2421875 33.73046875 0.2421875 36.375 1.125 C37.67578125 3.8203125 37.67578125 3.8203125 38.6875 7.25 C40.69888806 13.12299528 42.81423431 16.21464428 47.80078125 19.85546875 C48.32027344 20.27441406 48.83976562 20.69335938 49.375 21.125 C49.375 21.785 49.375 22.445 49.375 23.125 C47.065 24.115 44.755 25.105 42.375 26.125 C42.375 26.785 42.375 27.445 42.375 28.125 C46.005 27.795 49.635 27.465 53.375 27.125 C54.365 29.6 54.365 29.6 55.375 32.125 C51.085 32.125 46.795 32.125 42.375 32.125 C42.705 33.115 43.035 34.105 43.375 35.125 C47.995 35.785 52.615 36.445 57.375 37.125 C60.3530635 46.0591905 59.53170571 59.67041744 55.375 68.125 C51.21746112 75.41688283 45.76221897 79.52964765 37.9375 82.375 C22.88068865 85.54485502 -0.11243897 87.58500888 -13.6953125 79.23828125 C-19.15284734 74.6797281 -22.46899024 69.87778528 -24.625 63.125 C-25.12 61.64 -25.12 61.64 -25.625 60.125 C-25.70643855 58.49780518 -25.7325302 56.86748281 -25.72265625 55.23828125 C-25.71943359 54.30048828 -25.71621094 53.36269531 -25.71289062 52.39648438 C-25.70032227 50.93178711 -25.70032227 50.93178711 -25.6875 49.4375 C-25.68298828 48.44943359 -25.67847656 47.46136719 -25.67382812 46.44335938 C-25.66204303 44.00384526 -25.64559011 41.56445311 -25.625 39.125 C-21.96052568 37.47699144 -18.81296534 36.78919027 -14.8125 36.5 C-13.83667969 36.42523437 -12.86085938 36.35046875 -11.85546875 36.2734375 C-11.11941406 36.22445313 -10.38335938 36.17546875 -9.625 36.125 C-10.12 34.64 -10.12 34.64 -10.625 33.125 C-17.06 33.62 -17.06 33.62 -23.625 34.125 C-22.625 29.125 -22.625 29.125 -21.625 28.125 C-17.46035074 27.96482118 -13.67773808 28.14251804 -9.625 29.125 C-9.955 28.135 -10.285 27.145 -10.625 26.125 C-12.49887216 25.32287372 -12.49887216 25.32287372 -14.6875 24.9375 C-15.78771484 24.69966797 -15.78771484 24.69966797 -16.91015625 24.45703125 C-17.75900391 24.29267578 -17.75900391 24.29267578 -18.625 24.125 C-17.29393084 21.03010028 -16.06266938 19.5275562 -13.3125 17.625 C-8.99541389 14.13535539 -7.53193837 9.84915852 -5.66796875 4.734375 C-4.32624518 1.37755348 -3.7128054 0.17680026 0 0 Z " fill="#FBFBFB" transform="translate(983.625,1542.875)"/>
<path d="M0 0 C1.46657043 -0.00472824 1.46657043 -0.00472824 2.96276855 -0.009552 C4.0262854 -0.00752777 5.08980225 -0.00550354 6.18554688 -0.00341797 C7.81127625 -0.00485306 7.81127625 -0.00485306 9.46984863 -0.00631714 C11.76652077 -0.00699912 14.06319482 -0.00514358 16.35986328 -0.00097656 C19.88904115 0.00437141 23.41809174 -0.00092097 26.94726562 -0.00732422 C29.17252632 -0.00666344 31.39778694 -0.00538228 33.62304688 -0.00341797 C34.68656372 -0.0054422 35.75008057 -0.00746643 36.8458252 -0.009552 C37.82353882 -0.00639984 38.80125244 -0.00324768 39.80859375 0 C40.67383667 0.00079559 41.53907959 0.00159119 42.43054199 0.00241089 C44.40429688 0.12939453 44.40429688 0.12939453 45.40429688 1.12939453 C47.83953049 1.66990477 50.26675748 2.16643105 52.71679688 2.62939453 C61.02874767 4.22693407 61.02874767 4.22693407 64.40429688 5.12939453 C64.40429688 5.78939453 64.40429688 6.44939453 64.40429688 7.12939453 C66.38429688 7.12939453 68.36429688 7.12939453 70.40429688 7.12939453 C70.40429688 7.78939453 70.40429688 8.44939453 70.40429688 9.12939453 C71.37367188 9.21189453 72.34304688 9.29439453 73.34179688 9.37939453 C80.65949737 10.4290041 87.14272342 14.39909545 93.40429688 18.12939453 C93.40429688 18.78939453 93.40429688 19.44939453 93.40429688 20.12939453 C94.72429687 20.12939453 96.04429687 20.12939453 97.40429688 20.12939453 C97.40429688 20.78939453 97.40429688 21.44939453 97.40429688 22.12939453 C97.93539063 22.21318359 98.46648437 22.29697266 99.01367188 22.38330078 C102.29757752 23.40817983 104.79838749 25.15950578 107.65429688 27.06689453 C108.73195313 27.77716797 109.80960938 28.48744141 110.91992188 29.21923828 C111.73976563 29.84958984 112.55960938 30.47994141 113.40429688 31.12939453 C113.40429688 31.78939453 113.40429688 32.44939453 113.40429688 33.12939453 C114.06429688 33.12939453 114.72429687 33.12939453 115.40429688 33.12939453 C115.40429688 33.78939453 115.40429688 34.44939453 115.40429688 35.12939453 C116.00242187 35.39751953 116.60054687 35.66564453 117.21679688 35.94189453 C119.40277541 37.12856859 120.81762281 38.22538566 122.40429688 40.12939453 C122.40429688 40.78939453 122.40429688 41.44939453 122.40429688 42.12939453 C123.00242187 42.23251953 123.60054687 42.33564453 124.21679688 42.44189453 C126.71687973 43.22763486 127.7796477 44.09858306 129.40429688 46.12939453 C129.40429688 46.78939453 129.40429688 47.44939453 129.40429688 48.12939453 C130.06429688 48.12939453 130.72429687 48.12939453 131.40429688 48.12939453 C131.40429688 48.78939453 131.40429688 49.44939453 131.40429688 50.12939453 C132.06429688 50.12939453 132.72429687 50.12939453 133.40429688 50.12939453 C133.40429688 51.11939453 133.40429688 52.10939453 133.40429688 53.12939453 C134.06429688 53.12939453 134.72429687 53.12939453 135.40429688 53.12939453 C135.40429688 53.78939453 135.40429688 54.44939453 135.40429688 55.12939453 C136.04367187 55.37689453 136.68304687 55.62439453 137.34179688 55.87939453 C139.40429688 57.12939453 139.40429688 57.12939453 140.15429688 59.25439453 C140.23679687 59.87314453 140.31929687 60.49189453 140.40429688 61.12939453 C141.06429688 61.12939453 141.72429687 61.12939453 142.40429688 61.12939453 C142.40429688 62.11939453 142.40429688 63.10939453 142.40429688 64.12939453 C143.06429688 64.12939453 143.72429687 64.12939453 144.40429688 64.12939453 C144.40429688 65.44939453 144.40429688 66.76939453 144.40429688 68.12939453 C145.39429688 68.45939453 146.38429688 68.78939453 147.40429688 69.12939453 C149.40429688 72.12939453 149.40429688 72.12939453 149.40429688 75.12939453 C150.06429688 75.12939453 150.72429687 75.12939453 151.40429688 75.12939453 C151.40429688 76.44939453 151.40429688 77.76939453 151.40429688 79.12939453 C152.06429688 79.12939453 152.72429687 79.12939453 153.40429688 79.12939453 C153.81679687 80.30501953 154.22929688 81.48064453 154.65429688 82.69189453 C155.91703263 86.09889854 157.53978144 89.01428475 159.42382812 92.12548828 C161.09483385 95.54073105 161.89340516 99.19087767 162.79101562 102.87158203 C163.19035402 105.0811279 163.19035402 105.0811279 164.40429688 106.12939453 C164.68718868 108.38354831 164.85200878 110.63780109 165.02539062 112.90283203 C165.29630513 115.40859531 165.29630513 115.40859531 167.40429688 118.12939453 C167.78320312 120.57470703 167.78320312 120.57470703 167.96679688 123.25439453 C167.94914566 126.49860428 167.94914566 126.49860428 169.40429688 129.12939453 C169.50543387 132.14747516 169.54398596 135.14219966 169.53710938 138.16064453 C169.53854446 139.52002136 169.53854446 139.52002136 169.54000854 140.90686035 C169.54069041 142.826905 169.5388357 144.74695194 169.53466797 146.66699219 C169.5293198 149.61675157 169.53461275 152.56635867 169.54101562 155.51611328 C169.54035484 157.3767907 169.53907368 159.23746803 169.53710938 161.09814453 C169.53913361 161.98667114 169.54115784 162.87519775 169.54324341 163.79064941 C169.51924676 170.01444465 169.51924676 170.01444465 168.40429688 171.12939453 C168.11950566 173.90497876 167.95586668 176.68067298 167.78320312 179.46533203 C167.40429688 182.12939453 167.40429688 182.12939453 165.40429688 185.12939453 C165.14425068 187.07974096 164.88882603 189.03129011 164.68945312 190.98876953 C164.26708431 194.15942861 163.35731345 197.0797415 162.40429688 200.12939453 C161.74429687 200.12939453 161.08429688 200.12939453 160.40429688 200.12939453 C160.52804687 200.91314453 160.65179687 201.69689453 160.77929688 202.50439453 C160.29802799 207.15666042 158.3545983 209.90695123 155.81445312 213.76220703 C154.51122949 215.94988991 153.85651112 217.64507832 153.40429688 220.12939453 C152.74429687 220.12939453 152.08429688 220.12939453 151.40429688 220.12939453 C151.40429688 221.44939453 151.40429688 222.76939453 151.40429688 224.12939453 C150.74429687 224.12939453 150.08429688 224.12939453 149.40429688 224.12939453 C149.28054688 224.72751953 149.15679688 225.32564453 149.02929688 225.94189453 C148.40429688 228.12939453 148.40429688 228.12939453 146.40429688 231.12939453 C145.74429687 231.12939453 145.08429688 231.12939453 144.40429688 231.12939453 C144.40429688 232.44939453 144.40429688 233.76939453 144.40429688 235.12939453 C143.74429687 235.12939453 143.08429688 235.12939453 142.40429688 235.12939453 C142.13617187 235.87189453 141.86804687 236.61439453 141.59179688 237.37939453 C140.45152937 240.02001402 139.31049382 241.98492297 137.40429688 244.12939453 C136.74429687 244.12939453 136.08429688 244.12939453 135.40429688 244.12939453 C135.40429688 244.78939453 135.40429688 245.44939453 135.40429688 246.12939453 C134.74429687 246.12939453 134.08429688 246.12939453 133.40429688 246.12939453 C133.30632812 246.71849609 133.20835937 247.30759766 133.10742188 247.91455078 C132.26481877 250.56875056 131.17088943 251.66866719 129.15429688 253.56689453 C128.20296875 254.47568359 128.20296875 254.47568359 127.23242188 255.40283203 C126.3275 256.25748047 126.3275 256.25748047 125.40429688 257.12939453 C124.57929687 257.97501953 123.75429687 258.82064453 122.90429688 259.69189453 C114.25045072 268.12939453 114.25045072 268.12939453 111.40429688 268.12939453 C111.40429688 268.78939453 111.40429688 269.44939453 111.40429688 270.12939453 C107.01968149 273.12939453 107.01968149 273.12939453 104.40429688 273.12939453 C104.40429688 273.78939453 104.40429688 274.44939453 104.40429688 275.12939453 C101.40429688 277.12939453 101.40429688 277.12939453 97.40429688 277.12939453 C97.40429688 277.78939453 97.40429688 278.44939453 97.40429688 279.12939453 C95.30413064 280.30380989 93.19970932 281.46903465 91.09179688 282.62939453 C90.49689453 282.96326172 89.90199219 283.29712891 89.2890625 283.64111328 C86.44600844 285.19764567 84.69768699 286.12939453 81.40429688 286.12939453 C81.40429688 286.78939453 81.40429688 287.44939453 81.40429688 288.12939453 C78.03332304 289.62760512 76.19987568 290.12939453 72.40429688 290.12939453 C72.40429688 290.78939453 72.40429688 291.44939453 72.40429688 292.12939453 C69.76429688 292.12939453 67.12429688 292.12939453 64.40429688 292.12939453 C64.40429688 292.78939453 64.40429688 293.44939453 64.40429688 294.12939453 C62.09429688 294.12939453 59.78429688 294.12939453 57.40429688 294.12939453 C57.40429688 294.78939453 57.40429688 295.44939453 57.40429688 296.12939453 C56.69402344 296.26216797 55.98375 296.39494141 55.25195312 296.53173828 C54.33285156 296.70833984 53.41375 296.88494141 52.46679688 297.06689453 C51.55027344 297.24091797 50.63375 297.41494141 49.68945312 297.59423828 C47.45139843 297.90654442 47.45139843 297.90654442 46.40429688 299.12939453 C45.07543614 299.27325557 43.73981101 299.35615741 42.40429688 299.41064453 C41.59992188 299.44802734 40.79554688 299.48541016 39.96679688 299.52392578 C38.25846354 299.59423828 36.55013021 299.66455078 34.84179688 299.73486328 C34.03742188 299.77224609 33.23304688 299.80962891 32.40429688 299.84814453 C31.66179687 299.8784375 30.91929687 299.90873047 30.15429688 299.93994141 C28.37740833 299.94731866 28.37740833 299.94731866 27.40429688 301.12939453 C25.85474129 301.22838977 24.30076015 301.26018977 22.74804688 301.26220703 C21.33845703 301.26414062 21.33845703 301.26414062 19.90039062 301.26611328 C18.41732422 301.2603125 18.41732422 301.2603125 16.90429688 301.25439453 C15.91558594 301.25826172 14.926875 301.26212891 13.90820312 301.26611328 C12.96847656 301.26482422 12.02875 301.26353516 11.06054688 301.26220703 C9.75827148 301.26051514 9.75827148 301.26051514 8.4296875 301.25878906 C6.40429688 301.12939453 6.40429688 301.12939453 5.40429688 300.12939453 C3.40826482 299.92050746 1.40686747 299.76163976 -0.59570312 299.62939453 C-6.48459201 299.24050564 -6.48459201 299.24050564 -7.59570312 298.12939453 C-10.11059828 297.84545476 -12.62559894 297.68128214 -15.15039062 297.50830078 C-17.59570312 297.12939453 -17.59570312 297.12939453 -20.59570312 295.12939453 C-22.58540263 294.73925737 -24.58590181 294.39736804 -26.59570312 294.12939453 C-26.59570312 293.46939453 -26.59570312 292.80939453 -26.59570312 292.12939453 C-27.37945313 292.21189453 -28.16320312 292.29439453 -28.97070312 292.37939453 C-37.39720657 291.79825636 -45.21082622 286.96324552 -52.59570312 283.12939453 C-52.59570312 282.46939453 -52.59570312 281.80939453 -52.59570312 281.12939453 C-53.58570313 281.12939453 -54.57570313 281.12939453 -55.59570312 281.12939453 C-55.59570312 280.46939453 -55.59570312 279.80939453 -55.59570312 279.12939453 C-56.91570312 279.12939453 -58.23570312 279.12939453 -59.59570312 279.12939453 C-59.59570312 278.46939453 -59.59570312 277.80939453 -59.59570312 277.12939453 C-60.58570313 277.12939453 -61.57570313 277.12939453 -62.59570312 277.12939453 C-62.59570312 276.46939453 -62.59570312 275.80939453 -62.59570312 275.12939453 C-63.33820313 274.86126953 -64.08070313 274.59314453 -64.84570312 274.31689453 C-67.48632261 273.17662703 -69.45123157 272.03559147 -71.59570312 270.12939453 C-71.59570312 269.46939453 -71.59570312 268.80939453 -71.59570312 268.12939453 C-72.91570313 268.12939453 -74.23570312 268.12939453 -75.59570312 268.12939453 C-75.59570312 267.46939453 -75.59570312 266.80939453 -75.59570312 266.12939453 C-76.25570312 266.12939453 -76.91570313 266.12939453 -77.59570312 266.12939453 C-77.59570312 265.46939453 -77.59570312 264.80939453 -77.59570312 264.12939453 C-78.19382812 263.86126953 -78.79195312 263.59314453 -79.40820312 263.31689453 C-81.59418166 262.13022047 -83.00902906 261.0334034 -84.59570312 259.12939453 C-84.59570312 258.46939453 -84.59570312 257.80939453 -84.59570312 257.12939453 C-86.24570312 256.46939453 -87.89570312 255.80939453 -89.59570312 255.12939453 C-89.59570312 254.46939453 -89.59570312 253.80939453 -89.59570312 253.12939453 C-90.25570312 253.12939453 -90.91570313 253.12939453 -91.59570312 253.12939453 C-91.59570312 252.46939453 -91.59570312 251.80939453 -91.59570312 251.12939453 C-92.25570312 251.12939453 -92.91570313 251.12939453 -93.59570312 251.12939453 C-93.59570312 250.13939453 -93.59570312 249.14939453 -93.59570312 248.12939453 C-94.25570312 248.12939453 -94.91570313 248.12939453 -95.59570312 248.12939453 C-95.59570312 247.46939453 -95.59570312 246.80939453 -95.59570312 246.12939453 C-96.25570312 246.12939453 -96.91570313 246.12939453 -97.59570312 246.12939453 C-100.59570312 242.66785607 -100.59570312 242.66785607 -100.59570312 240.12939453 C-101.25570312 240.12939453 -101.91570313 240.12939453 -102.59570312 240.12939453 C-102.59570312 239.13939453 -102.59570312 238.14939453 -102.59570312 237.12939453 C-103.25570312 237.12939453 -103.91570313 237.12939453 -104.59570312 237.12939453 C-104.59570312 235.80939453 -104.59570312 234.48939453 -104.59570312 233.12939453 C-105.58570313 232.79939453 -106.57570313 232.46939453 -107.59570312 232.12939453 C-110.46505855 228.44022327 -111.59570312 226.88507129 -111.59570312 222.12939453 C-112.25570312 222.12939453 -112.91570313 222.12939453 -113.59570312 222.12939453 C-114.43954987 220.71896497 -115.27039809 219.30075321 -116.09570312 217.87939453 C-116.55976562 217.09048828 -117.02382813 216.30158203 -117.50195312 215.48876953 C-118.59570312 213.12939453 -118.59570312 213.12939453 -118.59570312 209.12939453 C-119.25570312 209.12939453 -119.91570313 209.12939453 -120.59570312 209.12939453 C-120.59570312 207.14939453 -120.59570312 205.16939453 -120.59570312 203.12939453 C-121.25570312 203.12939453 -121.91570313 203.12939453 -122.59570312 203.12939453 C-122.59570312 201.47939453 -122.59570312 199.82939453 -122.59570312 198.12939453 C-123.25570312 198.12939453 -123.91570313 198.12939453 -124.59570312 198.12939453 C-124.79101562 196.14371745 -124.98632812 194.15804036 -125.18164062 192.17236328 C-125.52235704 189.82951311 -125.52235704 189.82951311 -127.59570312 187.12939453 C-127.79101562 184.86767578 -127.79101562 184.86767578 -127.72070312 182.44189453 C-127.70265625 181.63365234 -127.68460938 180.82541016 -127.66601562 179.99267578 C-127.6428125 179.37779297 -127.61960937 178.76291016 -127.59570312 178.12939453 C-128.25570312 178.12939453 -128.91570313 178.12939453 -129.59570312 178.12939453 C-129.65628906 177.05818359 -129.716875 175.98697266 -129.77929688 174.88330078 C-129.8636885 173.48615062 -129.94833718 172.08901596 -130.03320312 170.69189453 C-130.07251953 169.98484375 -130.11183594 169.27779297 -130.15234375 168.54931641 C-130.0719475 165.04249034 -130.0719475 165.04249034 -131.59570312 162.12939453 C-131.69489493 160.51855708 -131.72650132 158.90343809 -131.72851562 157.28955078 C-131.72980469 156.30921875 -131.73109375 155.32888672 -131.73242188 154.31884766 C-131.72855469 153.28695313 -131.7246875 152.25505859 -131.72070312 151.19189453 C-131.72457031 150.16386719 -131.7284375 149.13583984 -131.73242188 148.07666016 C-131.73113281 147.09503906 -131.72984375 146.11341797 -131.72851562 145.10205078 C-131.7273877 144.19720947 -131.72625977 143.29236816 -131.72509766 142.36010742 C-131.59570312 140.12939453 -131.59570312 140.12939453 -130.59570312 138.12939453 C-130.41128817 135.45976845 -130.27040814 132.8020437 -130.15820312 130.12939453 C-129.28126906 112.81496047 -129.28126906 112.81496047 -125.59570312 109.12939453 C-125.13758637 107.1570412 -125.13758637 107.1570412 -124.97070312 105.00439453 C-124.78507813 103.08626953 -124.78507813 103.08626953 -124.59570312 101.12939453 C-123.93570313 101.12939453 -123.27570312 101.12939453 -122.59570312 101.12939453 C-122.59570312 99.14939453 -122.59570312 97.16939453 -122.59570312 95.12939453 C-121.93570313 95.12939453 -121.27570312 95.12939453 -120.59570312 95.12939453 C-120.59570312 93.47939453 -120.59570312 91.82939453 -120.59570312 90.12939453 C-119.93570313 90.12939453 -119.27570312 90.12939453 -118.59570312 90.12939453 C-118.47195313 89.57251953 -118.34820313 89.01564453 -118.22070312 88.44189453 C-117.53593457 85.90825089 -116.60436549 83.55018421 -115.59570312 81.12939453 C-114.93570313 81.12939453 -114.27570312 81.12939453 -113.59570312 81.12939453 C-113.59570312 79.80939453 -113.59570312 78.48939453 -113.59570312 77.12939453 C-112.93570313 77.12939453 -112.27570312 77.12939453 -111.59570312 77.12939453 C-111.59570312 75.80939453 -111.59570312 74.48939453 -111.59570312 73.12939453 C-110.93570313 73.12939453 -110.27570312 73.12939453 -109.59570312 73.12939453 C-109.28632812 72.34564453 -108.97695313 71.56189453 -108.65820312 70.75439453 C-107.59570312 68.12939453 -107.59570312 68.12939453 -106.59570312 66.12939453 C-105.93570313 66.12939453 -105.27570312 66.12939453 -104.59570312 66.12939453 C-104.59570312 64.80939453 -104.59570312 63.48939453 -104.59570312 62.12939453 C-103.93570313 62.12939453 -103.27570312 62.12939453 -102.59570312 62.12939453 C-101.93570313 60.47939453 -101.27570312 58.82939453 -100.59570312 57.12939453 C-99.93570313 57.12939453 -99.27570312 57.12939453 -98.59570312 57.12939453 C-98.26570312 55.80939453 -97.93570313 54.48939453 -97.59570312 53.12939453 C-96.93570313 53.12939453 -96.27570312 53.12939453 -95.59570312 53.12939453 C-95.36882813 52.57251953 -95.14195312 52.01564453 -94.90820312 51.44189453 C-93.22020276 48.46779866 -91.12893796 46.40930588 -88.59570312 44.12939453 C-87.93570313 44.12939453 -87.27570312 44.12939453 -86.59570312 44.12939453 C-86.59570312 43.46939453 -86.59570312 42.80939453 -86.59570312 42.12939453 C-85.93570313 42.12939453 -85.27570312 42.12939453 -84.59570312 42.12939453 C-84.32757812 41.53126953 -84.05945313 40.93314453 -83.78320312 40.31689453 C-82.59652906 38.13091599 -81.499712 36.71606859 -79.59570312 35.12939453 C-78.93570313 35.12939453 -78.27570312 35.12939453 -77.59570312 35.12939453 C-77.59570312 34.46939453 -77.59570312 33.80939453 -77.59570312 33.12939453 C-74.59570312 31.12939453 -74.59570312 31.12939453 -71.59570312 31.12939453 C-71.59570312 30.46939453 -71.59570312 29.80939453 -71.59570312 29.12939453 C-69.47851562 27.40283203 -69.47851562 27.40283203 -66.72070312 25.50439453 C-65.36332031 24.55693359 -65.36332031 24.55693359 -63.97851562 23.59033203 C-61.59570312 22.12939453 -61.59570312 22.12939453 -59.59570312 22.12939453 C-59.59570312 21.46939453 -59.59570312 20.80939453 -59.59570312 20.12939453 C-58.27570313 20.12939453 -56.95570313 20.12939453 -55.59570312 20.12939453 C-55.59570312 19.46939453 -55.59570312 18.80939453 -55.59570312 18.12939453 C-54.60570312 17.71689453 -53.61570312 17.30439453 -52.59570312 16.87939453 C-49.93509357 15.74370348 -47.35441711 14.51677668 -44.78320312 13.19189453 C-37.12945297 9.3429837 -29.53112416 6.6952636 -21.16210938 4.84033203 C-18.38588699 4.2151695 -18.38588699 4.2151695 -15.59570312 2.12939453 C-13.15039062 1.75048828 -13.15039062 1.75048828 -10.47070312 1.56689453 C-6.48540714 1.28388076 -3.97866691 0.0036584 0 0 Z M-89.59570312 49.12939453 C-114.36131318 76.05365523 -129.15032472 111.93614796 -128.84570312 148.56689453 C-128.83893555 149.7519458 -128.83216797 150.93699707 -128.82519531 152.15795898 C-128.72851129 160.3305695 -128.3302429 168.12077659 -126.59570312 176.12939453 C-126.33917969 177.35658203 -126.08265625 178.58376953 -125.81835938 179.84814453 C-119.43395248 208.52272247 -105.89199042 233.07554752 -85.59570312 254.12939453 C-84.70818359 255.09425781 -84.70818359 255.09425781 -83.80273438 256.07861328 C-61.54766134 279.65250545 -26.09053882 295.67237704 6.17626953 297.32226562 C24.58119552 297.70324829 41.64386204 297.60773762 59.40429688 292.12939453 C60.93514172 291.70086123 62.46638596 291.27375185 63.99804688 290.84814453 C82.67781997 285.39573601 99.53316749 275.55930451 114.40429688 263.12939453 C114.95408203 262.67064941 115.50386719 262.2119043 116.0703125 261.73925781 C145.10152845 237.13007384 162.992769 201.12059283 167.15429688 163.44189453 C167.26252235 161.67240806 167.34406675 159.90116412 167.40429688 158.12939453 C167.48164062 156.42396484 167.48164062 156.42396484 167.56054688 154.68408203 C168.14372366 130.62803973 163.03285456 106.69265857 152.40429688 85.12939453 C151.56898438 83.43363281 151.56898438 83.43363281 150.71679688 81.70361328 C144.30578217 69.31195291 136.45754342 58.55069522 126.79394531 48.5703125 C125.44244982 47.16895508 124.11437157 45.74513141 122.78710938 44.32080078 C100.57442387 21.08646357 66.27372563 3.74836344 33.83789062 2.18408203 C32.70480469 2.16603516 31.57171875 2.14798828 30.40429688 2.12939453 C29.58590332 2.11038086 28.76750977 2.09136719 27.92431641 2.07177734 C-17.60775157 1.10216445 -57.51645255 16.54197921 -89.59570312 49.12939453 Z " fill="#0A0A0A" transform="translate(980.595703125,1430.87060546875)"/>
<path d="M0 0 C0 0.99 0 1.98 0 3 C-3.68215893 4.84107946 -8.24191774 4.415029 -12.32226562 4.60546875 C-15.96489454 4.46639287 -15.96489454 4.46639287 -19 6 C-21.01964199 6.07244053 -23.04167124 6.08377188 -25.0625 6.0625 C-26.71958984 6.04896484 -26.71958984 6.04896484 -28.41015625 6.03515625 C-29.26480469 6.02355469 -30.11945312 6.01195312 -31 6 C-31 6.66 -31 7.32 -31 8 C-33.97 8 -36.94 8 -40 8 C-40 8.66 -40 9.32 -40 10 C-40.99902344 10.27714844 -41.99804688 10.55429688 -43.02734375 10.83984375 C-44.33077791 11.20555549 -45.63416069 11.57145038 -46.9375 11.9375 C-47.59685547 12.11990234 -48.25621094 12.30230469 -48.93554688 12.49023438 C-52.23821173 13.22596101 -52.23821173 13.22596101 -55 15 C-57.33297433 15.04092937 -59.66705225 15.04241723 -62 15 C-62 15.66 -62 16.32 -62 17 C-63.65 17 -65.3 17 -67 17 C-67 17.66 -67 18.32 -67 19 C-69.97 19.66 -72.94 20.32 -76 21 C-76 20.01 -76 19.02 -76 18 C-52.36278736 8.70210989 -25.84088157 -1.03363526 0 0 Z " fill="#0F0F0F" transform="translate(982,1309)"/>
<path d="M0 0 C5.54603242 -0.0752279 11.09175558 -0.12910056 16.63818359 -0.16479492 C18.51746812 -0.17970479 20.39671897 -0.20003987 22.27587891 -0.22631836 C34.23062425 -0.3890765 45.34546222 0.24086076 57 3 C57 3.33 57 3.66 57 4 C52.05208706 4.0246826 47.1042098 4.04285166 42.15625 4.05493164 C40.47232438 4.05996653 38.78840314 4.06679481 37.10449219 4.07543945 C34.68683797 4.08754196 32.26924144 4.09323668 29.8515625 4.09765625 C29.0963028 4.10281754 28.34104309 4.10797882 27.56289673 4.11329651 C22.22774341 4.11387171 22.22774341 4.11387171 20 3 C18.4804236 2.84876169 16.95527498 2.75118307 15.4296875 2.68359375 C14.53378906 2.64169922 13.63789062 2.59980469 12.71484375 2.55664062 C11.77769531 2.51732422 10.84054687 2.47800781 9.875 2.4375 C8.93011719 2.39431641 7.98523438 2.35113281 7.01171875 2.30664062 C4.67462908 2.20040928 2.3374317 2.09836824 0 2 C0 1.34 0 0.68 0 0 Z " fill="#040404" transform="translate(982,1309)"/>
<path d="M0 0 C0.495 1.485 0.495 1.485 1 3 C-0.97070518 4.97070518 -2.94162762 6.94118178 -4.9140625 8.91015625 C-6.47318808 10.47220154 -8.02082801 12.04572625 -9.5625 13.625 C-18.15789474 22 -18.15789474 22 -21 22 C-21 22.66 -21 23.32 -21 24 C-25.38461538 27 -25.38461538 27 -28 27 C-28 27.66 -28 28.32 -28 29 C-31 31 -31 31 -33.1875 30.625 C-34.0846875 30.315625 -34.0846875 30.315625 -35 30 C-31.74136115 26.61195672 -28.4419709 23.73709958 -24.625 21 C-19.53623875 17.24506312 -14.70809908 13.27596555 -9.9375 9.125 C-9.29441895 8.56554688 -8.65133789 8.00609375 -7.98876953 7.4296875 C-5.24292974 5.02333601 -2.56218833 2.60299515 0 0 Z " fill="#060606" transform="translate(1113,1677)"/>
<path d="M0 0 C0 0.99 0 1.98 0 3 C-3.68215893 4.84107946 -8.24191774 4.415029 -12.32226562 4.60546875 C-15.96489454 4.46639287 -15.96489454 4.46639287 -19 6 C-20.80927281 6.12487758 -22.62396107 6.17570846 -24.4375 6.1875 C-25.42621094 6.20167969 -26.41492188 6.21585938 -27.43359375 6.23046875 C-30 6 -30 6 -32 4 C-28.16852166 3.3223726 -24.33456759 2.65990233 -20.5 2 C-18.88351562 1.71382812 -18.88351562 1.71382812 -17.234375 1.421875 C-11.39841946 0.42549235 -5.91994598 -0.22990081 0 0 Z " fill="#171717" transform="translate(982,1309)"/>
<path d="M0 0 C0.99 0.33 1.98 0.66 3 1 C3.33 2.65 3.66 4.3 4 6 C5.65 5.67 7.3 5.34 9 5 C9 6.32 9 7.64 9 9 C5.23802798 11.50798135 4.29726444 10.84260087 0 10 C-1.99965715 9.96296931 -4.00056665 9.95239444 -6 10 C-6.33 8.68 -6.66 7.36 -7 6 C-5.35 6 -3.7 6 -2 6 C-1.34 4.02 -0.68 2.04 0 0 Z " fill="#0F0F0F" transform="translate(999,1569)"/>
<path d="M0 0 C0.33 0 0.66 0 1 0 C1.33 10.23 1.66 20.46 2 31 C1.34 31 0.68 31 0 31 C-2.15704 27.76444 -2.25591089 26.84227731 -2.265625 23.10546875 C-2.26820313 22.14962891 -2.27078125 21.19378906 -2.2734375 20.20898438 C-2.26183594 18.71334961 -2.26183594 18.71334961 -2.25 17.1875 C-2.25773438 16.20201172 -2.26546875 15.21652344 -2.2734375 14.20117188 C-2.2596707 9.07647938 -2.05012937 4.79177064 0 0 Z " fill="#010101" transform="translate(851,1565)"/>
<path d="M0 0 C7.76783437 0.79263616 15.3629639 2.41889487 23 4 C21 6 21 6 18.8359375 6.1953125 C17.61777344 6.16050781 17.61777344 6.16050781 16.375 6.125 C15.55773438 6.10695313 14.74046875 6.08890625 13.8984375 6.0703125 C13.27195312 6.04710937 12.64546875 6.02390625 12 6 C12 5.34 12 4.68 12 4 C9.03 4 6.06 4 3 4 C3 3.01 3 2.02 3 1 C2.01 0.67 1.02 0.34 0 0 Z " fill="#141414" transform="translate(1036,1311)"/>
<path d="M0 0 C0.33 1.32 0.66 2.64 1 4 C0.34 4 -0.32 4 -1 4 C-1 5.32 -1 6.64 -1 8 C-1.66 8 -2.32 8 -3 8 C-3.12375 8.598125 -3.2475 9.19625 -3.375 9.8125 C-4 12 -4 12 -6 15 C-8.125 15.6875 -8.125 15.6875 -10 16 C-8.63649571 12.35524815 -6.998536 9.08755513 -5 5.75 C-4.484375 4.87859375 -3.96875 4.0071875 -3.4375 3.109375 C-2 1 -2 1 0 0 Z " fill="#070707" transform="translate(1133,1647)"/>
<path d="M0 0 C1.65 0.33 3.3 0.66 5 1 C5.625 2.875 5.625 2.875 6 5 C5.34 5.66 4.68 6.32 4 7 C1.875 6.625 1.875 6.625 0 6 C-1.125 2.25 -1.125 2.25 0 0 Z " fill="#181818" transform="translate(982,1568)"/>
<path d="M0 0 C0 1.65 0 3.3 0 5 C-3.75 6.125 -3.75 6.125 -6 5 C-6 3.35 -6 1.7 -6 0 C-3.50907189 -1.24546405 -2.58919267 -0.7767578 0 0 Z " fill="#0F0F0F" transform="translate(1018,1569)"/>
<path d="M0 0 C-0.99 1.485 -0.99 1.485 -2 3 C-5.625 3.1875 -5.625 3.1875 -9 3 C-9.33 2.34 -9.66 1.68 -10 1 C-3.375 -1.125 -3.375 -1.125 0 0 Z " fill="#131313" transform="translate(1047,1722)"/>
<path d="M0 0 C-0.33 0.99 -0.66 1.98 -1 3 C-3.31 3 -5.62 3 -8 3 C-5.53387212 -0.1151089 -3.89156016 -0.31553191 0 0 Z " fill="#030303" transform="translate(952,1314)"/>
</svg>