<?xml version="1.0" encoding="UTF-8"?>
<svg version="1.1" xmlns="http://www.w3.org/2000/svg" width="2000" height="2000">
<path d="M0 0 C27.85992884 26.6640531 45.69595486 62.63708233 46.78515625 101.55078125 C47.39997379 142.84556676 35.73894419 176.94925201 9.546875 208.91796875 C8.85464844 209.76746094 8.16242188 210.61695313 7.44921875 211.4921875 C2.41587708 217.4143739 -3.29284277 222.2020014 -9.453125 226.91796875 C-10.97679687 228.10712891 -10.97679687 228.10712891 -12.53125 229.3203125 C-33.0539891 244.92540296 -56.95264893 254.55910731 -82.453125 257.91796875 C-83.39800781 258.04816406 -84.34289062 258.17835938 -85.31640625 258.3125 C-123.42566296 262.64966882 -163.50907943 251.94565381 -193.77685547 228.28320312 C-198.40124258 224.51688027 -202.7408491 220.44908132 -207.02050781 216.29931641 C-208.30127255 215.06438681 -209.60617278 213.85460246 -210.9140625 212.6484375 C-221.3536778 202.77659075 -228.669876 190.46086837 -235.453125 177.91796875 C-236.12601563 176.74814453 -236.12601563 176.74814453 -236.8125 175.5546875 C-244.21750562 162.01891425 -248.33268566 146.11988774 -250.453125 130.91796875 C-250.5459375 130.25845215 -250.63875 129.59893555 -250.734375 128.91943359 C-255.62069056 90.50077748 -246.07895986 52.39748689 -223.421875 21.11328125 C-218.1669426 14.37232288 -212.29856836 8.14482951 -206.453125 1.91796875 C-205.59654297 0.96277344 -205.59654297 0.96277344 -204.72265625 -0.01171875 C-181.25767671 -25.22601553 -144.2104174 -37.61625145 -110.67578125 -39.96875 C-69.43865261 -41.41829755 -30.38689927 -28.26087602 0 0 Z M-119.453125 95.91796875 C-119.453125 96.90796875 -119.453125 97.89796875 -119.453125 98.91796875 C-118.463125 98.58796875 -117.473125 98.25796875 -116.453125 97.91796875 C-116.453125 97.25796875 -116.453125 96.59796875 -116.453125 95.91796875 C-117.443125 95.91796875 -118.433125 95.91796875 -119.453125 95.91796875 Z M-88.453125 95.91796875 C-88.453125 96.90796875 -88.453125 97.89796875 -88.453125 98.91796875 C-87.463125 98.58796875 -86.473125 98.25796875 -85.453125 97.91796875 C-85.783125 97.25796875 -86.113125 96.59796875 -86.453125 95.91796875 C-87.113125 95.91796875 -87.773125 95.91796875 -88.453125 95.91796875 Z M-103.453125 96.91796875 C-103.783125 98.89796875 -104.113125 100.87796875 -104.453125 102.91796875 C-103.133125 102.58796875 -101.813125 102.25796875 -100.453125 101.91796875 C-101.113125 100.26796875 -101.773125 98.61796875 -102.453125 96.91796875 C-102.783125 96.91796875 -103.113125 96.91796875 -103.453125 96.91796875 Z " fill="#FEFEFE" transform="translate(1102.453125,1471.08203125)"/>
<path d="M0 0 C17.65268806 14.91140033 28.51805737 37.67033147 30.58789062 60.54541016 C32.08056106 86.25618601 23.43993085 109.16941064 6.6015625 128.62109375 C-6.83667109 142.85824671 -27.52555692 154.88846086 -47.54833984 156.1105957 C-75.65406853 156.65117332 -75.65406853 156.65117332 -87.6484375 151.93359375 C-88.61007812 151.55976562 -89.57171875 151.1859375 -90.5625 150.80078125 C-93.33120682 149.62310596 -95.98148595 148.3255553 -98.6484375 146.93359375 C-99.61265625 146.44246094 -100.576875 145.95132812 -101.5703125 145.4453125 C-121.63525371 134.55514363 -136.9374413 115.68647798 -143.6484375 93.93359375 C-150.33310239 69.70304663 -148.64649889 46.70632505 -136.796875 24.45703125 C-132.50763769 17.16020125 -127.52773876 10.99628606 -121.6484375 4.93359375 C-121.12121094 4.33289062 -120.59398437 3.7321875 -120.05078125 3.11328125 C-88.48116743 -31.60521988 -34.22963044 -26.70718953 0 0 Z M-75.6484375 53.93359375 C-75.6484375 54.92359375 -75.6484375 55.91359375 -75.6484375 56.93359375 C-74.6584375 56.60359375 -73.6684375 56.27359375 -72.6484375 55.93359375 C-72.6484375 55.27359375 -72.6484375 54.61359375 -72.6484375 53.93359375 C-73.6384375 53.93359375 -74.6284375 53.93359375 -75.6484375 53.93359375 Z M-44.6484375 53.93359375 C-44.6484375 54.92359375 -44.6484375 55.91359375 -44.6484375 56.93359375 C-43.6584375 56.60359375 -42.6684375 56.27359375 -41.6484375 55.93359375 C-41.9784375 55.27359375 -42.3084375 54.61359375 -42.6484375 53.93359375 C-43.3084375 53.93359375 -43.9684375 53.93359375 -44.6484375 53.93359375 Z M-59.6484375 54.93359375 C-59.9784375 56.91359375 -60.3084375 58.89359375 -60.6484375 60.93359375 C-59.3284375 60.60359375 -58.0084375 60.27359375 -56.6484375 59.93359375 C-57.3084375 58.28359375 -57.9684375 56.63359375 -58.6484375 54.93359375 C-58.9784375 54.93359375 -59.3084375 54.93359375 -59.6484375 54.93359375 Z " fill="#010101" transform="translate(1058.6484375,1513.06640625)"/>
<path d="M0 0 C1.75 0.0625 1.75 0.0625 4 1 C5.5046911 3.34554789 6.77923199 5.52255904 8 8 C8.66 9.32 9.32 10.64 10 12 C15.28 12 20.56 12 26 12 C26.66 10.35 27.32 8.7 28 7 C29.5078125 4.98046875 29.5078125 4.98046875 31.125 3.1875 C31.66382813 2.58292969 32.20265625 1.97835938 32.7578125 1.35546875 C33.16773438 0.90816406 33.57765625 0.46085937 34 0 C35.859375 0.61328125 35.859375 0.61328125 38 2 C39.203125 4.79296875 39.203125 4.79296875 40.25 8.1875 C42.29124307 13.95401167 44.44190502 17.10254226 49.328125 20.73046875 C51 22 51 22 52 24 C51.43410156 24.19335938 50.86820313 24.38671875 50.28515625 24.5859375 C49.18494141 24.97652344 49.18494141 24.97652344 48.0625 25.375 C46.96615234 25.75785156 46.96615234 25.75785156 45.84765625 26.1484375 C43.81317884 26.85271413 43.81317884 26.85271413 43 29 C46.96 28.67 50.92 28.34 55 28 C55.99 30.475 55.99 30.475 57 33 C52.71 33 48.42 33 44 33 C44 33.99 44 34.98 44 36 C48.62 36.66 53.24 37.32 58 38 C59.84593654 42.61484134 60.35234657 45.86948102 60.3125 50.6875 C60.30686035 51.39648438 60.3012207 52.10546875 60.29541016 52.8359375 C60.08002892 62.20182276 57.88334968 70.29582645 51 77 C43.62261517 82.28107876 35.85779724 84.30790134 26.828125 84.3359375 C26.06506042 84.3425943 25.30199585 84.3492511 24.51580811 84.35610962 C22.90900053 84.36618011 21.3021516 84.37092839 19.6953125 84.37060547 C17.27011069 84.37496386 14.84675402 84.41129924 12.421875 84.44921875 C1.9569413 84.52600822 -7.6962935 84.07406158 -15.9375 76.8125 C-21.00004697 71.19149461 -24.14341206 63.66299055 -24.09765625 56.11328125 C-24.09443359 55.17548828 -24.09121094 54.23769531 -24.08789062 53.27148438 C-24.07532227 51.80678711 -24.07532227 51.80678711 -24.0625 50.3125 C-24.05798828 49.32443359 -24.05347656 48.33636719 -24.04882812 47.31835938 C-24.03704303 44.87884526 -24.02059011 42.43945311 -24 40 C-20.58144472 38.53402494 -17.34176522 37.55712951 -13.6875 36.875 C-12.36298828 36.62363281 -12.36298828 36.62363281 -11.01171875 36.3671875 C-10.34785156 36.24601562 -9.68398438 36.12484375 -9 36 C-9 35.34 -9 34.68 -9 34 C-15.435 34.495 -15.435 34.495 -22 35 C-21 30 -21 30 -20 29 C-18.14712498 28.92773498 -16.29166122 28.9161878 -14.4375 28.9375 C-13.42558594 28.94652344 -12.41367187 28.95554687 -11.37109375 28.96484375 C-10.19740234 28.98224609 -10.19740234 28.98224609 -9 29 C-9 28.34 -9 27.68 -9 27 C-11.64 26.34 -14.28 25.68 -17 25 C-15.6599091 21.88196673 -14.37181618 20.33015737 -11.625 18.375 C-7.76597805 15.23505046 -6.51967366 11.96718023 -4.91015625 7.34765625 C-3.77457187 4.41853088 -2.13395934 2.28638501 0 0 Z M1 28 C1 28.99 1 29.98 1 31 C1.99 30.67 2.98 30.34 4 30 C4 29.34 4 28.68 4 28 C3.01 28 2.02 28 1 28 Z M32 28 C32 28.99 32 29.98 32 31 C32.99 30.67 33.98 30.34 35 30 C34.67 29.34 34.34 28.68 34 28 C33.34 28 32.68 28 32 28 Z M17 29 C16.67 30.98 16.34 32.96 16 35 C17.32 34.67 18.64 34.34 20 34 C19.34 32.35 18.68 30.7 18 29 C17.67 29 17.34 29 17 29 Z " fill="#FBFBFB" transform="translate(982,1539)"/>
<path d="M0 0 C3.17937542 3.17937542 4.98613083 5.97226166 7 10 C10.63 10 14.26 10 18 10 C18.33 8.68 18.66 7.36 19 6 C20.32467746 5.3162955 21.65863633 4.65035814 23 4 C23.268125 3.319375 23.53625 2.63875 23.8125 1.9375 C24.204375 1.298125 24.59625 0.65875 25 0 C31.14634146 -1.42682927 31.14634146 -1.42682927 34 0 C34 0.66 34 1.32 34 2 C34.66 2 35.32 2 36 2 C37.00696568 4.10084209 38.0053589 6.20579489 39 8.3125 C39.556875 9.48425781 40.11375 10.65601563 40.6875 11.86328125 C42 15 42 15 42 18 C42.639375 18.103125 43.27875 18.20625 43.9375 18.3125 C44.618125 18.539375 45.29875 18.76625 46 19 C46.495 20.485 46.495 20.485 47 22 C47.66 22 48.32 22 49 22 C53.69713093 28.05533747 57.17444416 34.55734925 59 42 C59.27457031 43.09828125 59.27457031 43.09828125 59.5546875 44.21875 C61.45849707 56.10920974 61.3517403 70.19157064 54.25 80.3125 C45.92664177 90.28828964 36.82184962 94.120319 23.9765625 95.6875 C7.52233137 96.98056335 -9.74333461 97.44869906 -24 88 C-30.54204632 82.28456603 -35.49250705 74.36550331 -36.19287109 65.58081055 C-36.95734091 40.01740331 -36.95734091 40.01740331 -31 29 C-29.36295604 27.30422801 -27.6997146 25.63295004 -26 24 C-25.67 23.01 -25.34 22.02 -25 21 C-24.22785156 20.58878906 -23.45570313 20.17757813 -22.66015625 19.75390625 C-19.19087101 17.46652142 -18.03293847 14.62765532 -16.4375 10.9375 C-13.57691369 4.3734168 -13.57691369 4.3734168 -10.78515625 2.56640625 C-10.19605469 2.37949219 -9.60695313 2.19257812 -9 2 C-9 1.34 -9 0.68 -9 0 C-5.73616149 -1.63191925 -3.46807101 -0.88171297 0 0 Z M-8.5 7.4375 C-10.56376847 10.01873254 -11.4686459 12.25807554 -12.3125 15.4375 C-13.70673635 20.27248336 -16.31885821 22.50550787 -20.2578125 25.4921875 C-22.27708399 26.9806018 -22.27708399 26.9806018 -23 30 C-20.36 30.66 -17.72 31.32 -15 32 C-15 32.66 -15 33.32 -15 34 C-15.77085937 33.96519531 -16.54171875 33.93039062 -17.3359375 33.89453125 C-18.84027344 33.85392578 -18.84027344 33.85392578 -20.375 33.8125 C-21.37273438 33.77769531 -22.37046875 33.74289062 -23.3984375 33.70703125 C-24.68621094 33.85205078 -24.68621094 33.85205078 -26 34 C-28.2773501 36.81509993 -28.2773501 36.81509993 -28 40 C-21.565 39.505 -21.565 39.505 -15 39 C-15 39.66 -15 40.32 -15 41 C-15.66386719 41.12117188 -16.32773437 41.24234375 -17.01171875 41.3671875 C-18.33623047 41.61855469 -18.33623047 41.61855469 -19.6875 41.875 C-20.99267578 42.11863281 -20.99267578 42.11863281 -22.32421875 42.3671875 C-25.02452671 43.00580048 -27.45316762 43.90784485 -30 45 C-30.93049757 63.89312781 -30.93049757 63.89312781 -22.75 80.375 C-17.4453626 86.02187207 -11.10206735 88.79742532 -3.41577148 89.17700195 C-1.98431783 89.20382625 -0.55272588 89.22384001 0.87890625 89.23828125 C1.64621567 89.246353 2.41352509 89.25442474 3.2040863 89.26274109 C4.8288245 89.27655169 6.45359135 89.28728733 8.07836914 89.29516602 C9.72201175 89.30663517 11.36561863 89.32700598 13.0090332 89.35668945 C25.49268817 89.58188085 36.24258921 88.874145 46.34765625 80.62890625 C53.26017874 73.81443373 54.16245622 65.0410734 54.25 55.8125 C54.2593457 55.12293213 54.26869141 54.43336426 54.27832031 53.72290039 C54.25125364 49.42502497 53.65559314 47.13898285 52 43 C47.38 42.34 42.76 41.68 38 41 C38 40.01 38 39.02 38 38 C42.29 38 46.58 38 51 38 C50.01 35.525 50.01 35.525 49 33 C45.04 33.33 41.08 33.66 37 34 C39.57404971 30.13892543 41.61020259 30.05680308 46 29 C45.06725891 27.87105124 44.12859878 26.74699124 43.1875 25.625 C42.66542969 24.99851562 42.14335938 24.37203125 41.60546875 23.7265625 C39.91774261 21.7778952 39.91774261 21.7778952 37 20 C35.61695922 16.70498121 34.51434258 13.35632241 33.37890625 9.96875 C32.276246 6.90802609 32.276246 6.90802609 29.83984375 5.59375 C29.23269531 5.3978125 28.62554688 5.201875 28 5 C26.84545838 6.24196122 25.70167438 7.49392845 24.5625 8.75 C23.60537109 9.79414062 23.60537109 9.79414062 22.62890625 10.859375 C20.69260057 13.11192753 20.69260057 13.11192753 20 17 C14.72 17 9.44 17 4 17 C2.76302083 14.4609375 1.52604167 11.921875 0.2890625 9.3828125 C-0.90502699 6.90465528 -0.90502699 6.90465528 -3 5 C-6.2239365 4.65094993 -6.2239365 4.65094993 -8.5 7.4375 Z " fill="#0A0A0A" transform="translate(988,1534)"/>
<path d="M0 0 C27.85992884 26.6640531 45.69595486 62.63708233 46.78515625 101.55078125 C47.39997379 142.84556676 35.73894419 176.94925201 9.546875 208.91796875 C8.85464844 209.76746094 8.16242188 210.61695313 7.44921875 211.4921875 C2.41587708 217.4143739 -3.29284277 222.2020014 -9.453125 226.91796875 C-10.97679687 228.10712891 -10.97679687 228.10712891 -12.53125 229.3203125 C-33.0539891 244.92540296 -56.95264893 254.55910731 -82.453125 257.91796875 C-83.39800781 258.04816406 -84.34289062 258.17835938 -85.31640625 258.3125 C-123.42566296 262.64966882 -163.50907943 251.94565381 -193.77685547 228.28320312 C-198.40124258 224.51688027 -202.7408491 220.44908132 -207.02050781 216.29931641 C-208.30127255 215.06438681 -209.60617278 213.85460246 -210.9140625 212.6484375 C-221.3536778 202.77659075 -228.669876 190.46086837 -235.453125 177.91796875 C-236.12601563 176.74814453 -236.12601563 176.74814453 -236.8125 175.5546875 C-244.21750562 162.01891425 -248.33268566 146.11988774 -250.453125 130.91796875 C-250.5459375 130.25845215 -250.63875 129.59893555 -250.734375 128.91943359 C-255.62069056 90.50077748 -246.07895986 52.39748689 -223.421875 21.11328125 C-218.1669426 14.37232288 -212.29856836 8.14482951 -206.453125 1.91796875 C-205.59654297 0.96277344 -205.59654297 0.96277344 -204.72265625 -0.01171875 C-181.25767671 -25.22601553 -144.2104174 -37.61625145 -110.67578125 -39.96875 C-69.43865261 -41.41829755 -30.38689927 -28.26087602 0 0 Z M-134.453125 -35.08203125 C-136.24556641 -34.664375 -136.24556641 -34.664375 -138.07421875 -34.23828125 C-163.11847227 -28.19221796 -184.81922701 -15.77314274 -203.453125 1.91796875 C-203.95457031 2.38686523 -204.45601562 2.85576172 -204.97265625 3.33886719 C-228.19293879 25.16084804 -242.39942292 52.69181055 -248.453125 83.91796875 C-248.6281958 84.8193457 -248.8032666 85.72072266 -248.98364258 86.64941406 C-249.51825132 90.3713807 -249.63357446 94.0294954 -249.65625 97.78125 C-249.66195007 98.53149948 -249.66765015 99.28174896 -249.67352295 100.05473328 C-249.68293604 101.64235037 -249.68949219 103.22998667 -249.69335938 104.81762695 C-249.70294273 107.18543319 -249.73394813 109.5523234 -249.765625 111.91992188 C-249.86539914 126.11045439 -247.88766998 139.58979345 -243.640625 153.16796875 C-243.38273193 154.00658447 -243.12483887 154.8452002 -242.85913086 155.70922852 C-240.63095992 162.74673229 -237.8377552 169.35435676 -234.453125 175.91796875 C-233.95425781 176.94664062 -233.45539062 177.9753125 -232.94140625 179.03515625 C-215.64293742 213.29701461 -183.55007575 238.77553681 -147.453125 250.85546875 C-121.4968282 258.86597256 -91.74498942 260.37757112 -65.453125 252.91796875 C-64.61555664 252.68722656 -63.77798828 252.45648437 -62.91503906 252.21875 C-24.11103802 241.24388102 7.32403728 215.88219936 27.296875 180.98046875 C31.43982043 173.54346849 34.64853311 165.91952611 37.546875 157.91796875 C37.92585938 156.9021875 38.30484375 155.88640625 38.6953125 154.83984375 C47.27329119 130.71830968 47.99323281 103.79166443 42.546875 78.91796875 C42.16402344 76.97664063 42.16402344 76.97664063 41.7734375 74.99609375 C36.5930687 51.32798676 24.68854157 29.78641826 8.546875 11.91796875 C7.37936978 10.52283673 6.21258799 9.12709863 5.046875 7.73046875 C-18.15627662 -18.36625237 -54.57510643 -35.85980321 -89.453125 -38.08203125 C-104.56307608 -38.64645755 -119.79357817 -39.2144916 -134.453125 -35.08203125 Z " fill="#161616" transform="translate(1102.453125,1471.08203125)"/>
<path d="M0 0 C25.94024794 24.82677369 44.22437171 58.5782045 46.546875 94.91796875 C46.65940987 100.10643726 46.64187145 105.29145942 46.609375 110.48046875 C46.60434866 111.88476402 46.59978776 113.28906105 46.59570312 114.69335938 C46.58399093 118.10160778 46.56758872 121.50976515 46.546875 124.91796875 C46.216875 124.91796875 45.886875 124.91796875 45.546875 124.91796875 C45.52500122 123.78705811 45.52500122 123.78705811 45.50268555 122.63330078 C45.18368739 107.82412111 44.68131129 93.4178639 41.546875 78.91796875 C41.29292969 77.62761719 41.03898437 76.33726563 40.77734375 75.0078125 C35.58786887 51.33527641 23.69548357 29.7914287 7.546875 11.91796875 C6.35842482 10.5020991 5.1707922 9.08554235 3.984375 7.66796875 C-18.78519943 -17.93444006 -55.31251121 -34.90678643 -89.453125 -37.08203125 C-104.56307608 -37.64645755 -119.79357817 -38.2144916 -134.453125 -34.08203125 C-136.24556641 -33.664375 -136.24556641 -33.664375 -138.07421875 -33.23828125 C-157.13593807 -28.63649261 -175.47433087 -20.24312184 -190.8671875 -8.0625 C-193.30953805 -6.1919989 -195.78553328 -4.60843301 -198.453125 -3.08203125 C-193.78026358 -15.03274005 -172.46834424 -23.41525373 -161.515625 -28.33203125 C-106.82858782 -50.71527436 -43.41323104 -40.37581884 0 0 Z " fill="#0D0D0D" transform="translate(1102.453125,1471.08203125)"/>
<path d="M0 0 C0.495 1.485 0.495 1.485 1 3 C0.31393677 3.65464233 0.31393677 3.65464233 -0.38598633 4.32250977 C-10.32535412 13.86784416 -19.53619583 23.37644206 -27 35 C-27.59433838 35.92449951 -27.59433838 35.92449951 -28.20068359 36.86767578 C-38.22236683 52.80582413 -44.42878964 70.57901099 -48 89 C-48.1750708 89.90137695 -48.3501416 90.80275391 -48.53051758 91.73144531 C-49.06512632 95.45341195 -49.18044946 99.11152665 -49.203125 102.86328125 C-49.20882507 103.61353073 -49.21452515 104.36378021 -49.22039795 105.13676453 C-49.22981104 106.72438162 -49.23636719 108.31201792 -49.24023438 109.8996582 C-49.24981773 112.26746444 -49.28082313 114.63435465 -49.3125 117.00195312 C-49.41228465 131.19397968 -47.43159234 144.6697683 -43.1875 158.25 C-42.93323242 159.08281494 -42.67896484 159.91562988 -42.41699219 160.77368164 C-40.49114858 166.88853048 -38.14480786 172.62163789 -35.296875 178.37109375 C-34.06171607 180.87489483 -33.00210585 183.39547017 -32 186 C-35.80001399 184.73332867 -35.98288497 183.76437484 -37.75 180.25 C-44.41549778 166.28736126 -48.86446766 151.31012413 -51 136 C-51.0928125 135.3404834 -51.185625 134.6809668 -51.28125 134.00146484 C-56.16756556 95.58280873 -46.62583486 57.47951814 -23.96875 26.1953125 C-16.70664514 16.87957962 -8.43654381 8.24906505 0 0 Z " fill="#1B1B1B" transform="translate(903,1466)"/>
<path d="M0 0 C4.03782054 1.34594018 5.09745472 3.96371305 7.1875 7.4375 C11.06935981 13.66330279 15.20818611 19.42853083 20 25 C20.79792969 25.94359375 21.59585938 26.8871875 22.41796875 27.859375 C43.83618855 52.58108294 74.34544753 67.43421593 106 74 C106 74.33 106 74.66 106 75 C98.04707075 74.61108236 91.02274453 73.13616832 83.5 70.5625 C82.46117676 70.20978027 81.42235352 69.85706055 80.35205078 69.49365234 C59.58911323 62.18257968 42.15434052 50.62589409 26.43261719 35.38134766 C25.15185245 34.14641806 23.84695222 32.93663371 22.5390625 31.73046875 C13.37848193 23.06809519 5.94285889 12.088505 0 1 C0 0.67 0 0.34 0 0 Z " fill="#0F0F0F" transform="translate(869,1652)"/>
<path d="M0 0 C22.63453376 -1.41711864 44.72064496 7.90500495 64 19 C64 19.99 64 20.98 64 22 C62.97003906 21.41992188 61.94007812 20.83984375 60.87890625 20.2421875 C41.99800434 9.80258108 21.56459595 3.02168087 0 1 C0 0.67 0 0.34 0 0 Z " fill="#1B1B1B" transform="translate(1013,1433)"/>
<path d="M0 0 C0.99 0.33 1.98 0.66 3 1 C3 2.65 3 4.3 3 6 C4.98 5.34 6.96 4.68 9 4 C9.33 5.32 9.66 6.64 10 8 C7.668033 10.14408341 6.48996568 10.98034522 3.2734375 11.109375 C1.83871094 10.93148438 1.83871094 10.93148438 0.375 10.75 C-0.58664062 10.64171875 -1.54828125 10.5334375 -2.5390625 10.421875 C-5 10 -5 10 -7 9 C-7 7.68 -7 6.36 -7 5 C-5.35 5 -3.7 5 -2 5 C-1.34 3.35 -0.68 1.7 0 0 Z M0 2 C-0.33 3.98 -0.66 5.96 -1 8 C0.32 7.67 1.64 7.34 3 7 C2.34 5.35 1.68 3.7 1 2 C0.67 2 0.34 2 0 2 Z " fill="#121212" transform="translate(999,1566)"/>
<path d="M0 0 C0.33 0.99 0.66 1.98 1 3 C-3.62 7.62 -8.24 12.24 -13 17 C-13.66 16.34 -14.32 15.68 -15 15 C-10.05 10.05 -5.1 5.1 0 0 Z " fill="#1B1B1B" transform="translate(903,1466)"/>
<path d="M0 0 C1 3 1 3 -0.36328125 6.25 C-1.00286248 7.50522802 -1.65305606 8.75509229 -2.3125 10 C-2.79493164 10.94359375 -2.79493164 10.94359375 -3.28710938 11.90625 C-4.7357577 14.71430753 -6.24572878 17.36859317 -8 20 C-7.69479473 13.285484 -4.82671135 4.82671135 0 0 Z " fill="#151515" transform="translate(870,1507)"/>
<path d="M0 0 C1.67542976 0.28604898 3.34385343 0.61781233 5 1 C4.67 2.65 4.34 4.3 4 6 C2.0625 6.5625 2.0625 6.5625 0 7 C-1 6 -1 6 -1.125 3.5 C-1 1 -1 1 0 0 Z M1 2 C1 2.99 1 3.98 1 5 C1.99 4.67 2.98 4.34 4 4 C3.67 3.34 3.34 2.68 3 2 C2.34 2 1.68 2 1 2 Z " fill="#171717" transform="translate(1013,1565)"/>
<path d="M0 0 C2.125 0.375 2.125 0.375 4 1 C4.5625 2.9375 4.5625 2.9375 5 5 C4 6 4 6 1.4375 6.0625 C0.2309375 6.0315625 0.2309375 6.0315625 -1 6 C-1.625 4.125 -1.625 4.125 -2 2 C-1.34 1.34 -0.68 0.68 0 0 Z M0 2 C0 2.99 0 3.98 0 5 C0.99 4.67 1.98 4.34 3 4 C3 3.34 3 2.68 3 2 C2.01 2 1.02 2 0 2 Z " fill="#1A1A1A" transform="translate(983,1565)"/>
<path d="M0 0 C0.99 0.33 1.98 0.66 3 1 C2.6875 2.875 2.6875 2.875 2 5 C1.01 5.66 0.02 6.32 -1 7 C-1.99 6.67 -2.98 6.34 -4 6 C-3.01 5.34 -2.02 4.68 -1 4 C-1.66 3.34 -2.32 2.68 -3 2 C-2.01 1.34 -1.02 0.68 0 0 Z " fill="#353535" transform="translate(1006,1570)"/>
</svg>
